<svg width="1386" height="660" fill="none" xmlns="http://www.w3.org/2000/svg"><g filter="url(#filter0_d_831_14)"><rect x="30" y="26" width="1326" height="599.774" rx="20" fill="#fff"/></g><path fill-rule="evenodd" clip-rule="evenodd" d="M1356 139.755v466.019c0 11.046-8.95 20-20 20H50c-11.046 0-20-8.954-20-20v-13.358c1.864-.264 3.757-.526 5.677-.788l391.19-34.072c12.577-1.712 25.071-3.356 37.495-4.991 93.898-12.357 183.764-24.182 274.943-60.857 62.756-25.241 126.303-67.516 188.59-108.953 40.184-26.734 79.845-53.118 118.425-74.354 26.14-13.585 52.95-27.076 79.78-40.578 67.86-34.142 135.87-68.359 193.41-104.375l36.49-23.693z" fill="url(#paint0_linear_831_14)"/><path d="M97 115c0-9.941 8.059-18 18-18h545c9.941 0 18 8.059 18 18v237c0 9.941-8.059 18-18 18H115c-9.941 0-18-8.059-18-18V115z" fill="url(#paint1_linear_831_14)"/><path d="M300.89 219l15.73-38.48H296.6v-8.32h29.51v8.32L310.445 219h-9.555zm50.371.975c-3.466 0-6.5-.726-9.1-2.178a15.463 15.463 0 01-6.077-6.077c-1.452-2.6-2.178-5.633-2.178-9.1v-14.04c0-3.467.726-6.5 2.178-9.1a15.471 15.471 0 016.077-6.078c2.6-1.451 5.634-2.177 9.1-2.177 3.467 0 6.5.726 9.1 2.177a15.474 15.474 0 016.078 6.078c1.452 2.6 2.177 5.633 2.177 9.1v14.04c0 3.467-.725 6.5-2.177 9.1a15.465 15.465 0 01-6.078 6.077c-2.6 1.452-5.633 2.178-9.1 2.178zm0-8.385c1.56 0 2.969-.368 4.225-1.105a8.235 8.235 0 002.99-2.99c.737-1.257 1.105-2.665 1.105-4.225v-15.405c0-1.56-.368-2.968-1.105-4.225a8.235 8.235 0 00-2.99-2.99c-1.256-.737-2.665-1.105-4.225-1.105-1.56 0-2.968.368-4.225 1.105a8.25 8.25 0 00-2.99 2.99c-.736 1.257-1.105 2.665-1.105 4.225v15.405c0 1.56.369 2.968 1.105 4.225a8.25 8.25 0 002.99 2.99c1.257.737 2.665 1.105 4.225 1.105zm33.594 7.41l-5.85-5.85 40.95-40.95 5.85 5.915L384.855 219zm31.2.975c-2.145 0-4.106-.52-5.882-1.56a12.318 12.318 0 01-4.225-4.225c-1.062-1.777-1.593-3.748-1.593-5.915 0-2.123.542-4.073 1.625-5.85a12.427 12.427 0 014.29-4.258 11.083 11.083 0 015.785-1.592c2.145 0 4.106.531 5.883 1.592a11.628 11.628 0 014.225 4.225c1.061 1.755 1.592 3.716 1.592 5.883s-.531 4.138-1.592 5.915a11.967 11.967 0 01-4.225 4.225c-1.777 1.04-3.738 1.56-5.883 1.56zm0-7.475c.759 0 1.452-.195 2.08-.585.65-.39 1.17-.899 1.56-1.528.39-.65.585-1.354.585-2.112s-.195-1.452-.585-2.08c-.39-.65-.91-1.17-1.56-1.56a3.864 3.864 0 00-2.08-.585c-.758 0-1.462.195-2.112.585-.629.39-1.138.91-1.528 1.56a3.867 3.867 0 00-.585 2.08c0 .758.195 1.462.585 2.112.39.629.899 1.138 1.528 1.528.65.39 1.354.585 2.112.585zm-27.3-17.875c-2.145 0-4.106-.52-5.882-1.56a12.234 12.234 0 01-4.258-4.225c-1.04-1.777-1.56-3.748-1.56-5.915 0-2.123.542-4.073 1.625-5.85a12.427 12.427 0 014.29-4.258 11.083 11.083 0 015.785-1.592c2.145 0 4.095.531 5.85 1.592a11.881 11.881 0 014.258 4.225c1.061 1.755 1.592 3.716 1.592 5.883s-.531 4.138-1.592 5.915a12.234 12.234 0 01-4.258 4.225c-1.755 1.04-3.705 1.56-5.85 1.56zm0-7.475c.759 0 1.452-.195 2.08-.585.65-.39 1.17-.899 1.56-1.528.39-.65.585-1.354.585-2.112s-.195-1.452-.585-2.08c-.39-.65-.91-1.17-1.56-1.56a3.864 3.864 0 00-2.08-.585c-.758 0-1.462.195-2.112.585-.629.39-1.138.91-1.528 1.56a3.867 3.867 0 00-.585 2.08c0 .758.195 1.462.585 2.112.39.629.899 1.138 1.528 1.528.65.39 1.354.585 2.112.585zm60.211 32.285c-1.576 0-2.958-.353-4.147-1.059a7.407 7.407 0 01-2.784-2.914c-.658-1.247-.986-2.678-.986-4.292 0-1.634.338-3.069 1.015-4.307.676-1.247 1.609-2.218 2.798-2.914 1.189-.696 2.557-1.044 4.104-1.044 1.575 0 2.958.353 4.147 1.058a7.36 7.36 0 012.798 2.929c.667 1.238 1.001 2.664 1.001 4.278 0 1.624-.339 3.059-1.015 4.306a7.378 7.378 0 01-2.799 2.915c-1.189.696-2.566 1.044-4.132 1.044zm0-3.683c1.266 0 2.209-.425 2.827-1.276.629-.86.943-1.962.943-3.306 0-1.392-.319-2.504-.957-3.335-.629-.831-1.566-1.247-2.813-1.247-.861 0-1.566.193-2.117.58-.551.387-.962.923-1.233 1.609-.261.687-.391 1.484-.391 2.393 0 1.402.314 2.518.942 3.349.638.822 1.571 1.233 2.799 1.233zM461.405 219v-15.602c0-.396.01-.846.029-1.349.02-.502.097-1.01.232-1.522.145-.512.406-.976.783-1.392.484-.541 1.006-.909 1.566-1.102a5.221 5.221 0 011.653-.319 39.18 39.18 0 011.363-.029h1.943v3.19h-1.798c-.618 0-1.078.159-1.377.478-.3.31-.45.682-.45 1.117V219h-3.944zm-2.465-12.615v-3.045h10.034v3.045H458.94zm24.504 13.05c-1.441 0-2.702-.362-3.785-1.088-1.083-.725-1.928-1.711-2.537-2.958-.6-1.247-.899-2.653-.899-4.219 0-1.595.304-3.011.913-4.249.619-1.247 1.484-2.228 2.596-2.943 1.111-.715 2.416-1.073 3.915-1.073 1.488 0 2.74.362 3.755 1.087 1.015.725 1.784 1.711 2.305 2.958.523 1.247.784 2.654.784 4.22 0 1.566-.266 2.972-.798 4.219-.522 1.247-1.305 2.233-2.349 2.958-1.044.726-2.344 1.088-3.9 1.088zm.638-3.509c.879 0 1.58-.198 2.102-.595.532-.396.914-.952 1.146-1.667.232-.715.348-1.547.348-2.494 0-.947-.116-1.779-.348-2.494-.232-.715-.605-1.271-1.117-1.668-.503-.396-1.165-.594-1.986-.594-.88 0-1.605.217-2.175.652-.561.426-.977 1.001-1.247 1.726-.271.715-.406 1.508-.406 2.378 0 .88.13 1.682.391 2.407.261.715.662 1.286 1.204 1.711.541.425 1.237.638 2.088.638zm3.596 3.074v-10.73h-.493v-10.15h3.973V219h-3.48zm7.83-17.835v-3.48h3.944v3.48h-3.944zm0 17.835v-15.66h3.944V219h-3.944zm14.41.435c-1.972 0-3.567-.445-4.785-1.334-1.209-.899-1.943-2.165-2.204-3.799l4.031-.609c.164.735.526 1.31 1.087 1.725.57.416 1.291.624 2.161.624.715 0 1.266-.135 1.653-.406.386-.28.58-.667.58-1.16 0-.309-.078-.556-.232-.74-.155-.193-.503-.381-1.044-.565-.532-.184-1.363-.425-2.494-.725-1.276-.329-2.296-.696-3.06-1.102-.764-.406-1.315-.889-1.653-1.45-.338-.57-.507-1.257-.507-2.059 0-1.005.256-1.875.768-2.61.512-.744 1.233-1.315 2.161-1.711.937-.406 2.039-.609 3.306-.609 1.227 0 2.315.188 3.262.565.947.377 1.711.914 2.291 1.61.59.696.952 1.518 1.088 2.465l-4.031.725c-.068-.58-.319-1.039-.754-1.378-.435-.338-1.025-.536-1.769-.594-.725-.048-1.31.048-1.755.29-.435.242-.652.59-.652 1.044 0 .271.091.498.275.681.193.184.585.373 1.175.566.599.193 1.508.445 2.726.754 1.189.309 2.141.672 2.856 1.087.725.406 1.252.899 1.581 1.479.328.571.493 1.262.493 2.074 0 1.605-.58 2.866-1.74 3.784-1.16.919-2.765 1.378-4.814 1.378zm17.019 0c-1.605 0-3.021-.343-4.249-1.03a7.614 7.614 0 01-2.871-2.856c-.686-1.218-1.029-2.61-1.029-4.176 0-1.711.338-3.2 1.015-4.466.677-1.266 1.609-2.248 2.798-2.944 1.189-.705 2.557-1.058 4.104-1.058 1.643 0 3.04.387 4.19 1.16 1.151.773 2.001 1.861 2.552 3.262.551 1.402.745 3.05.58 4.945h-3.9v-1.45c0-1.595-.256-2.741-.769-3.437-.502-.705-1.329-1.058-2.479-1.058-1.344 0-2.335.411-2.973 1.232-.628.812-.942 2.016-.942 3.611 0 1.46.314 2.591.942 3.393.638.793 1.571 1.189 2.799 1.189.773 0 1.435-.169 1.986-.508.551-.338.972-.826 1.262-1.464l3.944 1.131c-.59 1.431-1.523 2.542-2.799 3.335a7.686 7.686 0 01-4.161 1.189zm-5.191-7.163v-2.929h10.382v2.929h-10.382zm19.622 7.163c-1.121 0-2.073-.213-2.856-.638-.774-.435-1.363-1.01-1.769-1.726a4.897 4.897 0 01-.595-2.392c0-.725.111-1.387.334-1.987a4.035 4.035 0 011.073-1.58c.502-.464 1.174-.851 2.015-1.16.58-.213 1.271-.401 2.074-.566a46.654 46.654 0 012.726-.464l3.349-.507-1.421.783c0-.928-.222-1.61-.667-2.045-.444-.435-1.189-.652-2.233-.652-.58 0-1.184.14-1.812.42-.629.281-1.068.779-1.32 1.494l-3.567-1.131a6.058 6.058 0 012.233-3.161c1.093-.812 2.581-1.218 4.466-1.218 1.383 0 2.61.213 3.683.638 1.073.425 1.885 1.16 2.436 2.204.31.58.493 1.16.551 1.74.058.58.087 1.228.087 1.943V219h-3.451v-3.219l.493.667c-.763 1.054-1.59 1.817-2.479 2.291-.88.464-1.996.696-3.35.696zm.841-3.103c.725 0 1.334-.126 1.827-.377.503-.261.899-.556 1.189-.885.3-.328.503-.604.609-.826.203-.425.319-.918.348-1.479.039-.57.058-1.044.058-1.421l1.16.29c-1.169.193-2.117.358-2.842.493-.725.126-1.31.242-1.754.348-.445.106-.836.222-1.175.348a4.077 4.077 0 00-.942.507 1.835 1.835 0 00-.522.58c-.107.213-.16.45-.16.711 0 .358.087.667.261.928.184.251.44.445.769.58.328.135.72.203 1.174.203zm17.836 3.103c-1.972 0-3.567-.445-4.785-1.334-1.209-.899-1.943-2.165-2.204-3.799l4.031-.609c.164.735.526 1.31 1.087 1.725.57.416 1.291.624 2.161.624.715 0 1.266-.135 1.653-.406.386-.28.58-.667.58-1.16 0-.309-.078-.556-.232-.74-.155-.193-.503-.381-1.044-.565-.532-.184-1.363-.425-2.494-.725-1.276-.329-2.296-.696-3.06-1.102-.764-.406-1.315-.889-1.653-1.45-.338-.57-.507-1.257-.507-2.059 0-1.005.256-1.875.768-2.61.512-.744 1.233-1.315 2.161-1.711.937-.406 2.039-.609 3.306-.609 1.227 0 2.315.188 3.262.565.947.377 1.711.914 2.291 1.61.59.696.952 1.518 1.088 2.465l-4.031.725c-.068-.58-.319-1.039-.754-1.378-.435-.338-1.025-.536-1.769-.594-.725-.048-1.31.048-1.755.29-.435.242-.652.59-.652 1.044 0 .271.091.498.275.681.193.184.585.373 1.175.566.599.193 1.508.445 2.726.754 1.189.309 2.141.672 2.856 1.087.725.406 1.252.899 1.581 1.479.328.571.493 1.262.493 2.074 0 1.605-.58 2.866-1.74 3.784-1.16.919-2.765 1.378-4.814 1.378zm17.019 0c-1.605 0-3.021-.343-4.249-1.03a7.614 7.614 0 01-2.871-2.856c-.686-1.218-1.029-2.61-1.029-4.176 0-1.711.338-3.2 1.015-4.466.677-1.266 1.609-2.248 2.798-2.944 1.189-.705 2.557-1.058 4.104-1.058 1.643 0 3.04.387 4.19 1.16 1.151.773 2.001 1.861 2.552 3.262.551 1.402.745 3.05.58 4.945h-3.9v-1.45c0-1.595-.256-2.741-.769-3.437-.502-.705-1.329-1.058-2.479-1.058-1.344 0-2.335.411-2.973 1.232-.628.812-.942 2.016-.942 3.611 0 1.46.314 2.591.942 3.393.638.793 1.571 1.189 2.799 1.189.773 0 1.435-.169 1.986-.508.551-.338.972-.826 1.262-1.464l3.944 1.131c-.59 1.431-1.523 2.542-2.799 3.335a7.686 7.686 0 01-4.161 1.189zm-5.191-7.163v-2.929h10.382v2.929h-10.382zm21.674 7.163c-1.972 0-3.567-.445-4.785-1.334-1.208-.899-1.943-2.165-2.204-3.799l4.031-.609c.165.735.527 1.31 1.088 1.725.57.416 1.29.624 2.16.624.716 0 1.267-.135 1.653-.406.387-.28.58-.667.58-1.16 0-.309-.077-.556-.232-.74-.154-.193-.502-.381-1.044-.565-.531-.184-1.363-.425-2.494-.725-1.276-.329-2.295-.696-3.059-1.102-.764-.406-1.315-.889-1.653-1.45-.338-.57-.508-1.257-.508-2.059 0-1.005.257-1.875.769-2.61.512-.744 1.232-1.315 2.16-1.711.938-.406 2.04-.609 3.306-.609 1.228 0 2.316.188 3.263.565.947.377 1.711.914 2.291 1.61.59.696.952 1.518 1.087 2.465l-4.031.725c-.067-.58-.319-1.039-.754-1.378-.435-.338-1.024-.536-1.769-.594-.725-.048-1.309.048-1.754.29-.435.242-.653.59-.653 1.044 0 .271.092.498.276.681.193.184.585.373 1.174.566.6.193 1.508.445 2.726.754 1.189.309 2.142.672 2.857 1.087.725.406 1.252.899 1.58 1.479.329.571.493 1.262.493 2.074 0 1.605-.58 2.866-1.74 3.784-1.16.919-2.764 1.378-4.814 1.378zm-297.227 21.73v-3.48h3.944v3.48h-3.944zm0 17.835v-15.66h3.944V259h-3.944zm18.963 0v-7.395c0-.358-.019-.812-.058-1.363a6.183 6.183 0 00-.362-1.682 3.172 3.172 0 00-1.001-1.407c-.454-.377-1.102-.565-1.943-.565-.338 0-.701.053-1.087.159-.387.107-.75.315-1.088.624-.338.3-.619.744-.841 1.334-.213.59-.319 1.373-.319 2.349l-2.262-1.073a8.16 8.16 0 01.754-3.48 6.262 6.262 0 012.262-2.625c1.015-.667 2.291-1 3.828-1 1.228 0 2.228.208 3.002.623.773.416 1.372.943 1.798 1.581.435.638.744 1.305.928 2.001.183.686.294 1.315.333 1.885.039.57.058.986.058 1.247V259h-4.002zm-10.701 0v-15.66h3.509v5.191h.493V259h-4.002zm27.606 0l-4.785-15.689 3.857.029 2.842 9.338 2.886-9.338h3.277l2.885 9.338 2.842-9.338h3.857L345.064 259h-3.016l-3.422-10.208L335.204 259h-3.016zm26.997.435c-1.605 0-3.021-.343-4.249-1.03a7.614 7.614 0 01-2.871-2.856c-.686-1.218-1.029-2.61-1.029-4.176 0-1.711.338-3.2 1.015-4.466.677-1.266 1.609-2.248 2.798-2.944 1.189-.705 2.557-1.058 4.104-1.058 1.643 0 3.04.387 4.19 1.16 1.151.773 2.001 1.861 2.552 3.262.551 1.402.745 3.05.58 4.945h-3.9v-1.45c0-1.595-.256-2.741-.769-3.437-.502-.705-1.329-1.058-2.479-1.058-1.344 0-2.335.411-2.973 1.232-.628.812-.942 2.016-.942 3.611 0 1.46.314 2.591.942 3.393.638.793 1.571 1.189 2.799 1.189.773 0 1.435-.169 1.986-.508.551-.338.972-.826 1.262-1.464l3.944 1.131c-.59 1.431-1.523 2.542-2.799 3.335a7.686 7.686 0 01-4.161 1.189zm-5.191-7.163v-2.929h10.382v2.929h-10.382zm19.622 7.163c-1.121 0-2.073-.213-2.856-.638-.774-.435-1.363-1.01-1.769-1.726a4.897 4.897 0 01-.595-2.392c0-.725.111-1.387.334-1.987a4.035 4.035 0 011.073-1.58c.502-.464 1.174-.851 2.015-1.16.58-.213 1.271-.401 2.074-.566a46.654 46.654 0 012.726-.464l3.349-.507-1.421.783c0-.928-.222-1.61-.667-2.045-.444-.435-1.189-.652-2.233-.652-.58 0-1.184.14-1.812.42-.629.281-1.068.779-1.32 1.494l-3.567-1.131a6.058 6.058 0 012.233-3.161c1.093-.812 2.581-1.218 4.466-1.218 1.383 0 2.61.213 3.683.638 1.073.425 1.885 1.16 2.436 2.204.31.58.493 1.16.551 1.74.058.58.087 1.228.087 1.943V259h-3.451v-3.219l.493.667c-.763 1.054-1.59 1.817-2.479 2.291-.88.464-1.996.696-3.35.696zm.841-3.103c.725 0 1.334-.126 1.827-.377.503-.261.899-.556 1.189-.885.3-.328.503-.604.609-.826.203-.425.319-.918.348-1.479.039-.57.058-1.044.058-1.421l1.16.29c-1.169.193-2.117.358-2.842.493-.725.126-1.31.242-1.754.348-.445.106-.836.222-1.175.348a4.077 4.077 0 00-.942.507 1.835 1.835 0 00-.522.58c-.107.213-.16.45-.16.711 0 .358.087.667.261.928.184.251.44.445.769.58.328.135.72.203 1.174.203zM386.464 259v-21.315h3.944V259h-3.944zm17.687 0c-1.083.203-2.146.29-3.19.261-1.035-.019-1.963-.198-2.784-.537a3.758 3.758 0 01-1.856-1.667c-.387-.715-.59-1.44-.609-2.175a95.156 95.156 0 01-.029-2.523V238.99h3.944v13.137c0 .609.004 1.16.014 1.653.019.483.121.87.305 1.16.348.551.903.851 1.667.899.764.048 1.61.01 2.538-.116V259zm-11.136-12.615v-3.045h11.136v3.045h-11.136zM418.312 259v-7.395c0-.358-.019-.812-.058-1.363a6.146 6.146 0 00-.362-1.682 3.172 3.172 0 00-1.001-1.407c-.454-.377-1.102-.565-1.943-.565-.338 0-.7.053-1.087.159a2.668 2.668 0 00-1.088.624c-.338.3-.618.744-.841 1.334-.212.59-.319 1.373-.319 2.349l-2.262-1.073c0-1.237.252-2.397.754-3.48a6.262 6.262 0 012.262-2.625c1.015-.667 2.291-1 3.828-1 1.228 0 2.229.208 3.002.623.773.416 1.373.943 1.798 1.581.435.638.744 1.305.928 2.001.184.686.295 1.315.333 1.885.039.57.058.986.058 1.247V259h-4.002zm-10.701 0v-20.88h3.509v10.73h.493V259h-4.002zm20.467 6.96l3.016-8.294.058 2.436-6.815-16.762h4.089l4.582 11.861h-.928l4.553-11.861h3.944l-8.845 22.62h-3.654zm27.246-6.525c-1.624 0-3.016-.362-4.176-1.088a7.174 7.174 0 01-2.668-2.958c-.619-1.247-.928-2.653-.928-4.219 0-1.585.319-3.002.957-4.249a7.338 7.338 0 012.726-2.943c1.169-.715 2.552-1.073 4.147-1.073 1.846 0 3.393.469 4.64 1.406 1.256.928 2.059 2.2 2.407 3.814l-3.944 1.044c-.232-.812-.638-1.445-1.218-1.9a3.037 3.037 0 00-1.943-.681c-.832 0-1.513.203-2.045.609-.532.396-.923.942-1.174 1.638-.252.687-.377 1.465-.377 2.335 0 1.363.299 2.47.899 3.32.609.841 1.508 1.262 2.697 1.262.889 0 1.566-.203 2.03-.609.464-.406.812-.986 1.044-1.74l4.031.841c-.445 1.663-1.286 2.943-2.523 3.842-1.238.9-2.765 1.349-4.582 1.349zm16.627 0c-1.576 0-2.958-.353-4.147-1.059a7.407 7.407 0 01-2.784-2.914c-.657-1.247-.986-2.678-.986-4.292 0-1.634.338-3.069 1.015-4.307.677-1.247 1.61-2.218 2.799-2.914 1.189-.696 2.556-1.044 4.103-1.044 1.576 0 2.958.353 4.147 1.058a7.356 7.356 0 012.799 2.929c.667 1.238 1 2.664 1 4.278 0 1.624-.338 3.059-1.015 4.306a7.383 7.383 0 01-2.798 2.915c-1.189.696-2.567 1.044-4.133 1.044zm0-3.683c1.266 0 2.209-.425 2.828-1.276.628-.86.942-1.962.942-3.306 0-1.392-.319-2.504-.957-3.335-.628-.831-1.566-1.247-2.813-1.247-.86 0-1.566.193-2.117.58-.551.387-.962.923-1.232 1.609-.261.687-.392 1.484-.392 2.393 0 1.402.314 2.518.943 3.349.638.822 1.57 1.233 2.798 1.233zm16.964 3.712c-1.228 0-2.229-.208-3.002-.624-.773-.415-1.377-.942-1.812-1.58a6.683 6.683 0 01-.914-1.986 10.164 10.164 0 01-.333-1.9c-.039-.57-.058-.986-.058-1.247v-8.787h4.002v7.395c0 .358.019.817.058 1.377a6.13 6.13 0 00.362 1.668c.203.561.532 1.029.986 1.406.464.377 1.117.566 1.958.566.338 0 .7-.053 1.087-.16a2.722 2.722 0 001.088-.609c.338-.309.613-.758.826-1.348.222-.599.334-1.382.334-2.349l2.262 1.073a8.175 8.175 0 01-.754 3.48 6.226 6.226 0 01-2.277 2.624c-1.005.668-2.276 1.001-3.813 1.001zm5.075-.464v-5.191h-.493V243.34h3.973V259h-3.48zm18.204 0v-7.395c0-.358-.019-.812-.058-1.363a6.146 6.146 0 00-.362-1.682 3.172 3.172 0 00-1.001-1.407c-.454-.377-1.102-.565-1.943-.565-.338 0-.701.053-1.087.159a2.668 2.668 0 00-1.088.624c-.338.3-.618.744-.841 1.334-.212.59-.319 1.373-.319 2.349l-2.262-1.073c0-1.237.252-2.397.754-3.48a6.262 6.262 0 012.262-2.625c1.015-.667 2.291-1 3.828-1 1.228 0 2.228.208 3.002.623.773.416 1.372.943 1.798 1.581.435.638.744 1.305.928 2.001.183.686.295 1.315.333 1.885.039.57.058.986.058 1.247V259h-4.002zm-10.701 0v-15.66h3.509v5.191h.493V259h-4.002zm27.862 0c-1.083.203-2.146.29-3.19.261-1.035-.019-1.963-.198-2.784-.537a3.758 3.758 0 01-1.856-1.667c-.387-.715-.59-1.44-.609-2.175a95.156 95.156 0 01-.029-2.523V238.99h3.944v13.137a91 91 0 00.014 1.653c.02.483.121.87.305 1.16.348.551.904.851 1.667.899.764.048 1.61.01 2.538-.116V259zm-11.136-12.615v-3.045h11.136v3.045h-11.136zM532.844 259v-15.66h3.48v3.828l-.377-.493a5.798 5.798 0 01.812-1.479 4.273 4.273 0 011.247-1.102 4.872 4.872 0 011.233-.537 5.99 5.99 0 011.377-.246 6.96 6.96 0 011.421.029v3.683c-.435-.135-.942-.179-1.522-.131-.57.039-1.088.17-1.552.392a3.522 3.522 0 00-1.899 2.102 4.908 4.908 0 00-.247 1.61V259h-3.973zm12.242-17.835v-3.48h3.944v3.48h-3.944zm0 17.835v-15.66h3.944V259h-3.944zm15.57.435c-1.605 0-3.021-.343-4.249-1.03a7.614 7.614 0 01-2.871-2.856c-.686-1.218-1.029-2.61-1.029-4.176 0-1.711.338-3.2 1.015-4.466.676-1.266 1.609-2.248 2.798-2.944 1.189-.705 2.557-1.058 4.104-1.058 1.643 0 3.04.387 4.19 1.16 1.151.773 2.001 1.861 2.552 3.262.551 1.402.745 3.05.58 4.945h-3.9v-1.45c0-1.595-.256-2.741-.769-3.437-.502-.705-1.329-1.058-2.479-1.058-1.344 0-2.335.411-2.973 1.232-.628.812-.942 2.016-.942 3.611 0 1.46.314 2.591.942 3.393.638.793 1.571 1.189 2.799 1.189.773 0 1.435-.169 1.986-.508.551-.338.972-.826 1.262-1.464l3.944 1.131c-.59 1.431-1.523 2.542-2.799 3.335a7.686 7.686 0 01-4.161 1.189zm-5.191-7.163v-2.929h10.382v2.929h-10.382zm21.674 7.163c-1.972 0-3.567-.445-4.785-1.334-1.208-.899-1.943-2.165-2.204-3.799l4.031-.609c.165.735.527 1.31 1.088 1.725.57.416 1.29.624 2.16.624.716 0 1.267-.135 1.653-.406.387-.28.58-.667.58-1.16 0-.309-.077-.556-.232-.74-.154-.193-.502-.381-1.044-.565-.531-.184-1.363-.425-2.494-.725-1.276-.329-2.296-.696-3.059-1.102-.764-.406-1.315-.889-1.653-1.45-.339-.57-.508-1.257-.508-2.059 0-1.005.256-1.875.769-2.61.512-.744 1.232-1.315 2.16-1.711.938-.406 2.04-.609 3.306-.609 1.228 0 2.315.188 3.263.565.947.377 1.711.914 2.291 1.61.589.696.952 1.518 1.087 2.465l-4.031.725c-.067-.58-.319-1.039-.754-1.378-.435-.338-1.024-.536-1.769-.594-.725-.048-1.31.048-1.754.29-.435.242-.653.59-.653 1.044 0 .271.092.498.276.681.193.184.585.373 1.174.566.6.193 1.508.445 2.726.754 1.189.309 2.141.672 2.857 1.087.725.406 1.252.899 1.58 1.479.329.571.493 1.262.493 2.074 0 1.605-.58 2.866-1.74 3.784-1.16.919-2.764 1.378-4.814 1.378zm-276.759 40c-1.121 0-2.073-.213-2.856-.638-.774-.435-1.363-1.01-1.769-1.726a4.897 4.897 0 01-.595-2.392c0-.725.111-1.387.334-1.987a4.035 4.035 0 011.073-1.58c.502-.464 1.174-.851 2.015-1.16.58-.213 1.271-.401 2.074-.566a46.654 46.654 0 012.726-.464l3.349-.507-1.421.783c0-.928-.222-1.61-.667-2.045-.445-.435-1.189-.652-2.233-.652-.58 0-1.184.14-1.812.42-.629.281-1.069.779-1.32 1.494l-3.567-1.131a6.052 6.052 0 012.233-3.161c1.092-.812 2.581-1.218 4.466-1.218 1.382 0 2.61.213 3.683.638 1.073.425 1.885 1.16 2.436 2.204.309.58.493 1.16.551 1.74.058.58.087 1.228.087 1.943V299h-3.451v-3.219l.493.667c-.764 1.054-1.59 1.817-2.479 2.291-.88.464-1.997.696-3.35.696zm.841-3.103c.725 0 1.334-.126 1.827-.377.503-.261.899-.556 1.189-.885.3-.328.503-.604.609-.826.203-.425.319-.918.348-1.479.039-.57.058-1.044.058-1.421l1.16.29c-1.17.193-2.117.358-2.842.493-.725.126-1.31.242-1.754.348-.445.106-.837.222-1.175.348a4.056 4.056 0 00-.942.507 1.835 1.835 0 00-.522.58c-.107.213-.16.45-.16.711 0 .358.087.667.261.928.184.251.44.445.769.58.328.135.72.203 1.174.203zM312.937 299v-15.66h3.48v3.828l-.377-.493a5.798 5.798 0 01.812-1.479 4.273 4.273 0 011.247-1.102 4.872 4.872 0 011.233-.537 5.98 5.98 0 011.377-.246 6.96 6.96 0 011.421.029v3.683c-.435-.135-.942-.179-1.522-.131a4.23 4.23 0 00-1.552.392 3.522 3.522 0 00-1.899 2.102 4.882 4.882 0 00-.247 1.61V299h-3.973zm18.947.435c-1.604 0-3.021-.343-4.248-1.03a7.614 7.614 0 01-2.871-2.856c-.687-1.218-1.03-2.61-1.03-4.176 0-1.711.339-3.2 1.015-4.466.677-1.266 1.61-2.248 2.799-2.944 1.189-.705 2.557-1.058 4.103-1.058 1.644 0 3.04.387 4.191 1.16 1.15.773 2.001 1.861 2.552 3.262.551 1.402.744 3.05.58 4.945h-3.901v-1.45c0-1.595-.256-2.741-.768-3.437-.503-.705-1.329-1.058-2.48-1.058-1.343 0-2.334.411-2.972 1.232-.629.812-.943 2.016-.943 3.611 0 1.46.314 2.591.943 3.393.638.793 1.571 1.189 2.798 1.189.774 0 1.436-.169 1.987-.508.551-.338.971-.826 1.261-1.464l3.944 1.131c-.589 1.431-1.522 2.542-2.798 3.335a7.692 7.692 0 01-4.162 1.189zm-5.191-7.163v-2.929h10.382v2.929h-10.382zm28.263 7.163c-1.624 0-3.016-.362-4.176-1.088a7.18 7.18 0 01-2.668-2.958c-.618-1.247-.928-2.653-.928-4.219 0-1.585.319-3.002.957-4.249a7.351 7.351 0 012.726-2.943c1.17-.715 2.552-1.073 4.147-1.073 1.847 0 3.393.469 4.64 1.406 1.257.928 2.059 2.2 2.407 3.814l-3.944 1.044c-.232-.812-.638-1.445-1.218-1.9a3.035 3.035 0 00-1.943-.681c-.831 0-1.512.203-2.044.609-.532.396-.923.942-1.175 1.638-.251.687-.377 1.465-.377 2.335 0 1.363.3 2.47.899 3.32.609.841 1.508 1.262 2.697 1.262.89 0 1.566-.203 2.03-.609.464-.406.812-.986 1.044-1.74l4.031.841c-.444 1.663-1.285 2.943-2.523 3.842-1.237.9-2.764 1.349-4.582 1.349zm14.072 0c-1.121 0-2.073-.213-2.856-.638-.773-.435-1.363-1.01-1.769-1.726a4.908 4.908 0 01-.595-2.392c0-.725.112-1.387.334-1.987a4.035 4.035 0 011.073-1.58c.503-.464 1.174-.851 2.015-1.16.58-.213 1.272-.401 2.074-.566a46.654 46.654 0 012.726-.464l3.349-.507-1.421.783c0-.928-.222-1.61-.667-2.045-.444-.435-1.189-.652-2.233-.652-.58 0-1.184.14-1.812.42-.628.281-1.068.779-1.32 1.494l-3.567-1.131a6.058 6.058 0 012.233-3.161c1.093-.812 2.581-1.218 4.466-1.218 1.383 0 2.61.213 3.683.638 1.073.425 1.885 1.16 2.436 2.204.31.58.493 1.16.551 1.74.058.58.087 1.228.087 1.943V299h-3.451v-3.219l.493.667c-.763 1.054-1.59 1.817-2.479 2.291-.88.464-1.996.696-3.35.696zm.841-3.103c.725 0 1.334-.126 1.827-.377.503-.261.899-.556 1.189-.885.3-.328.503-.604.609-.826.203-.425.319-.918.348-1.479.039-.57.058-1.044.058-1.421l1.16.29c-1.169.193-2.117.358-2.842.493-.725.126-1.309.242-1.754.348-.445.106-.836.222-1.175.348-.386.155-.7.324-.942.507a1.835 1.835 0 00-.522.58c-.106.213-.16.45-.16.711 0 .358.087.667.261.928.184.251.44.445.769.58.329.135.72.203 1.174.203zm17.546 3.132c-1.228 0-2.229-.208-3.002-.624-.773-.415-1.377-.942-1.812-1.58a6.683 6.683 0 01-.914-1.986 10.164 10.164 0 01-.333-1.9c-.039-.57-.058-.986-.058-1.247v-8.787h4.002v7.395c0 .358.019.817.058 1.377a6.13 6.13 0 00.362 1.668c.203.561.532 1.029.986 1.406.464.377 1.117.566 1.958.566.338 0 .7-.053 1.087-.16a2.722 2.722 0 001.088-.609c.338-.309.613-.758.826-1.348.222-.599.334-1.382.334-2.349l2.262 1.073a8.175 8.175 0 01-.754 3.48 6.226 6.226 0 01-2.277 2.624c-1.005.668-2.276 1.001-3.813 1.001zm5.075-.464v-5.191h-.493V283.34h3.973V299h-3.48zm13.651.435c-1.972 0-3.567-.445-4.785-1.334-1.208-.899-1.943-2.165-2.204-3.799l4.031-.609c.165.735.527 1.31 1.088 1.725.57.416 1.29.624 2.16.624.716 0 1.267-.135 1.653-.406.387-.28.58-.667.58-1.16 0-.309-.077-.556-.232-.74-.154-.193-.502-.381-1.044-.565-.531-.184-1.363-.425-2.494-.725-1.276-.329-2.296-.696-3.059-1.102-.764-.406-1.315-.889-1.653-1.45-.339-.57-.508-1.257-.508-2.059 0-1.005.256-1.875.769-2.61.512-.744 1.232-1.315 2.16-1.711.938-.406 2.04-.609 3.306-.609 1.228 0 2.315.188 3.263.565.947.377 1.711.914 2.291 1.61.589.696.952 1.518 1.087 2.465l-4.031.725c-.067-.58-.319-1.039-.754-1.378-.435-.338-1.024-.536-1.769-.594-.725-.048-1.31.048-1.754.29-.435.242-.653.59-.653 1.044 0 .271.092.498.276.681.193.184.585.373 1.174.566.6.193 1.508.445 2.726.754 1.189.309 2.141.672 2.857 1.087.725.406 1.252.899 1.58 1.479.329.571.493 1.262.493 2.074 0 1.605-.58 2.866-1.74 3.784-1.16.919-2.764 1.378-4.814 1.378zm17.02 0c-1.605 0-3.021-.343-4.249-1.03a7.614 7.614 0 01-2.871-2.856c-.686-1.218-1.029-2.61-1.029-4.176 0-1.711.338-3.2 1.015-4.466.676-1.266 1.609-2.248 2.798-2.944 1.189-.705 2.557-1.058 4.104-1.058 1.643 0 3.04.387 4.19 1.16 1.15.773 2.001 1.861 2.552 3.262.551 1.402.744 3.05.58 4.945h-3.9v-1.45c0-1.595-.257-2.741-.769-3.437-.503-.705-1.329-1.058-2.479-1.058-1.344 0-2.335.411-2.973 1.232-.628.812-.942 2.016-.942 3.611 0 1.46.314 2.591.942 3.393.638.793 1.571 1.189 2.799 1.189.773 0 1.435-.169 1.986-.508.551-.338.972-.826 1.262-1.464l3.944 1.131c-.59 1.431-1.523 2.542-2.799 3.335a7.686 7.686 0 01-4.161 1.189zm-5.191-7.163v-2.929h10.382v2.929H417.97zm21.906 7.163c-1.44 0-2.702-.362-3.784-1.088-1.083-.725-1.929-1.711-2.538-2.958-.599-1.247-.899-2.653-.899-4.219 0-1.595.305-3.011.914-4.249.618-1.247 1.483-2.228 2.595-2.943 1.112-.715 2.417-1.073 3.915-1.073 1.489 0 2.741.362 3.756 1.087 1.015.725 1.783 1.711 2.305 2.958.522 1.247.783 2.654.783 4.22 0 1.566-.266 2.972-.797 4.219-.522 1.247-1.305 2.233-2.349 2.958-1.044.726-2.345 1.088-3.901 1.088zm.638-3.509c.88 0 1.581-.198 2.103-.595.531-.396.913-.952 1.145-1.667.232-.715.348-1.547.348-2.494 0-.947-.116-1.779-.348-2.494-.232-.715-.604-1.271-1.116-1.668-.503-.396-1.165-.594-1.987-.594-.88 0-1.605.217-2.175.652-.561.426-.976 1.001-1.247 1.726-.271.715-.406 1.508-.406 2.378 0 .88.131 1.682.392 2.407.261.715.662 1.286 1.203 1.711.541.425 1.237.638 2.088.638zM444.11 299v-10.73h-.493v-10.15h3.973V299h-3.48zm21.031.435c-1.557 0-2.857-.362-3.901-1.088-1.044-.725-1.832-1.711-2.363-2.958-.522-1.247-.783-2.653-.783-4.219 0-1.566.261-2.973.783-4.22.522-1.247 1.29-2.233 2.305-2.958 1.015-.725 2.267-1.087 3.756-1.087 1.498 0 2.803.358 3.915 1.073 1.111.715 1.972 1.696 2.581 2.943.618 1.238.928 2.654.928 4.249 0 1.566-.305 2.972-.914 4.219-.599 1.247-1.44 2.233-2.523 2.958-1.082.726-2.344 1.088-3.784 1.088zm-7.714-.435v-20.88h3.973v10.15h-.493V299h-3.48zm7.076-3.074c.85 0 1.546-.213 2.088-.638.541-.425.942-.996 1.203-1.711.261-.725.392-1.527.392-2.407 0-.87-.136-1.663-.406-2.378-.271-.725-.691-1.3-1.262-1.726-.56-.435-1.281-.652-2.16-.652-.822 0-1.489.198-2.001.594-.503.397-.87.953-1.102 1.668-.232.715-.348 1.547-.348 2.494 0 .947.116 1.779.348 2.494.232.715.609 1.271 1.131 1.667.531.397 1.237.595 2.117.595zm11.918 10.034l3.016-8.294.058 2.436-6.815-16.762h4.089l4.582 11.861h-.928l4.553-11.861h3.944l-8.845 22.62h-3.654zm20.633-6.96v-21.315h3.944V299h-3.944zm8.581-17.835v-3.48h3.944v3.48h-3.944zm0 17.835v-15.66h3.944V299h-3.944zm9.596 0v-15.602c0-.396.01-.846.029-1.349.02-.502.097-1.01.232-1.522.145-.512.406-.976.783-1.392.484-.541 1.006-.909 1.566-1.102a5.221 5.221 0 011.653-.319 39.18 39.18 0 011.363-.029h1.943v3.19h-1.798c-.618 0-1.077.159-1.377.478-.3.31-.45.682-.45 1.117V299h-3.944zm-2.465-12.615v-3.045H522.8v3.045h-10.034zm19.06 13.05c-1.605 0-3.021-.343-4.249-1.03a7.614 7.614 0 01-2.871-2.856c-.686-1.218-1.029-2.61-1.029-4.176 0-1.711.338-3.2 1.015-4.466.676-1.266 1.609-2.248 2.798-2.944 1.189-.705 2.557-1.058 4.104-1.058 1.643 0 3.04.387 4.19 1.16 1.15.773 2.001 1.861 2.552 3.262.551 1.402.744 3.05.58 4.945h-3.9v-1.45c0-1.595-.257-2.741-.769-3.437-.503-.705-1.329-1.058-2.479-1.058-1.344 0-2.335.411-2.973 1.232-.628.812-.942 2.016-.942 3.611 0 1.46.314 2.591.942 3.393.638.793 1.571 1.189 2.799 1.189.773 0 1.435-.169 1.986-.508.551-.338.972-.826 1.262-1.464l3.944 1.131c-.59 1.431-1.523 2.542-2.799 3.335a7.686 7.686 0 01-4.161 1.189zm-5.191-7.163v-2.929h10.382v2.929h-10.382zm21.674 7.163c-1.972 0-3.567-.445-4.785-1.334-1.208-.899-1.943-2.165-2.204-3.799l4.031-.609c.164.735.527 1.31 1.088 1.725.57.416 1.29.624 2.16.624.715 0 1.266-.135 1.653-.406.387-.28.58-.667.58-1.16 0-.309-.077-.556-.232-.74-.155-.193-.503-.381-1.044-.565-.532-.184-1.363-.425-2.494-.725-1.276-.329-2.296-.696-3.059-1.102-.764-.406-1.315-.889-1.653-1.45-.339-.57-.508-1.257-.508-2.059 0-1.005.256-1.875.769-2.61.512-.744 1.232-1.315 2.16-1.711.938-.406 2.04-.609 3.306-.609 1.228 0 2.315.188 3.263.565.947.377 1.711.914 2.291 1.61.589.696.952 1.518 1.087 2.465l-4.031.725c-.068-.58-.319-1.039-.754-1.378-.435-.338-1.025-.536-1.769-.594-.725-.048-1.31.048-1.754.29-.435.242-.653.59-.653 1.044 0 .271.092.498.276.681.193.184.584.373 1.174.566.599.193 1.508.445 2.726.754 1.189.309 2.141.672 2.857 1.087.725.406 1.251.899 1.58 1.479.329.571.493 1.262.493 2.074 0 1.605-.58 2.866-1.74 3.784-1.16.919-2.765 1.378-4.814 1.378zm19.137-.435c-1.083.203-2.146.29-3.19.261-1.035-.019-1.963-.198-2.784-.537a3.758 3.758 0 01-1.856-1.667c-.387-.715-.59-1.44-.609-2.175a95.156 95.156 0 01-.029-2.523V278.99h3.944v13.137c0 .609.004 1.16.014 1.653.019.483.121.87.305 1.16.348.551.903.851 1.667.899.764.048 1.61.01 2.538-.116V299zm-11.136-12.615v-3.045h11.136v3.045H556.31zm16.201 19.575l3.016-8.294.058 2.436-6.815-16.762h4.089l4.582 11.861h-.928l4.553-11.861h3.944l-8.845 22.62h-3.654zM587.34 299v-21.315h3.944V299h-3.944zm15.57.435c-1.605 0-3.021-.343-4.249-1.03a7.614 7.614 0 01-2.871-2.856c-.686-1.218-1.029-2.61-1.029-4.176 0-1.711.338-3.2 1.015-4.466.676-1.266 1.609-2.248 2.798-2.944 1.189-.705 2.557-1.058 4.104-1.058 1.643 0 3.04.387 4.19 1.16 1.15.773 2.001 1.861 2.552 3.262.551 1.402.744 3.05.58 4.945h-3.9v-1.45c0-1.595-.257-2.741-.769-3.437-.503-.705-1.329-1.058-2.479-1.058-1.344 0-2.335.411-2.973 1.232-.628.812-.942 2.016-.942 3.611 0 1.46.314 2.591.942 3.393.638.793 1.571 1.189 2.799 1.189.773 0 1.435-.169 1.986-.508.551-.338.972-.826 1.262-1.464l3.944 1.131c-.59 1.431-1.523 2.542-2.799 3.335a7.686 7.686 0 01-4.161 1.189zm-5.191-7.163v-2.929h10.382v2.929h-10.382z" fill="#fff"/><rect x="890" y="468.35" width="432" height="125" rx="15" fill="#fff"/><path fill-rule="evenodd" clip-rule="evenodd" d="M1109.93 351.052l26.94 25.668h-13.47v53.903h-26.93V376.72H1083l26.93-25.668zm86.19-32.513l26.93 25.668h-13.47v86.416h-26.93v-86.416h-13.46l26.93-25.668zm86.18-48.484l26.94 25.668h-13.47v134.9h-26.93v-134.9h-13.47l26.93-25.668z" fill="#fff" stroke="#fff" stroke-width="5" stroke-miterlimit="10" stroke-linejoin="round"/><path d="M952.2 566.52c-3.24 0-6.33-.645-9.27-1.935a23.453 23.453 0 01-7.695-5.535c-2.16-2.37-3.705-5.16-4.635-8.37l11.88-3.15c.63 2.37 1.86 4.215 3.69 5.535 1.86 1.29 3.87 1.935 6.03 1.935 1.86 0 3.555-.45 5.085-1.35 1.56-.9 2.79-2.115 3.69-3.645.93-1.53 1.395-3.225 1.395-5.085 0-2.79-.96-5.175-2.88-7.155-1.89-2.01-4.32-3.015-7.29-3.015-.9 0-1.77.135-2.61.405-.84.24-1.65.585-2.43 1.035l-5.49-9.63 20.61-17.1.9 2.61h-30.06v-11.52h40.5v11.52l-16.02 15.48-.09-3.42c3.72.57 6.855 1.875 9.405 3.915 2.58 2.01 4.53 4.5 5.85 7.47 1.35 2.94 2.025 6.075 2.025 9.405 0 4.08-1.035 7.755-3.105 11.025-2.07 3.24-4.815 5.82-8.235 7.74-3.42 1.89-7.17 2.835-11.25 2.835zm28.874-1.17l21.776-32.76-21.146-32.04h15.03l13.766 21.6 13.59-21.6h15.12l-21.15 32.04 21.69 32.76h-15.03l-14.22-22.32-14.306 22.32h-15.12z" fill="url(#paint2_linear_831_14)"/><path d="M1063.6 514.35v-14.4h2.72v14.4h-2.72zm13.08 0v-5.1c0-.247-.02-.56-.04-.94a4.376 4.376 0 00-.25-1.16c-.14-.387-.37-.71-.69-.97-.32-.26-.76-.39-1.34-.39-.24 0-.49.036-.75.11-.27.073-.52.216-.75.43-.24.206-.43.513-.58.92-.15.406-.22.946-.22 1.62l-1.56-.74c0-.854.17-1.654.52-2.4.34-.747.86-1.35 1.56-1.81.7-.46 1.58-.69 2.64-.69.84 0 1.53.143 2.07.43.53.286.94.65 1.24 1.09.3.44.51.9.64 1.38.12.473.2.906.23 1.3.02.393.04.68.04.86v6.06h-2.76zm-7.38 0v-10.8h2.42v3.58h.34v7.22h-2.76zm17.3.3c-1.12 0-2.08-.25-2.88-.75-.8-.5-1.42-1.18-1.84-2.04-.43-.86-.64-1.83-.64-2.91 0-1.094.22-2.07.66-2.93a4.997 4.997 0 011.88-2.03c.8-.494 1.76-.74 2.86-.74 1.27 0 2.34.323 3.2.97.86.64 1.42 1.516 1.66 2.63l-2.72.72c-.16-.56-.44-.997-.84-1.31-.4-.314-.84-.47-1.34-.47-.58 0-1.05.14-1.41.42-.37.273-.64.65-.81 1.13-.18.473-.26 1.01-.26 1.61 0 .94.2 1.703.62 2.29.42.58 1.04.87 1.86.87.61 0 1.08-.14 1.4-.42.32-.28.56-.68.72-1.2l2.78.58c-.31 1.146-.89 2.03-1.74 2.65-.86.62-1.91.93-3.16.93zm6.9-.3v-10.8h2.4v2.64l-.26-.34c.14-.374.32-.714.56-1.02.23-.307.52-.56.86-.76.26-.16.54-.284.85-.37.3-.094.62-.15.95-.17.32-.027.65-.02.98.02v2.54c-.3-.094-.65-.124-1.05-.09-.4.026-.75.116-1.07.27-.32.146-.59.343-.81.59-.22.24-.39.526-.5.86-.12.326-.17.696-.17 1.11v5.52h-2.74zm13.06.3c-1.1 0-2.08-.237-2.93-.71a5.253 5.253 0 01-1.98-1.97c-.47-.84-.71-1.8-.71-2.88 0-1.18.24-2.207.7-3.08.47-.874 1.11-1.55 1.93-2.03.82-.487 1.77-.73 2.83-.73 1.14 0 2.1.266 2.89.8.8.533 1.38 1.283 1.76 2.25.38.966.52 2.103.4 3.41h-2.69v-1c0-1.1-.17-1.89-.53-2.37-.34-.487-.91-.73-1.71-.73-.92 0-1.61.283-2.05.85-.43.56-.65 1.39-.65 2.49 0 1.006.22 1.786.65 2.34.44.546 1.09.82 1.93.82.54 0 .99-.117 1.37-.35.38-.234.67-.57.87-1.01l2.72.78a4.745 4.745 0 01-1.93 2.3c-.87.546-1.83.82-2.87.82zm-3.58-4.94v-2.02h7.16v2.02h-7.16zm13.54 4.94c-.78 0-1.43-.147-1.97-.44-.54-.3-.94-.697-1.22-1.19-.28-.5-.41-1.05-.41-1.65 0-.5.07-.957.23-1.37.15-.414.4-.777.74-1.09.34-.32.81-.587 1.39-.8.4-.147.87-.277 1.43-.39.55-.114 1.18-.22 1.88-.32.7-.107 1.47-.224 2.31-.35l-.98.54c0-.64-.16-1.11-.46-1.41-.31-.3-.82-.45-1.54-.45-.4 0-.82.096-1.25.29-.44.193-.74.536-.91 1.03l-2.46-.78c.27-.894.78-1.62 1.54-2.18.75-.56 1.78-.84 3.08-.84.95 0 1.8.146 2.54.44.74.293 1.3.8 1.68 1.52.21.4.34.8.38 1.2.04.4.06.846.06 1.34v6.6h-2.38v-2.22l.34.46c-.53.726-1.1 1.253-1.71 1.58-.61.32-1.38.48-2.31.48zm.58-2.14c.5 0 .92-.087 1.26-.26.34-.18.62-.384.82-.61.2-.227.34-.417.42-.57.14-.294.22-.634.24-1.02.02-.394.04-.72.04-.98l.8.2c-.81.133-1.46.246-1.96.34-.5.086-.91.166-1.21.24a6.56 6.56 0 00-.81.24c-.27.106-.49.223-.65.35-.16.12-.28.253-.36.4a.999.999 0 00-.11.49c0 .246.06.46.18.64.12.173.3.306.53.4.22.093.49.14.81.14zm12.3 2.14c-1.36 0-2.46-.307-3.3-.92-.84-.62-1.34-1.494-1.52-2.62l2.78-.42c.11.506.36.903.75 1.19.39.286.89.43 1.49.43.49 0 .87-.094 1.14-.28.26-.194.4-.46.4-.8a.8.8 0 00-.16-.51c-.11-.134-.35-.264-.72-.39-.37-.127-.94-.294-1.72-.5-.88-.227-1.59-.48-2.11-.76-.53-.28-.91-.614-1.14-1-.24-.394-.35-.867-.35-1.42 0-.694.17-1.294.53-1.8.35-.514.85-.907 1.49-1.18.64-.28 1.4-.42 2.28-.42.84 0 1.59.13 2.25.39.65.26 1.18.63 1.58 1.11.4.48.65 1.046.75 1.7l-2.78.5c-.05-.4-.22-.717-.52-.95-.3-.234-.71-.37-1.22-.41-.5-.034-.91.033-1.21.2-.3.166-.45.406-.45.72 0 .186.06.343.19.47.13.126.4.256.81.39.41.133 1.04.306 1.88.52.82.213 1.47.463 1.97.75.5.28.86.62 1.09 1.02.22.393.34.87.34 1.43 0 1.106-.4 1.976-1.2 2.61-.8.633-1.91.95-3.32.95zm11.73 0c-1.1 0-2.08-.237-2.93-.71a5.253 5.253 0 01-1.98-1.97c-.47-.84-.71-1.8-.71-2.88 0-1.18.24-2.207.7-3.08.47-.874 1.11-1.55 1.93-2.03.82-.487 1.77-.73 2.83-.73 1.14 0 2.1.266 2.89.8.8.533 1.38 1.283 1.76 2.25.38.966.52 2.103.4 3.41h-2.69v-1c0-1.1-.17-1.89-.53-2.37-.34-.487-.91-.73-1.71-.73-.92 0-1.61.283-2.05.85-.43.56-.65 1.39-.65 2.49 0 1.006.22 1.786.65 2.34.44.546 1.09.82 1.93.82.54 0 .99-.117 1.37-.35.38-.234.67-.57.87-1.01l2.72.78a4.745 4.745 0 01-1.93 2.3c-.87.546-1.83.82-2.87.82zm-3.58-4.94v-2.02h7.16v2.02h-7.16zm14.94-7.66v-2.4h2.72v2.4h-2.72zm0 12.3v-10.8h2.72v10.8h-2.72zm13.07 0v-5.1a12 12 0 00-.04-.94 4.015 4.015 0 00-.25-1.16c-.14-.387-.37-.71-.69-.97-.31-.26-.76-.39-1.34-.39-.23 0-.48.036-.75.11-.26.073-.51.216-.75.43-.23.206-.42.513-.58.92-.14.406-.22.946-.22 1.62l-1.56-.74c0-.854.18-1.654.52-2.4.35-.747.87-1.35 1.56-1.81.7-.46 1.58-.69 2.64-.69.85 0 1.54.143 2.07.43.54.286.95.65 1.24 1.09.3.44.52.9.64 1.38.13.473.21.906.23 1.3.03.393.04.68.04.86v6.06h-2.76zm-7.38 0v-10.8h2.42v3.58h.34v7.22h-2.76zm21.12.3c-.99 0-1.86-.25-2.61-.75-.74-.5-1.33-1.18-1.75-2.04-.41-.86-.62-1.83-.62-2.91 0-1.1.21-2.077.63-2.93a5.071 5.071 0 011.79-2.03c.77-.494 1.67-.74 2.7-.74 1.03 0 1.89.25 2.59.75s1.23 1.18 1.59 2.04c.36.86.54 1.83.54 2.91s-.18 2.05-.55 2.91c-.36.86-.9 1.54-1.62 2.04-.72.5-1.61.75-2.69.75zm.44-2.42c.61 0 1.09-.137 1.45-.41.37-.274.63-.657.79-1.15.16-.494.24-1.067.24-1.72 0-.654-.08-1.227-.24-1.72-.16-.494-.41-.877-.77-1.15-.34-.274-.8-.41-1.37-.41-.6 0-1.1.15-1.5.45-.38.293-.67.69-.86 1.19-.18.493-.28 1.04-.28 1.64 0 .606.09 1.16.27 1.66.18.493.46.886.83 1.18.38.293.86.44 1.44.44zm2.48 2.12v-7.4h-.34v-7h2.74v14.4h-2.4zm10.06.3c-1.08 0-2.04-.244-2.86-.73a5.115 5.115 0 01-1.92-2.01c-.45-.86-.68-1.847-.68-2.96 0-1.127.24-2.117.7-2.97.47-.86 1.11-1.53 1.93-2.01.82-.48 1.77-.72 2.83-.72 1.09 0 2.04.243 2.86.73.83.486 1.47 1.16 1.93 2.02.46.853.69 1.836.69 2.95 0 1.12-.23 2.11-.7 2.97a5.071 5.071 0 01-1.93 2.01c-.82.48-1.77.72-2.85.72zm0-2.54c.88 0 1.53-.294 1.95-.88.44-.594.65-1.354.65-2.28 0-.96-.22-1.727-.66-2.3-.43-.574-1.08-.86-1.94-.86-.59 0-1.08.133-1.46.4-.38.266-.66.636-.85 1.11-.18.473-.27 1.023-.27 1.65 0 .966.22 1.736.65 2.31.44.566 1.09.85 1.93.85zm9.59 2.24l-3.3-10.82 2.66.02 1.96 6.44 1.99-6.44h2.26l1.99 6.44 1.96-6.44h2.66l-3.3 10.8h-2.08l-2.36-7.04-2.36 7.04h-2.08zm21.35 0v-5.1a12 12 0 00-.04-.94 4.376 4.376 0 00-.25-1.16c-.14-.387-.37-.71-.69-.97-.31-.26-.76-.39-1.34-.39-.23 0-.48.036-.75.11-.27.073-.52.216-.75.43-.23.206-.43.513-.58.92-.15.406-.22.946-.22 1.62l-1.56-.74c0-.854.17-1.654.52-2.4.35-.747.87-1.35 1.56-1.81.7-.46 1.58-.69 2.64-.69.85 0 1.54.143 2.07.43.53.286.95.65 1.24 1.09.3.44.51.9.64 1.38.13.473.2.906.23 1.3.03.393.04.68.04.86v6.06h-2.76zm-7.38 0v-10.8h2.42v3.58h.34v7.22h-2.76zm12.94 0v-14.7h2.72v14.7h-2.72zm10.57.3c-1.08 0-2.04-.244-2.86-.73a5.115 5.115 0 01-1.92-2.01c-.45-.86-.68-1.847-.68-2.96 0-1.127.24-2.117.7-2.97.47-.86 1.11-1.53 1.93-2.01.82-.48 1.77-.72 2.83-.72 1.09 0 2.04.243 2.86.73.83.486 1.47 1.16 1.93 2.02.46.853.69 1.836.69 2.95 0 1.12-.23 2.11-.7 2.97a5.071 5.071 0 01-1.93 2.01c-.82.48-1.77.72-2.85.72zm0-2.54c.88 0 1.53-.294 1.95-.88.44-.594.65-1.354.65-2.28 0-.96-.22-1.727-.66-2.3-.43-.574-1.08-.86-1.94-.86-.59 0-1.08.133-1.46.4-.38.266-.66.636-.85 1.11-.18.473-.27 1.023-.27 1.65 0 .966.22 1.736.65 2.31.44.566 1.09.85 1.93.85zm10.68 2.54c-.77 0-1.43-.147-1.97-.44-.53-.3-.94-.697-1.22-1.19a3.42 3.42 0 01-.41-1.65c0-.5.08-.957.23-1.37.16-.414.4-.777.74-1.09.35-.32.81-.587 1.39-.8.4-.147.88-.277 1.43-.39.56-.114 1.18-.22 1.88-.32.7-.107 1.47-.224 2.31-.35l-.98.54c0-.64-.15-1.11-.46-1.41-.3-.3-.82-.45-1.54-.45-.4 0-.81.096-1.25.29-.43.193-.73.536-.91 1.03l-2.46-.78c.28-.894.79-1.62 1.54-2.18.76-.56 1.78-.84 3.08-.84.96 0 1.8.146 2.54.44.74.293 1.3.8 1.68 1.52.22.4.34.8.38 1.2.04.4.06.846.06 1.34v6.6h-2.38v-2.22l.34.46c-.52.726-1.09 1.253-1.71 1.58-.6.32-1.37.48-2.31.48zm.58-2.14c.5 0 .92-.087 1.26-.26.35-.18.62-.384.82-.61.21-.227.35-.417.42-.57.14-.294.22-.634.24-1.02.03-.394.04-.72.04-.98l.8.2c-.8.133-1.46.246-1.96.34-.5.086-.9.166-1.21.24-.3.073-.57.153-.81.24-.26.106-.48.223-.65.35-.16.12-.28.253-.36.4-.07.146-.11.31-.11.49 0 .246.06.46.18.64.13.173.31.306.53.4.23.093.5.14.81.14zm12.46 2.14c-.99 0-1.86-.25-2.61-.75-.74-.5-1.33-1.18-1.75-2.04-.41-.86-.62-1.83-.62-2.91 0-1.1.21-2.077.63-2.93a5.071 5.071 0 011.79-2.03c.77-.494 1.67-.74 2.7-.74 1.03 0 1.89.25 2.59.75s1.23 1.18 1.59 2.04c.36.86.54 1.83.54 2.91s-.18 2.05-.55 2.91c-.36.86-.9 1.54-1.62 2.04-.72.5-1.61.75-2.69.75zm.44-2.42c.61 0 1.09-.137 1.45-.41.37-.274.63-.657.79-1.15.16-.494.24-1.067.24-1.72 0-.654-.08-1.227-.24-1.72-.16-.494-.41-.877-.77-1.15-.34-.274-.8-.41-1.37-.41-.6 0-1.1.15-1.5.45-.38.293-.67.69-.86 1.19-.18.493-.28 1.04-.28 1.64 0 .606.09 1.16.27 1.66.18.493.46.886.83 1.18.38.293.86.44 1.44.44zm2.48 2.12v-7.4h-.34v-7h2.74v14.4h-2.4zm9.42.3c-1.36 0-2.46-.307-3.3-.92-.83-.62-1.34-1.494-1.52-2.62l2.78-.42c.12.506.37.903.75 1.19.4.286.89.43 1.49.43.5 0 .88-.094 1.14-.28.27-.194.4-.46.4-.8 0-.214-.05-.384-.16-.51-.1-.134-.34-.264-.72-.39-.36-.127-.94-.294-1.72-.5-.88-.227-1.58-.48-2.11-.76-.52-.28-.9-.614-1.14-1-.23-.394-.35-.867-.35-1.42 0-.694.18-1.294.53-1.8.36-.514.85-.907 1.49-1.18.65-.28 1.41-.42 2.28-.42.85 0 1.6.13 2.25.39.66.26 1.18.63 1.58 1.11.41.48.66 1.046.75 1.7l-2.78.5c-.04-.4-.22-.717-.52-.95-.3-.234-.7-.37-1.22-.41-.5-.034-.9.033-1.21.2-.3.166-.45.406-.45.72 0 .186.07.343.19.47.14.126.41.256.81.39.42.133 1.04.306 1.88.52.82.213 1.48.463 1.97.75.5.28.87.62 1.09 1.02.23.393.34.87.34 1.43 0 1.106-.4 1.976-1.2 2.61-.8.633-1.9.95-3.32.95zm-207.15 27c-1.09 0-2.04-.244-2.86-.73a5.115 5.115 0 01-1.92-2.01c-.45-.86-.68-1.847-.68-2.96 0-1.127.23-2.117.7-2.97.47-.86 1.11-1.53 1.93-2.01.82-.48 1.76-.72 2.83-.72 1.09 0 2.04.243 2.86.73.83.486 1.47 1.16 1.93 2.02.46.853.69 1.836.69 2.95 0 1.12-.23 2.11-.7 2.97a5.071 5.071 0 01-1.93 2.01c-.82.48-1.77.72-2.85.72zm0-2.54c.87 0 1.52-.294 1.95-.88.43-.594.65-1.354.65-2.28 0-.96-.22-1.727-.66-2.3-.43-.574-1.08-.86-1.94-.86-.59 0-1.08.133-1.46.4-.38.266-.66.636-.85 1.11-.18.473-.27 1.023-.27 1.65 0 .966.22 1.736.65 2.31.44.566 1.08.85 1.93.85zm8.58 2.24v-10.76c0-.274.01-.584.02-.93.01-.347.07-.697.16-1.05.1-.354.28-.674.54-.96.33-.374.69-.627 1.08-.76.39-.14.77-.214 1.14-.22.37-.014.68-.02.94-.02h1.34v2.2h-1.24c-.43 0-.74.11-.95.33-.21.213-.31.47-.31.77v11.4h-2.72zm-1.7-8.7v-2.1h6.92v2.1h-6.92zm12.52 8.7v-14.4h2.72v5.92h6.44v-5.92h2.72v14.4h-2.72v-5.94h-6.44v5.94h-2.72zm19.71.3c-1.11 0-2.09-.237-2.93-.71a5.253 5.253 0 01-1.98-1.97c-.48-.84-.71-1.8-.71-2.88 0-1.18.23-2.207.7-3.08a5.012 5.012 0 011.93-2.03c.82-.487 1.76-.73 2.83-.73 1.13 0 2.09.266 2.89.8.79.533 1.38 1.283 1.76 2.25.38.966.51 2.103.4 3.41h-2.69v-1c0-1.1-.18-1.89-.53-2.37-.35-.487-.92-.73-1.71-.73-.93 0-1.61.283-2.05.85-.44.56-.65 1.39-.65 2.49 0 1.006.21 1.786.65 2.34.44.546 1.08.82 1.93.82.53 0 .99-.117 1.37-.35.38-.234.67-.57.87-1.01l2.72.78c-.41.986-1.05 1.753-1.93 2.3-.88.546-1.83.82-2.87.82zm-3.58-4.94v-2.02h7.16v2.02h-7.16zm13.53 4.94c-.78 0-1.43-.147-1.97-.44-.54-.3-.94-.697-1.22-1.19-.28-.5-.41-1.05-.41-1.65 0-.5.07-.957.23-1.37.15-.414.4-.777.74-1.09.34-.32.81-.587 1.39-.8.4-.147.87-.277 1.43-.39.55-.114 1.18-.22 1.88-.32.7-.107 1.47-.224 2.31-.35l-.98.54c0-.64-.16-1.11-.46-1.41-.31-.3-.82-.45-1.54-.45-.4 0-.82.096-1.25.29-.44.193-.74.536-.91 1.03l-2.46-.78c.27-.894.78-1.62 1.54-2.18.75-.56 1.78-.84 3.08-.84.95 0 1.8.146 2.54.44.74.293 1.3.8 1.68 1.52.21.4.34.8.38 1.2.04.4.06.846.06 1.34v6.6H1121v-2.22l.34.46c-.53.726-1.1 1.253-1.71 1.58-.61.32-1.38.48-2.31.48zm.58-2.14c.5 0 .92-.087 1.26-.26.34-.18.62-.384.82-.61.2-.227.34-.417.42-.57.14-.294.22-.634.24-1.02.02-.394.04-.72.04-.98l.8.2c-.81.133-1.46.246-1.96.34-.5.086-.91.166-1.21.24a6.56 6.56 0 00-.81.24c-.27.106-.49.223-.65.35-.16.12-.28.253-.36.4a.999.999 0 00-.11.49c0 .246.06.46.18.64.12.173.3.306.53.4.22.093.49.14.81.14zm8.28 1.84v-14.7h2.72v14.7h-2.72zm12.2 0c-.75.14-1.48.2-2.2.18-.72-.014-1.36-.137-1.92-.37-.56-.24-.99-.624-1.28-1.15a3.234 3.234 0 01-.42-1.5c-.02-.514-.02-1.094-.02-1.74v-9.22h2.72v9.06c0 .42 0 .8.01 1.14.01.333.08.6.21.8.24.38.62.586 1.15.62.52.033 1.11.006 1.75-.08v2.26zm-7.68-8.7v-2.1h7.68v2.1h-7.68zm17.44 8.7v-5.1a12 12 0 00-.04-.94 4.015 4.015 0 00-.25-1.16c-.14-.387-.37-.71-.69-.97-.31-.26-.76-.39-1.34-.39-.23 0-.48.036-.75.11-.26.073-.51.216-.75.43-.23.206-.42.513-.58.92-.14.406-.22.946-.22 1.62l-1.56-.74c0-.854.18-1.654.52-2.4.35-.747.87-1.35 1.56-1.81.7-.46 1.58-.69 2.64-.69.85 0 1.54.143 2.07.43.54.286.95.65 1.24 1.09.3.44.52.9.64 1.38.13.473.21.906.23 1.3.03.393.04.68.04.86v6.06h-2.76zm-7.38 0v-14.4h2.42v7.4h.34v7h-2.76zm19.74.3c-.77 0-1.43-.147-1.97-.44-.53-.3-.94-.697-1.22-1.19a3.42 3.42 0 01-.41-1.65c0-.5.08-.957.23-1.37.15-.414.4-.777.74-1.09.35-.32.81-.587 1.39-.8.4-.147.88-.277 1.43-.39.55-.114 1.18-.22 1.88-.32.7-.107 1.47-.224 2.31-.35l-.98.54c0-.64-.15-1.11-.46-1.41-.31-.3-.82-.45-1.54-.45-.4 0-.82.096-1.25.29-.43.193-.74.536-.91 1.03l-2.46-.78a4.17 4.17 0 011.54-2.18c.75-.56 1.78-.84 3.08-.84.95 0 1.8.146 2.54.44.74.293 1.3.8 1.68 1.52.21.4.34.8.38 1.2.04.4.06.846.06 1.34v6.6h-2.38v-2.22l.34.46c-.53.726-1.1 1.253-1.71 1.58-.61.32-1.38.48-2.31.48zm.58-2.14c.5 0 .92-.087 1.26-.26.35-.18.62-.384.82-.61.21-.227.35-.417.42-.57.14-.294.22-.634.24-1.02.03-.394.04-.72.04-.98l.8.2c-.81.133-1.46.246-1.96.34-.5.086-.9.166-1.21.24a6.56 6.56 0 00-.81.24c-.27.106-.48.223-.65.35-.16.12-.28.253-.36.4-.07.146-.11.31-.11.49 0 .246.06.46.18.64.13.173.3.306.53.4.23.093.5.14.81.14zm15.44 1.84v-5.1a12 12 0 00-.04-.94 4.015 4.015 0 00-.25-1.16c-.14-.387-.37-.71-.69-.97-.31-.26-.76-.39-1.34-.39-.23 0-.48.036-.75.11-.26.073-.51.216-.75.43-.23.206-.42.513-.58.92-.14.406-.22.946-.22 1.62l-1.56-.74c0-.854.18-1.654.52-2.4.35-.747.87-1.35 1.56-1.81.7-.46 1.58-.69 2.64-.69.85 0 1.54.143 2.07.43.54.286.95.65 1.24 1.09.3.44.52.9.64 1.38.13.473.21.906.23 1.3.03.393.04.68.04.86v6.06h-2.76zm-7.38 0v-10.8h2.42v3.58h.34v7.22h-2.76zm16.92.3c-.99 0-1.86-.25-2.61-.75-.75-.5-1.33-1.18-1.75-2.04-.41-.86-.62-1.83-.62-2.91 0-1.1.21-2.077.63-2.93.43-.86 1.02-1.537 1.79-2.03.77-.494 1.67-.74 2.7-.74 1.03 0 1.89.25 2.59.75s1.23 1.18 1.59 2.04c.36.86.54 1.83.54 2.91s-.18 2.05-.55 2.91c-.36.86-.9 1.54-1.62 2.04-.72.5-1.62.75-2.69.75zm.44-2.42c.61 0 1.09-.137 1.45-.41.37-.274.63-.657.79-1.15.16-.494.24-1.067.24-1.72 0-.654-.08-1.227-.24-1.72-.16-.494-.42-.877-.77-1.15-.35-.274-.8-.41-1.37-.41-.61 0-1.11.15-1.5.45-.39.293-.67.69-.86 1.19-.19.493-.28 1.04-.28 1.64 0 .606.09 1.16.27 1.66.18.493.46.886.83 1.18.37.293.85.44 1.44.44zm2.48 2.12v-7.4h-.34v-7h2.74v14.4h-2.4zm9.21 0v-14.4h8.8v2.72h-6.08v3.12h4.88v2.72h-4.88v5.84h-2.72zm10.8-12.3v-2.4h2.72v2.4h-2.72zm0 12.3v-10.8h2.72v10.8h-2.72zm12.2 0c-.75.14-1.48.2-2.2.18-.71-.014-1.35-.137-1.92-.37-.56-.24-.99-.624-1.28-1.15a3.234 3.234 0 01-.42-1.5c-.01-.514-.02-1.094-.02-1.74v-9.22h2.72v9.06c0 .42 0 .8.01 1.14.01.333.08.6.21.8.24.38.62.586 1.15.62.53.033 1.11.006 1.75-.08v2.26zm-7.68-8.7v-2.1h7.68v2.1h-7.68zm17.45 8.7v-5.1c0-.247-.02-.56-.04-.94a4.376 4.376 0 00-.25-1.16c-.14-.387-.37-.71-.69-.97-.32-.26-.76-.39-1.34-.39-.24 0-.49.036-.75.11-.27.073-.52.216-.75.43-.24.206-.43.513-.58.92-.15.406-.22.946-.22 1.62l-1.56-.74c0-.854.17-1.654.52-2.4.34-.747.86-1.35 1.56-1.81.7-.46 1.58-.69 2.64-.69.84 0 1.53.143 2.07.43.53.286.94.65 1.24 1.09.3.44.51.9.64 1.38.12.473.2.906.23 1.3.02.393.04.68.04.86v6.06h-2.76zm-7.38 0v-10.8h2.42v3.58h.34v7.22h-2.76zm17.55.3c-1.1 0-2.08-.237-2.93-.71a5.253 5.253 0 01-1.98-1.97c-.47-.84-.71-1.8-.71-2.88 0-1.18.24-2.207.7-3.08.47-.874 1.11-1.55 1.93-2.03.82-.487 1.77-.73 2.83-.73 1.14 0 2.1.266 2.89.8.8.533 1.38 1.283 1.76 2.25.38.966.52 2.103.4 3.41h-2.69v-1c0-1.1-.17-1.89-.53-2.37-.34-.487-.91-.73-1.71-.73-.92 0-1.61.283-2.05.85-.43.56-.65 1.39-.65 2.49 0 1.006.22 1.786.65 2.34.44.546 1.09.82 1.93.82.54 0 .99-.117 1.37-.35.38-.234.67-.57.87-1.01l2.72.78a4.745 4.745 0 01-1.93 2.3c-.87.546-1.83.82-2.87.82zm-3.58-4.94v-2.02h7.16v2.02h-7.16zm14.95 4.94c-1.36 0-2.46-.307-3.3-.92-.83-.62-1.34-1.494-1.52-2.62l2.78-.42c.12.506.37.903.75 1.19.4.286.89.43 1.49.43.5 0 .88-.094 1.14-.28.27-.194.4-.46.4-.8 0-.214-.05-.384-.16-.51-.1-.134-.34-.264-.72-.39-.36-.127-.94-.294-1.72-.5-.88-.227-1.58-.48-2.11-.76-.52-.28-.9-.614-1.14-1-.23-.394-.35-.867-.35-1.42 0-.694.18-1.294.53-1.8.36-.514.85-.907 1.49-1.18.65-.28 1.41-.42 2.28-.42.85 0 1.6.13 2.25.39.66.26 1.18.63 1.58 1.11.41.48.66 1.046.75 1.7l-2.78.5c-.04-.4-.22-.717-.52-.95-.3-.234-.7-.37-1.22-.41-.5-.034-.9.033-1.21.2-.3.166-.45.406-.45.72 0 .186.07.343.19.47.14.126.41.256.81.39.42.133 1.04.306 1.88.52.82.213 1.48.463 1.97.75.5.28.87.62 1.09 1.02.23.393.34.87.34 1.43 0 1.106-.4 1.976-1.2 2.61-.8.633-1.9.95-3.32.95zm10.94 0c-1.36 0-2.46-.307-3.3-.92-.83-.62-1.34-1.494-1.52-2.62l2.78-.42c.11.506.36.903.75 1.19.39.286.89.43 1.49.43.49 0 .87-.094 1.14-.28.27-.194.4-.46.4-.8 0-.214-.05-.384-.16-.51-.11-.134-.35-.264-.72-.39-.37-.127-.94-.294-1.72-.5-.88-.227-1.58-.48-2.11-.76-.53-.28-.91-.614-1.14-1-.23-.394-.35-.867-.35-1.42 0-.694.18-1.294.53-1.8.35-.514.85-.907 1.49-1.18.65-.28 1.41-.42 2.28-.42.85 0 1.6.13 2.25.39.65.26 1.18.63 1.58 1.11.41.48.66 1.046.75 1.7l-2.78.5c-.05-.4-.22-.717-.52-.95-.3-.234-.71-.37-1.22-.41-.5-.034-.9.033-1.21.2-.3.166-.45.406-.45.72 0 .186.06.343.19.47.13.126.4.256.81.39.41.133 1.04.306 1.88.52.82.213 1.48.463 1.97.75.5.28.86.62 1.09 1.02.23.393.34.87.34 1.43 0 1.106-.4 1.976-1.2 2.61-.8.633-1.91.95-3.32.95zm-197.04 27c-.77 0-1.43-.147-1.97-.44-.53-.3-.94-.697-1.22-1.19a3.42 3.42 0 01-.41-1.65c0-.5.08-.957.23-1.37.15-.414.4-.777.74-1.09.35-.32.81-.587 1.39-.8.4-.147.88-.277 1.43-.39.55-.114 1.18-.22 1.88-.32.7-.107 1.47-.224 2.31-.35l-.98.54c0-.64-.15-1.11-.46-1.41-.31-.3-.82-.45-1.54-.45-.4 0-.82.096-1.25.29-.43.193-.74.536-.91 1.03l-2.46-.78a4.17 4.17 0 011.54-2.18c.75-.56 1.78-.84 3.08-.84.95 0 1.8.146 2.54.44.74.293 1.3.8 1.68 1.52.21.4.34.8.38 1.2.04.4.06.846.06 1.34v6.6h-2.38v-2.22l.34.46c-.53.726-1.1 1.253-1.71 1.58-.61.32-1.38.48-2.31.48zm.58-2.14c.5 0 .92-.087 1.26-.26.35-.18.62-.384.82-.61.21-.227.35-.417.42-.57.14-.294.22-.634.24-1.02.03-.394.04-.72.04-.98l.8.2c-.81.133-1.46.246-1.96.34-.5.086-.9.166-1.21.24a6.56 6.56 0 00-.81.24c-.27.106-.48.223-.65.35-.16.12-.28.253-.36.4-.07.146-.11.31-.11.49 0 .246.06.46.18.64.13.173.3.306.53.4.23.093.5.14.81.14zm13.38 2.14c-1.07 0-1.97-.25-2.69-.75s-1.26-1.18-1.63-2.04c-.36-.86-.54-1.83-.54-2.91s.18-2.05.54-2.91c.36-.86.89-1.54 1.59-2.04.7-.5 1.56-.75 2.59-.75 1.03 0 1.93.246 2.7.74.77.493 1.36 1.17 1.78 2.03.43.853.64 1.83.64 2.93 0 1.08-.21 2.05-.63 2.91-.41.86-.99 1.54-1.74 2.04s-1.62.75-2.61.75zm-5.32 4.5v-15.6h2.4v7.4h.34v8.2h-2.74zm4.88-6.92c.59 0 1.07-.147 1.44-.44.37-.294.65-.687.83-1.18.18-.5.27-1.054.27-1.66 0-.6-.09-1.147-.28-1.64-.19-.5-.48-.897-.87-1.19-.39-.3-.88-.45-1.49-.45-.57 0-1.03.136-1.38.41-.35.273-.6.656-.76 1.15-.16.493-.24 1.066-.24 1.72 0 .653.08 1.226.24 1.72.16.493.42.876.78 1.15.37.273.85.41 1.46.41zm12.92 2.42c-1.07 0-1.97-.25-2.69-.75s-1.26-1.18-1.63-2.04c-.36-.86-.54-1.83-.54-2.91s.18-2.05.54-2.91c.36-.86.89-1.54 1.59-2.04.7-.5 1.56-.75 2.59-.75 1.03 0 1.93.246 2.7.74.77.493 1.36 1.17 1.78 2.03.43.853.64 1.83.64 2.93 0 1.08-.21 2.05-.63 2.91-.41.86-.99 1.54-1.74 2.04s-1.62.75-2.61.75zm-5.32 4.5v-15.6h2.4v7.4h.34v8.2h-2.74zm4.88-6.92c.59 0 1.07-.147 1.44-.44.37-.294.65-.687.83-1.18.18-.5.27-1.054.27-1.66 0-.6-.09-1.147-.28-1.64-.19-.5-.48-.897-.87-1.19-.39-.3-.88-.45-1.49-.45-.57 0-1.03.136-1.38.41-.35.273-.6.656-.76 1.15-.16.493-.24 1.066-.24 1.72 0 .653.08 1.226.24 1.72.16.493.42.876.78 1.15.37.273.85.41 1.46.41zm7.82 2.12v-14.7h2.72v14.7h-2.72zm5.92-12.3v-2.4h2.72v2.4h-2.72zm0 12.3v-10.8h2.72v10.8h-2.72zm10.48.3c-1.12 0-2.08-.25-2.88-.75-.8-.5-1.42-1.18-1.84-2.04-.43-.86-.64-1.83-.64-2.91 0-1.094.22-2.07.66-2.93a4.997 4.997 0 011.88-2.03c.8-.494 1.76-.74 2.86-.74 1.27 0 2.34.323 3.2.97.86.64 1.42 1.516 1.66 2.63l-2.72.72c-.16-.56-.44-.997-.84-1.31-.4-.314-.84-.47-1.34-.47-.58 0-1.05.14-1.41.42-.37.273-.64.65-.81 1.13-.18.473-.26 1.01-.26 1.61 0 .94.2 1.703.62 2.29.42.58 1.04.87 1.86.87.61 0 1.08-.14 1.4-.42.32-.28.56-.68.72-1.2l2.78.58c-.31 1.146-.89 2.03-1.74 2.65-.86.62-1.91.93-3.16.93zm9.7 0c-.77 0-1.43-.147-1.97-.44-.53-.3-.94-.697-1.22-1.19a3.42 3.42 0 01-.41-1.65c0-.5.08-.957.23-1.37.16-.414.4-.777.74-1.09.35-.32.81-.587 1.39-.8.4-.147.88-.277 1.43-.39.56-.114 1.18-.22 1.88-.32.7-.107 1.47-.224 2.31-.35l-.98.54c0-.64-.15-1.11-.46-1.41-.3-.3-.82-.45-1.54-.45-.4 0-.81.096-1.25.29-.43.193-.73.536-.91 1.03l-2.46-.78c.28-.894.79-1.62 1.54-2.18.76-.56 1.78-.84 3.08-.84.96 0 1.8.146 2.54.44.74.293 1.3.8 1.68 1.52.22.4.34.8.38 1.2.04.4.06.846.06 1.34v6.6H1130v-2.22l.34.46c-.52.726-1.09 1.253-1.71 1.58-.6.32-1.37.48-2.31.48zm.58-2.14c.5 0 .92-.087 1.26-.26.35-.18.62-.384.82-.61.21-.227.35-.417.42-.57.14-.294.22-.634.24-1.02.03-.394.04-.72.04-.98l.8.2c-.8.133-1.46.246-1.96.34-.5.086-.9.166-1.21.24-.3.073-.57.153-.81.24-.26.106-.48.223-.65.35-.16.12-.28.253-.36.4-.07.146-.11.31-.11.49 0 .246.06.46.18.64.13.173.31.306.53.4.23.093.5.14.81.14zm14.56 1.84c-.74.14-1.48.2-2.2.18-.71-.014-1.35-.137-1.92-.37-.56-.24-.98-.624-1.28-1.15-.26-.494-.4-.994-.42-1.5-.01-.514-.02-1.094-.02-1.74v-9.22h2.72v9.06c0 .42.01.8.01 1.14.02.333.09.6.21.8.24.38.63.586 1.15.62.53.033 1.11.006 1.75-.08v2.26zm-7.68-8.7v-2.1h7.68v2.1h-7.68zm10.29-3.6v-2.4h2.72v2.4h-2.72zm0 12.3v-10.8h2.72v10.8h-2.72zm10.58.3c-1.09 0-2.04-.244-2.86-.73a5.115 5.115 0 01-1.92-2.01c-.46-.86-.68-1.847-.68-2.96 0-1.127.23-2.117.7-2.97.46-.86 1.11-1.53 1.93-2.01.82-.48 1.76-.72 2.83-.72 1.08 0 2.04.243 2.86.73.82.486 1.47 1.16 1.93 2.02.46.853.69 1.836.69 2.95 0 1.12-.24 2.11-.7 2.97a5.14 5.14 0 01-1.93 2.01c-.82.48-1.77.72-2.85.72zm0-2.54c.87 0 1.52-.294 1.95-.88.43-.594.65-1.354.65-2.28 0-.96-.22-1.727-.66-2.3-.44-.574-1.08-.86-1.94-.86-.6 0-1.08.133-1.46.4-.38.266-.67.636-.85 1.11-.18.473-.27 1.023-.27 1.65 0 .966.21 1.736.65 2.31.44.566 1.08.85 1.93.85zm15.04 2.24v-5.1c0-.247-.02-.56-.04-.94a4.376 4.376 0 00-.25-1.16c-.14-.387-.37-.71-.69-.97-.32-.26-.76-.39-1.34-.39-.24 0-.49.036-.75.11-.27.073-.52.216-.75.43-.24.206-.43.513-.58.92-.15.406-.22.946-.22 1.62l-1.56-.74c0-.854.17-1.654.52-2.4.34-.747.86-1.35 1.56-1.81.7-.46 1.58-.69 2.64-.69.84 0 1.53.143 2.07.43.53.286.94.65 1.24 1.09.3.44.51.9.64 1.38.12.473.2.906.23 1.3.02.393.04.68.04.86v6.06h-2.76zm-7.38 0v-10.8h2.42v3.58h.34v7.22h-2.76zm16.95.3c-1.36 0-2.46-.307-3.3-.92-.83-.62-1.34-1.494-1.52-2.62l2.78-.42c.11.506.36.903.75 1.19.39.286.89.43 1.49.43.49 0 .87-.094 1.14-.28.27-.194.4-.46.4-.8 0-.214-.05-.384-.16-.51-.11-.134-.35-.264-.72-.39-.37-.127-.94-.294-1.72-.5-.88-.227-1.58-.48-2.11-.76-.53-.28-.91-.614-1.14-1-.23-.394-.35-.867-.35-1.42 0-.694.18-1.294.53-1.8.35-.514.85-.907 1.49-1.18.65-.28 1.41-.42 2.28-.42.85 0 1.6.13 2.25.39.65.26 1.18.63 1.58 1.11.41.48.66 1.046.75 1.7l-2.78.5c-.05-.4-.22-.717-.52-.95-.3-.234-.71-.37-1.22-.41-.5-.034-.9.033-1.21.2-.3.166-.45.406-.45.72 0 .186.06.343.19.47.13.126.4.256.81.39.41.133 1.04.306 1.88.52.82.213 1.48.463 1.97.75.5.28.86.62 1.09 1.02.23.393.34.87.34 1.43 0 1.106-.4 1.976-1.2 2.61-.8.633-1.91.95-3.32.95z" fill="url(#paint3_linear_831_14)"/><path d="M152.945 479v-29.172l-6.885 4.233v-7.65l6.885-4.131h7.089V479h-7.089zm15.864 0v-6.936h6.936V479h-6.936zm15.463 0v-29.172l-6.885 4.233v-7.65l6.885-4.131h7.089V479h-7.089zm16.784 0v-36.72h14.688c2.618 0 4.735.527 6.35 1.581 1.615 1.037 2.796 2.346 3.544 3.927.748 1.581 1.122 3.179 1.122 4.794 0 2.057-.467 3.765-1.402 5.125-.918 1.36-2.185 2.27-3.8 2.729v-1.275c2.295.476 4.012 1.538 5.151 3.187 1.156 1.649 1.734 3.494 1.734 5.534 0 2.193-.408 4.122-1.224 5.788-.799 1.666-2.023 2.975-3.672 3.927-1.649.935-3.723 1.403-6.222 1.403h-16.269zm7.038-6.528h8.517c.935 0 1.768-.196 2.499-.587a4.396 4.396 0 001.709-1.683c.425-.731.637-1.589.637-2.575 0-.867-.178-1.641-.535-2.321-.357-.68-.901-1.215-1.632-1.606-.714-.408-1.607-.612-2.678-.612h-8.517v9.384zm0-15.861h7.548c.782 0 1.479-.136 2.091-.408a3.252 3.252 0 001.454-1.25c.357-.578.535-1.317.535-2.218 0-1.122-.348-2.066-1.045-2.831-.697-.765-1.709-1.147-3.035-1.147h-7.548v7.854z" fill="#333"/><path d="M144.55 524.635l.016-2.077 10.09-9.114c.868-.785 1.442-1.529 1.721-2.232a5.887 5.887 0 00.434-2.232 4.866 4.866 0 00-2.403-4.263c-.734-.444-1.555-.666-2.464-.666-.951 0-1.798.227-2.542.682a5.08 5.08 0 00-1.767 1.798 4.707 4.707 0 00-.62 2.433h-2.325c0-1.353.32-2.567.961-3.642a6.861 6.861 0 012.604-2.527c1.095-.62 2.335-.93 3.72-.93 1.353 0 2.567.321 3.642.961a6.874 6.874 0 012.558 2.573c.63 1.075.945 2.274.945 3.596 0 .93-.114 1.752-.341 2.465a6.116 6.116 0 01-1.038 1.968c-.465.6-1.06 1.22-1.783 1.86l-8.959 8.091-.356-.93h12.477v2.186h-14.57zm25.585.48c-1.375 0-2.615-.32-3.72-.961a7.13 7.13 0 01-2.604-2.604c-.641-1.105-.961-2.345-.961-3.72v-8.68c0-1.374.32-2.609.961-3.704a7.106 7.106 0 012.604-2.62c1.105-.64 2.345-.961 3.72-.961 1.374 0 2.609.321 3.704.961a7.082 7.082 0 012.62 2.62c.64 1.095.961 2.33.961 3.704v8.68c0 1.375-.321 2.615-.961 3.72a7.106 7.106 0 01-2.62 2.604c-1.095.641-2.33.961-3.704.961zm0-2.201c.919 0 1.756-.222 2.511-.666a5.13 5.13 0 001.798-1.814 4.827 4.827 0 00.666-2.495v-8.897c0-.92-.222-1.757-.666-2.511a5.006 5.006 0 00-1.798-1.798 4.771 4.771 0 00-2.511-.682c-.92 0-1.757.227-2.511.682a4.99 4.99 0 00-1.798 1.798 4.848 4.848 0 00-.667 2.511v8.897c0 .909.222 1.741.667 2.495a5.114 5.114 0 001.798 1.814 4.856 4.856 0 002.511.666zm15.526 1.736v-19.778l-4.2 2.527v-2.558l4.2-2.511h2.31v22.32h-2.31zm9.382 0l8.215-20.103H192.92v-2.217h12.772v2.217l-8.2 20.103h-2.449z" fill="#000"/><g clip-path="url(#clip0_831_14)"><g filter="url(#filter1_d_831_14)"><path fill-rule="evenodd" clip-rule="evenodd" d="M107.309 585.825c0-10.57 8.592-19.136 19.191-19.136 10.599 0 19.191 8.566 19.191 19.136 0 10.57-8.592 19.136-19.191 19.136-10.599 0-19.191-8.566-19.191-19.136z" fill="#fff"/></g><path fill-rule="evenodd" clip-rule="evenodd" d="M115.211 585.825c0-6.217 5.054-11.256 11.289-11.256 6.235 0 11.289 5.039 11.289 11.256 0 6.217-5.054 11.256-11.289 11.256-6.235 0-11.289-5.039-11.289-11.256z" fill="url(#paint4_linear_831_14)"/><path d="M127 442v125" stroke="#F2F2F2" stroke-width="2" stroke-miterlimit="8"/></g><g clip-path="url(#clip1_831_14)"><g filter="url(#filter2_d_831_14)"><path fill-rule="evenodd" clip-rule="evenodd" d="M399.309 561.825c0-10.57 8.592-19.136 19.191-19.136 10.599 0 19.191 8.566 19.191 19.136 0 10.57-8.592 19.136-19.191 19.136-10.599 0-19.191-8.566-19.191-19.136z" fill="#fff"/></g><path fill-rule="evenodd" clip-rule="evenodd" d="M407.211 561.825c0-6.217 5.054-11.256 11.289-11.256 6.235 0 11.289 5.039 11.289 11.256 0 6.217-5.054 11.256-11.289 11.256-6.235 0-11.289-5.039-11.289-11.256z" fill="url(#paint5_linear_831_14)"/></g><path d="M173.404 253.922l-.302-.603a5.268 5.268 0 00-4.738-2.928h-6.228a5.268 5.268 0 00-4.738 2.928l-.302.603h-.674a5.306 5.306 0 00-5.297 5.297v10.594a5.303 5.303 0 005.297 5.296h17.656a5.302 5.302 0 005.297-5.296v-10.594a5.304 5.304 0 00-5.297-5.297h-.674zm2.44 5.297v10.594a1.768 1.768 0 01-1.766 1.765h-17.656a1.766 1.766 0 01-1.766-1.765v-10.594a1.77 1.77 0 011.766-1.766h2.857l1.277-2.555a1.762 1.762 0 011.58-.976h6.228a1.762 1.762 0 011.58.976l1.277 2.555h2.857a1.77 1.77 0 011.766 1.766zm45.906-21.188h-10.594v3.532h10.594a21.188 21.188 0 11-21.187 21.187v-7.062h-3.532v7.062a24.72 24.72 0 1024.719-24.719z" fill="#fff"/><path d="M186.438 262.75a21.189 21.189 0 11-32.959-17.617 21.188 21.188 0 0111.771-3.57h10.594v-3.532H165.25a24.72 24.72 0 1024.719 24.719v-7.062h-3.531v7.062zm-21.188-31.781h17.656v-3.531H165.25a21.189 21.189 0 1121.188-21.188v7.063h3.531v-7.063a24.72 24.72 0 10-24.719 24.719zm35.313-24.719a21.188 21.188 0 1121.187 21.188h-17.656v3.531h17.656a24.72 24.72 0 10-24.719-24.719v7.063h3.532v-7.063z" fill="#fff"/><path d="M186.438 223.906v3.693a7.033 7.033 0 001.186 3.918l1.359 2.039-5.986 1.995a5.292 5.292 0 00-3.622 5.025v11.58h28.25v-11.58a5.292 5.292 0 00-3.622-5.025l-5.986-1.995 1.359-2.039a7.042 7.042 0 001.187-3.918v-3.693a7.066 7.066 0 00-7.063-7.062 7.065 7.065 0 00-4.994 2.068 7.065 7.065 0 00-2.068 4.994zm16.448 14.996a1.757 1.757 0 011.208 1.674v8.049h-21.188v-8.049a1.762 1.762 0 011.208-1.674l9.386-3.13 9.386 3.13zm-12.917-14.996a3.534 3.534 0 013.531-3.531 3.53 3.53 0 013.531 3.531v3.693a3.511 3.511 0 01-.593 1.959l-2.938 4.407-2.938-4.407a3.511 3.511 0 01-.593-1.959v-3.693zm-24.719 33.547a5.297 5.297 0 100 10.594 5.297 5.297 0 000-10.594zm0 7.063a1.766 1.766 0 11.001-3.532 1.766 1.766 0 01-.001 3.532zm56.5-12.36v-3.531h-6.569l-3.538 10.612a7.071 7.071 0 00-2.507 13.835 7.067 7.067 0 008.434-3.822 7.065 7.065 0 00.369-4.927 7.067 7.067 0 00-2.947-3.967l.615-1.842 9.724 6.946a7.06 7.06 0 0011.006 6.645 7.064 7.064 0 00-2.228-12.663v-10.817h-5.297v3.531h1.766v3.346l-13.517-1.352.665-1.994h4.024zm-10.594 17.657a3.535 3.535 0 01-3.513-3.176 3.534 3.534 0 012.805-3.816l-.967 2.902 3.35 1.117.965-2.896a3.53 3.53 0 01.581 3.79 3.529 3.529 0 01-3.221 2.079zm21.188-7.063a3.533 3.533 0 013.262 2.18 3.535 3.535 0 01-.765 3.848 3.537 3.537 0 01-3.849.766 3.534 3.534 0 01-2.18-3.263 3.535 3.535 0 013.532-3.531zm-1.766-3.699v.391a7.08 7.08 0 00-3.906 2.636l-5.564-3.974 9.47.947zm-58.266-66.926h-14.125a5.303 5.303 0 00-5.296 5.297v12.184l-1.309 6.545a3.532 3.532 0 003.462 4.224h20.412a3.536 3.536 0 002.731-1.293 3.537 3.537 0 00.731-2.931l-1.309-6.545v-12.184a5.302 5.302 0 00-5.297-5.297zm-15.89 5.297a1.766 1.766 0 011.765-1.766h14.125a1.769 1.769 0 011.766 1.766v10.594h-17.656v-10.594zm19.034 19.422h-20.412l1.06-5.297h18.293l1.063 5.297h-.004zm49.825-26.485v6.091a7.437 7.437 0 00-7.017 1.961l-.668.668a51.622 51.622 0 00-11.911 18.497 3.534 3.534 0 00.883 3.812 3.521 3.521 0 001.83.911 3.522 3.522 0 002.028-.256l3.524-1.566a51.769 51.769 0 0015.639-10.741 7.426 7.426 0 001.96-7.017h6.092v-3.532h-6.332l4.049-4.048-2.497-2.497-4.049 4.048v-6.331h-3.531zm1.811 16.88a48.234 48.234 0 01-14.576 10.011l-3.524 1.565a48.299 48.299 0 014.973-9.748l3.274 2.183 1.959-2.938-3.175-2.116a49.463 49.463 0 012.246-2.695l2.232 2.232 2.497-2.497-2.282-2.283.045-.045a3.902 3.902 0 015.509 0l.822.822a3.902 3.902 0 010 5.509z" fill="#fff"/><g clip-path="url(#clip2_831_14)"><g filter="url(#filter3_d_831_14)"><path fill-rule="evenodd" clip-rule="evenodd" d="M653.309 515.825c0-10.57 8.592-19.136 19.191-19.136 10.599 0 19.191 8.566 19.191 19.136 0 10.57-8.592 19.136-19.191 19.136-10.599 0-19.191-8.566-19.191-19.136z" fill="#fff"/></g><path fill-rule="evenodd" clip-rule="evenodd" d="M661.211 515.825c0-6.217 5.054-11.256 11.289-11.256 6.235 0 11.289 5.039 11.289 11.256 0 6.217-5.054 11.256-11.289 11.256-6.235 0-11.289-5.039-11.289-11.256z" fill="url(#paint6_linear_831_14)"/></g><g clip-path="url(#clip3_831_14)"><g filter="url(#filter4_d_831_14)"><path fill-rule="evenodd" clip-rule="evenodd" d="M921.309 378.825c0-10.57 8.592-19.136 19.191-19.136 10.599 0 19.191 8.566 19.191 19.136 0 10.57-8.592 19.136-19.191 19.136-10.599 0-19.191-8.566-19.191-19.136z" fill="#fff"/></g><path fill-rule="evenodd" clip-rule="evenodd" d="M929.211 378.825c0-6.217 5.054-11.256 11.289-11.256 6.235 0 11.289 5.039 11.289 11.256 0 6.217-5.054 11.256-11.289 11.256-6.235 0-11.289-5.039-11.289-11.256z" fill="url(#paint7_linear_831_14)"/></g><path d="M1053.28 152.663c-1.84 0-3.59-.365-5.25-1.097a13.235 13.235 0 01-4.36-3.136c-1.23-1.343-2.1-2.924-2.63-4.743l6.73-1.785c.36 1.343 1.06 2.388 2.09 3.136 1.06.731 2.2 1.097 3.42 1.097a5.59 5.59 0 002.88-.765 5.623 5.623 0 002.09-2.066c.53-.867.79-1.827.79-2.881 0-1.581-.54-2.933-1.63-4.055-1.07-1.139-2.45-1.708-4.13-1.708-.51 0-1 .076-1.48.229a6.41 6.41 0 00-1.38.587l-3.11-5.457 11.68-9.69.51 1.479h-17.03v-6.528h22.95v6.528l-9.08 8.772-.05-1.938c2.11.323 3.88 1.062 5.33 2.218a10.836 10.836 0 013.31 4.233c.77 1.666 1.15 3.443 1.15 5.33 0 2.312-.59 4.394-1.76 6.247-1.17 1.836-2.73 3.298-4.66 4.386-1.94 1.072-4.07 1.607-6.38 1.607zm20.54-.663v-6.936h6.94V152h-6.94zm14.2-.051v-6.018l15.4-13.668c1.16-1.02 1.97-1.981 2.45-2.882.47-.901.71-1.742.71-2.524 0-1.122-.23-2.117-.69-2.984a5.057 5.057 0 00-1.93-2.065c-.84-.51-1.82-.765-2.94-.765-1.17 0-2.21.272-3.11.816a5.6 5.6 0 00-2.06 2.116c-.5.867-.73 1.811-.69 2.831h-7.14c0-2.516.55-4.692 1.66-6.528 1.1-1.836 2.64-3.256 4.61-4.259 1.97-1.003 4.27-1.504 6.89-1.504 2.39 0 4.53.527 6.42 1.581a11.39 11.39 0 014.49 4.36c1.09 1.87 1.63 4.038 1.63 6.503 0 1.819-.25 3.332-.76 4.539-.51 1.19-1.27 2.295-2.27 3.315a79.708 79.708 0 01-3.7 3.417l-9.95 8.721-.56-1.53h17.24v6.528h-25.7zm31.8.051v-36.72h14.69c2.61 0 4.73.527 6.34 1.581 1.62 1.037 2.8 2.346 3.55 3.927s1.12 3.179 1.12 4.794c0 2.057-.47 3.765-1.4 5.125-.92 1.36-2.19 2.27-3.8 2.729v-1.275c2.29.476 4.01 1.538 5.15 3.187 1.16 1.649 1.73 3.494 1.73 5.534 0 2.193-.4 4.122-1.22 5.788-.8 1.666-2.02 2.975-3.67 3.927-1.65.935-3.72 1.403-6.22 1.403h-16.27zm7.04-6.528h8.51c.94 0 1.77-.196 2.5-.587.73-.408 1.3-.969 1.71-1.683.42-.731.64-1.589.64-2.575 0-.867-.18-1.641-.54-2.321-.36-.68-.9-1.215-1.63-1.606-.71-.408-1.61-.612-2.68-.612h-8.51v9.384zm0-15.861h7.54c.79 0 1.48-.136 2.09-.408.62-.272 1.1-.689 1.46-1.25.35-.578.53-1.317.53-2.218 0-1.122-.35-2.066-1.04-2.831-.7-.765-1.71-1.147-3.04-1.147h-7.54v7.854zm-86.31 67.373l.02-2.077 10.09-9.114c.86-.785 1.44-1.529 1.72-2.232.29-.713.43-1.457.43-2.232a4.9 4.9 0 00-.65-2.495 4.86 4.86 0 00-1.75-1.767 4.701 4.701 0 00-2.47-.667c-.95 0-1.79.228-2.54.682a5.172 5.172 0 00-1.77 1.798 4.76 4.76 0 00-.62 2.434h-2.32c0-1.354.32-2.568.96-3.643a6.898 6.898 0 012.6-2.526c1.1-.62 2.34-.93 3.72-.93 1.36 0 2.57.32 3.65.961a6.882 6.882 0 012.55 2.573c.63 1.075.95 2.273.95 3.596 0 .93-.11 1.751-.34 2.464a6.097 6.097 0 01-1.04 1.969c-.46.599-1.06 1.219-1.78 1.86l-8.96 8.091-.36-.93h12.48v2.185h-14.57zm25.58.481c-1.37 0-2.61-.32-3.72-.961a7.18 7.18 0 01-2.6-2.604c-.64-1.106-.96-2.346-.96-3.72v-8.68c0-1.374.32-2.609.96-3.705a7.146 7.146 0 012.6-2.619c1.11-.641 2.35-.961 3.72-.961 1.38 0 2.61.32 3.71.961a7.124 7.124 0 012.62 2.619c.64 1.096.96 2.331.96 3.705v8.68c0 1.374-.32 2.614-.96 3.72a7.159 7.159 0 01-2.62 2.604c-1.1.641-2.33.961-3.71.961zm0-2.201c.92 0 1.76-.222 2.52-.667a5.097 5.097 0 001.79-1.813c.45-.754.67-1.586.67-2.496v-8.897c0-.919-.22-1.756-.67-2.511a4.984 4.984 0 00-1.79-1.798 4.822 4.822 0 00-2.52-.682c-.91 0-1.75.228-2.51.682a4.984 4.984 0 00-1.79 1.798c-.45.755-.67 1.592-.67 2.511v8.897c0 .91.22 1.742.67 2.496a5.097 5.097 0 001.79 1.813c.76.445 1.6.667 2.51.667zm11.02 1.72l.02-2.077 10.09-9.114c.86-.785 1.44-1.529 1.72-2.232.29-.713.43-1.457.43-2.232a4.9 4.9 0 00-.65-2.495 4.86 4.86 0 00-1.75-1.767 4.701 4.701 0 00-2.47-.667c-.95 0-1.79.228-2.54.682a5.06 5.06 0 00-1.76 1.798 4.57 4.57 0 00-.62 2.434h-2.33c0-1.354.32-2.568.96-3.643a6.854 6.854 0 012.61-2.526c1.09-.62 2.33-.93 3.72-.93 1.35 0 2.56.32 3.64.961a6.908 6.908 0 012.56 2.573c.63 1.075.94 2.273.94 3.596 0 .93-.11 1.751-.34 2.464a6.097 6.097 0 01-1.04 1.969c-.46.599-1.06 1.219-1.78 1.86l-8.96 8.091-.36-.93h12.48v2.185h-14.57zm22.19.016v-19.778l-4.2 2.526v-2.557l4.2-2.511h2.31V197h-2.31z" fill="#333"/><g filter="url(#filter5_d_831_14)"><path fill-rule="evenodd" clip-rule="evenodd" d="M1147.31 248.803c0-10.461 8.59-18.939 19.19-18.939 10.6 0 19.19 8.478 19.19 18.939s-8.59 18.939-19.19 18.939c-10.6 0-19.19-8.478-19.19-18.939z" fill="#fff"/></g><path fill-rule="evenodd" clip-rule="evenodd" d="M1155.21 248.803c0-6.154 5.06-11.141 11.29-11.141 6.24 0 11.29 4.987 11.29 11.141 0 6.153-5.05 11.14-11.29 11.14-6.23 0-11.29-4.987-11.29-11.14z" fill="url(#paint8_linear_831_14)"/><path d="M1167 116v115" stroke="#F2F2F2" stroke-width="2" stroke-miterlimit="8"/><defs><linearGradient id="paint0_linear_831_14" x1="1138.82" y1="843.551" x2="216.397" y2="-89.055" gradientUnits="userSpaceOnUse"><stop stop-color="#1656FC"/><stop offset=".016" stop-color="#1757FB"/><stop offset=".032" stop-color="#1958FB"/><stop offset=".048" stop-color="#1B59FB"/><stop offset=".065" stop-color="#1D5AFB"/><stop offset=".081" stop-color="#1F5BFB"/><stop offset=".097" stop-color="#205CFB"/><stop offset=".113" stop-color="#225EFB"/><stop offset=".129" stop-color="#245FFB"/><stop offset=".145" stop-color="#2660FB"/><stop offset=".161" stop-color="#2761FB"/><stop offset=".177" stop-color="#2962FB"/><stop offset=".194" stop-color="#2A63FB"/><stop offset=".21" stop-color="#2C64FB"/><stop offset=".226" stop-color="#2E65FB"/><stop offset=".242" stop-color="#2F66FA"/><stop offset=".258" stop-color="#3167FA"/><stop offset=".274" stop-color="#3268FA"/><stop offset=".29" stop-color="#3368FA"/><stop offset=".306" stop-color="#3569FA"/><stop offset=".323" stop-color="#366AFA"/><stop offset=".339" stop-color="#376BFA"/><stop offset=".355" stop-color="#396CF9"/><stop offset=".371" stop-color="#3A6DF9"/><stop offset=".387" stop-color="#3B6EF9"/><stop offset=".403" stop-color="#3D6EF9"/><stop offset=".419" stop-color="#3E6FF9"/><stop offset=".435" stop-color="#3F70F8"/><stop offset=".452" stop-color="#4071F8"/><stop offset=".468" stop-color="#4171F8"/><stop offset=".484" stop-color="#4272F8"/><stop offset=".5" stop-color="#4373F7"/><stop offset=".516" stop-color="#4473F7"/><stop offset=".532" stop-color="#4574F7"/><stop offset=".548" stop-color="#4674F7"/><stop offset=".565" stop-color="#4775F6"/><stop offset=".581" stop-color="#4876F6"/><stop offset=".597" stop-color="#4976F6"/><stop offset=".613" stop-color="#4A77F6"/><stop offset=".629" stop-color="#4B77F5"/><stop offset=".645" stop-color="#4B78F5"/><stop offset=".661" stop-color="#4C78F5"/><stop offset=".677" stop-color="#4D79F4"/><stop offset=".694" stop-color="#4E79F4"/><stop offset=".71" stop-color="#4E7AF4"/><stop offset=".726" stop-color="#4F7AF3"/><stop offset=".742" stop-color="#507AF3"/><stop offset=".758" stop-color="#507BF3"/><stop offset=".774" stop-color="#517BF2"/><stop offset=".79" stop-color="#517BF2"/><stop offset=".806" stop-color="#527CF1"/><stop offset=".823" stop-color="#527CF1"/><stop offset=".839" stop-color="#527CF1"/><stop offset=".855" stop-color="#537CF0"/><stop offset=".871" stop-color="#537DF0"/><stop offset=".887" stop-color="#537DF0"/><stop offset=".903" stop-color="#547DEF"/><stop offset=".919" stop-color="#547DEF"/><stop offset=".935" stop-color="#547DEE"/><stop offset=".952" stop-color="#547DEE"/><stop offset=".968" stop-color="#547DED"/><stop offset=".984" stop-color="#547DED"/><stop offset="1" stop-color="#557EED"/></linearGradient><linearGradient id="paint1_linear_831_14" x1="97" y1="97" x2="679.557" y2="100.363" gradientUnits="userSpaceOnUse"><stop stop-color="#1656FC"/><stop offset="1" stop-color="#557EED"/></linearGradient><linearGradient id="paint2_linear_831_14" x1="927" y1="492.35" x2="1046.32" y2="492.843" gradientUnits="userSpaceOnUse"><stop stop-color="#1656FC"/><stop offset="1" stop-color="#557EED"/></linearGradient><linearGradient id="paint3_linear_831_14" x1="1062" y1="501.35" x2="1285.58" y2="503.463" gradientUnits="userSpaceOnUse"><stop stop-color="#1656FC"/><stop offset="1" stop-color="#557EED"/></linearGradient><linearGradient id="paint4_linear_831_14" x1="137.789" y1="597.081" x2="115.276" y2="574.504" gradientUnits="userSpaceOnUse"><stop stop-color="#1656FC"/><stop offset=".016" stop-color="#1757FB"/><stop offset=".032" stop-color="#1958FB"/><stop offset=".048" stop-color="#1B59FB"/><stop offset=".065" stop-color="#1D5AFB"/><stop offset=".081" stop-color="#1F5BFB"/><stop offset=".097" stop-color="#205CFB"/><stop offset=".113" stop-color="#225EFB"/><stop offset=".129" stop-color="#245FFB"/><stop offset=".145" stop-color="#2660FB"/><stop offset=".161" stop-color="#2761FB"/><stop offset=".177" stop-color="#2962FB"/><stop offset=".194" stop-color="#2A63FB"/><stop offset=".21" stop-color="#2C64FB"/><stop offset=".226" stop-color="#2E65FB"/><stop offset=".242" stop-color="#2F66FA"/><stop offset=".258" stop-color="#3167FA"/><stop offset=".274" stop-color="#3268FA"/><stop offset=".29" stop-color="#3368FA"/><stop offset=".306" stop-color="#3569FA"/><stop offset=".323" stop-color="#366AFA"/><stop offset=".339" stop-color="#376BFA"/><stop offset=".355" stop-color="#396CF9"/><stop offset=".371" stop-color="#3A6DF9"/><stop offset=".387" stop-color="#3B6EF9"/><stop offset=".403" stop-color="#3D6EF9"/><stop offset=".419" stop-color="#3E6FF9"/><stop offset=".435" stop-color="#3F70F8"/><stop offset=".452" stop-color="#4071F8"/><stop offset=".468" stop-color="#4171F8"/><stop offset=".484" stop-color="#4272F8"/><stop offset=".5" stop-color="#4373F7"/><stop offset=".516" stop-color="#4473F7"/><stop offset=".532" stop-color="#4574F7"/><stop offset=".548" stop-color="#4674F7"/><stop offset=".565" stop-color="#4775F6"/><stop offset=".581" stop-color="#4876F6"/><stop offset=".597" stop-color="#4976F6"/><stop offset=".613" stop-color="#4A77F6"/><stop offset=".629" stop-color="#4B77F5"/><stop offset=".645" stop-color="#4B78F5"/><stop offset=".661" stop-color="#4C78F5"/><stop offset=".677" stop-color="#4D79F4"/><stop offset=".694" stop-color="#4E79F4"/><stop offset=".71" stop-color="#4E7AF4"/><stop offset=".726" stop-color="#4F7AF3"/><stop offset=".742" stop-color="#507AF3"/><stop offset=".758" stop-color="#507BF3"/><stop offset=".774" stop-color="#517BF2"/><stop offset=".79" stop-color="#517BF2"/><stop offset=".806" stop-color="#527CF1"/><stop offset=".823" stop-color="#527CF1"/><stop offset=".839" stop-color="#527CF1"/><stop offset=".855" stop-color="#537CF0"/><stop offset=".871" stop-color="#537DF0"/><stop offset=".887" stop-color="#537DF0"/><stop offset=".903" stop-color="#547DEF"/><stop offset=".919" stop-color="#547DEF"/><stop offset=".935" stop-color="#547DEE"/><stop offset=".952" stop-color="#547DEE"/><stop offset=".968" stop-color="#547DED"/><stop offset=".984" stop-color="#547DED"/><stop offset="1" stop-color="#557EED"/></linearGradient><linearGradient id="paint5_linear_831_14" x1="429.789" y1="573.081" x2="407.276" y2="550.504" gradientUnits="userSpaceOnUse"><stop stop-color="#1656FC"/><stop offset=".016" stop-color="#1757FB"/><stop offset=".032" stop-color="#1958FB"/><stop offset=".048" stop-color="#1B59FB"/><stop offset=".065" stop-color="#1D5AFB"/><stop offset=".081" stop-color="#1F5BFB"/><stop offset=".097" stop-color="#205CFB"/><stop offset=".113" stop-color="#225EFB"/><stop offset=".129" stop-color="#245FFB"/><stop offset=".145" stop-color="#2660FB"/><stop offset=".161" stop-color="#2761FB"/><stop offset=".177" stop-color="#2962FB"/><stop offset=".194" stop-color="#2A63FB"/><stop offset=".21" stop-color="#2C64FB"/><stop offset=".226" stop-color="#2E65FB"/><stop offset=".242" stop-color="#2F66FA"/><stop offset=".258" stop-color="#3167FA"/><stop offset=".274" stop-color="#3268FA"/><stop offset=".29" stop-color="#3368FA"/><stop offset=".306" stop-color="#3569FA"/><stop offset=".323" stop-color="#366AFA"/><stop offset=".339" stop-color="#376BFA"/><stop offset=".355" stop-color="#396CF9"/><stop offset=".371" stop-color="#3A6DF9"/><stop offset=".387" stop-color="#3B6EF9"/><stop offset=".403" stop-color="#3D6EF9"/><stop offset=".419" stop-color="#3E6FF9"/><stop offset=".435" stop-color="#3F70F8"/><stop offset=".452" stop-color="#4071F8"/><stop offset=".468" stop-color="#4171F8"/><stop offset=".484" stop-color="#4272F8"/><stop offset=".5" stop-color="#4373F7"/><stop offset=".516" stop-color="#4473F7"/><stop offset=".532" stop-color="#4574F7"/><stop offset=".548" stop-color="#4674F7"/><stop offset=".565" stop-color="#4775F6"/><stop offset=".581" stop-color="#4876F6"/><stop offset=".597" stop-color="#4976F6"/><stop offset=".613" stop-color="#4A77F6"/><stop offset=".629" stop-color="#4B77F5"/><stop offset=".645" stop-color="#4B78F5"/><stop offset=".661" stop-color="#4C78F5"/><stop offset=".677" stop-color="#4D79F4"/><stop offset=".694" stop-color="#4E79F4"/><stop offset=".71" stop-color="#4E7AF4"/><stop offset=".726" stop-color="#4F7AF3"/><stop offset=".742" stop-color="#507AF3"/><stop offset=".758" stop-color="#507BF3"/><stop offset=".774" stop-color="#517BF2"/><stop offset=".79" stop-color="#517BF2"/><stop offset=".806" stop-color="#527CF1"/><stop offset=".823" stop-color="#527CF1"/><stop offset=".839" stop-color="#527CF1"/><stop offset=".855" stop-color="#537CF0"/><stop offset=".871" stop-color="#537DF0"/><stop offset=".887" stop-color="#537DF0"/><stop offset=".903" stop-color="#547DEF"/><stop offset=".919" stop-color="#547DEF"/><stop offset=".935" stop-color="#547DEE"/><stop offset=".952" stop-color="#547DEE"/><stop offset=".968" stop-color="#547DED"/><stop offset=".984" stop-color="#547DED"/><stop offset="1" stop-color="#557EED"/></linearGradient><linearGradient id="paint6_linear_831_14" x1="683.789" y1="527.081" x2="661.276" y2="504.504" gradientUnits="userSpaceOnUse"><stop stop-color="#1656FC"/><stop offset=".016" stop-color="#1757FB"/><stop offset=".032" stop-color="#1958FB"/><stop offset=".048" stop-color="#1B59FB"/><stop offset=".065" stop-color="#1D5AFB"/><stop offset=".081" stop-color="#1F5BFB"/><stop offset=".097" stop-color="#205CFB"/><stop offset=".113" stop-color="#225EFB"/><stop offset=".129" stop-color="#245FFB"/><stop offset=".145" stop-color="#2660FB"/><stop offset=".161" stop-color="#2761FB"/><stop offset=".177" stop-color="#2962FB"/><stop offset=".194" stop-color="#2A63FB"/><stop offset=".21" stop-color="#2C64FB"/><stop offset=".226" stop-color="#2E65FB"/><stop offset=".242" stop-color="#2F66FA"/><stop offset=".258" stop-color="#3167FA"/><stop offset=".274" stop-color="#3268FA"/><stop offset=".29" stop-color="#3368FA"/><stop offset=".306" stop-color="#3569FA"/><stop offset=".323" stop-color="#366AFA"/><stop offset=".339" stop-color="#376BFA"/><stop offset=".355" stop-color="#396CF9"/><stop offset=".371" stop-color="#3A6DF9"/><stop offset=".387" stop-color="#3B6EF9"/><stop offset=".403" stop-color="#3D6EF9"/><stop offset=".419" stop-color="#3E6FF9"/><stop offset=".435" stop-color="#3F70F8"/><stop offset=".452" stop-color="#4071F8"/><stop offset=".468" stop-color="#4171F8"/><stop offset=".484" stop-color="#4272F8"/><stop offset=".5" stop-color="#4373F7"/><stop offset=".516" stop-color="#4473F7"/><stop offset=".532" stop-color="#4574F7"/><stop offset=".548" stop-color="#4674F7"/><stop offset=".565" stop-color="#4775F6"/><stop offset=".581" stop-color="#4876F6"/><stop offset=".597" stop-color="#4976F6"/><stop offset=".613" stop-color="#4A77F6"/><stop offset=".629" stop-color="#4B77F5"/><stop offset=".645" stop-color="#4B78F5"/><stop offset=".661" stop-color="#4C78F5"/><stop offset=".677" stop-color="#4D79F4"/><stop offset=".694" stop-color="#4E79F4"/><stop offset=".71" stop-color="#4E7AF4"/><stop offset=".726" stop-color="#4F7AF3"/><stop offset=".742" stop-color="#507AF3"/><stop offset=".758" stop-color="#507BF3"/><stop offset=".774" stop-color="#517BF2"/><stop offset=".79" stop-color="#517BF2"/><stop offset=".806" stop-color="#527CF1"/><stop offset=".823" stop-color="#527CF1"/><stop offset=".839" stop-color="#527CF1"/><stop offset=".855" stop-color="#537CF0"/><stop offset=".871" stop-color="#537DF0"/><stop offset=".887" stop-color="#537DF0"/><stop offset=".903" stop-color="#547DEF"/><stop offset=".919" stop-color="#547DEF"/><stop offset=".935" stop-color="#547DEE"/><stop offset=".952" stop-color="#547DEE"/><stop offset=".968" stop-color="#547DED"/><stop offset=".984" stop-color="#547DED"/><stop offset="1" stop-color="#557EED"/></linearGradient><linearGradient id="paint7_linear_831_14" x1="951.789" y1="390.081" x2="929.276" y2="367.504" gradientUnits="userSpaceOnUse"><stop stop-color="#1656FC"/><stop offset=".016" stop-color="#1757FB"/><stop offset=".032" stop-color="#1958FB"/><stop offset=".048" stop-color="#1B59FB"/><stop offset=".065" stop-color="#1D5AFB"/><stop offset=".081" stop-color="#1F5BFB"/><stop offset=".097" stop-color="#205CFB"/><stop offset=".113" stop-color="#225EFB"/><stop offset=".129" stop-color="#245FFB"/><stop offset=".145" stop-color="#2660FB"/><stop offset=".161" stop-color="#2761FB"/><stop offset=".177" stop-color="#2962FB"/><stop offset=".194" stop-color="#2A63FB"/><stop offset=".21" stop-color="#2C64FB"/><stop offset=".226" stop-color="#2E65FB"/><stop offset=".242" stop-color="#2F66FA"/><stop offset=".258" stop-color="#3167FA"/><stop offset=".274" stop-color="#3268FA"/><stop offset=".29" stop-color="#3368FA"/><stop offset=".306" stop-color="#3569FA"/><stop offset=".323" stop-color="#366AFA"/><stop offset=".339" stop-color="#376BFA"/><stop offset=".355" stop-color="#396CF9"/><stop offset=".371" stop-color="#3A6DF9"/><stop offset=".387" stop-color="#3B6EF9"/><stop offset=".403" stop-color="#3D6EF9"/><stop offset=".419" stop-color="#3E6FF9"/><stop offset=".435" stop-color="#3F70F8"/><stop offset=".452" stop-color="#4071F8"/><stop offset=".468" stop-color="#4171F8"/><stop offset=".484" stop-color="#4272F8"/><stop offset=".5" stop-color="#4373F7"/><stop offset=".516" stop-color="#4473F7"/><stop offset=".532" stop-color="#4574F7"/><stop offset=".548" stop-color="#4674F7"/><stop offset=".565" stop-color="#4775F6"/><stop offset=".581" stop-color="#4876F6"/><stop offset=".597" stop-color="#4976F6"/><stop offset=".613" stop-color="#4A77F6"/><stop offset=".629" stop-color="#4B77F5"/><stop offset=".645" stop-color="#4B78F5"/><stop offset=".661" stop-color="#4C78F5"/><stop offset=".677" stop-color="#4D79F4"/><stop offset=".694" stop-color="#4E79F4"/><stop offset=".71" stop-color="#4E7AF4"/><stop offset=".726" stop-color="#4F7AF3"/><stop offset=".742" stop-color="#507AF3"/><stop offset=".758" stop-color="#507BF3"/><stop offset=".774" stop-color="#517BF2"/><stop offset=".79" stop-color="#517BF2"/><stop offset=".806" stop-color="#527CF1"/><stop offset=".823" stop-color="#527CF1"/><stop offset=".839" stop-color="#527CF1"/><stop offset=".855" stop-color="#537CF0"/><stop offset=".871" stop-color="#537DF0"/><stop offset=".887" stop-color="#537DF0"/><stop offset=".903" stop-color="#547DEF"/><stop offset=".919" stop-color="#547DEF"/><stop offset=".935" stop-color="#547DEE"/><stop offset=".952" stop-color="#547DEE"/><stop offset=".968" stop-color="#547DED"/><stop offset=".984" stop-color="#547DED"/><stop offset="1" stop-color="#557EED"/></linearGradient><linearGradient id="paint8_linear_831_14" x1="1177.79" y1="259.943" x2="1155.51" y2="237.368" gradientUnits="userSpaceOnUse"><stop stop-color="#1656FC"/><stop offset=".016" stop-color="#1757FB"/><stop offset=".032" stop-color="#1958FB"/><stop offset=".048" stop-color="#1B59FB"/><stop offset=".065" stop-color="#1D5AFB"/><stop offset=".081" stop-color="#1F5BFB"/><stop offset=".097" stop-color="#205CFB"/><stop offset=".113" stop-color="#225EFB"/><stop offset=".129" stop-color="#245FFB"/><stop offset=".145" stop-color="#2660FB"/><stop offset=".161" stop-color="#2761FB"/><stop offset=".177" stop-color="#2962FB"/><stop offset=".194" stop-color="#2A63FB"/><stop offset=".21" stop-color="#2C64FB"/><stop offset=".226" stop-color="#2E65FB"/><stop offset=".242" stop-color="#2F66FA"/><stop offset=".258" stop-color="#3167FA"/><stop offset=".274" stop-color="#3268FA"/><stop offset=".29" stop-color="#3368FA"/><stop offset=".306" stop-color="#3569FA"/><stop offset=".323" stop-color="#366AFA"/><stop offset=".339" stop-color="#376BFA"/><stop offset=".355" stop-color="#396CF9"/><stop offset=".371" stop-color="#3A6DF9"/><stop offset=".387" stop-color="#3B6EF9"/><stop offset=".403" stop-color="#3D6EF9"/><stop offset=".419" stop-color="#3E6FF9"/><stop offset=".435" stop-color="#3F70F8"/><stop offset=".452" stop-color="#4071F8"/><stop offset=".468" stop-color="#4171F8"/><stop offset=".484" stop-color="#4272F8"/><stop offset=".5" stop-color="#4373F7"/><stop offset=".516" stop-color="#4473F7"/><stop offset=".532" stop-color="#4574F7"/><stop offset=".548" stop-color="#4674F7"/><stop offset=".565" stop-color="#4775F6"/><stop offset=".581" stop-color="#4876F6"/><stop offset=".597" stop-color="#4976F6"/><stop offset=".613" stop-color="#4A77F6"/><stop offset=".629" stop-color="#4B77F5"/><stop offset=".645" stop-color="#4B78F5"/><stop offset=".661" stop-color="#4C78F5"/><stop offset=".677" stop-color="#4D79F4"/><stop offset=".694" stop-color="#4E79F4"/><stop offset=".71" stop-color="#4E7AF4"/><stop offset=".726" stop-color="#4F7AF3"/><stop offset=".742" stop-color="#507AF3"/><stop offset=".758" stop-color="#507BF3"/><stop offset=".774" stop-color="#517BF2"/><stop offset=".79" stop-color="#517BF2"/><stop offset=".806" stop-color="#527CF1"/><stop offset=".823" stop-color="#527CF1"/><stop offset=".839" stop-color="#527CF1"/><stop offset=".855" stop-color="#537CF0"/><stop offset=".871" stop-color="#537DF0"/><stop offset=".887" stop-color="#537DF0"/><stop offset=".903" stop-color="#547DEF"/><stop offset=".919" stop-color="#547DEF"/><stop offset=".935" stop-color="#547DEE"/><stop offset=".952" stop-color="#547DEE"/><stop offset=".968" stop-color="#547DED"/><stop offset=".984" stop-color="#547DED"/><stop offset="1" stop-color="#557EED"/></linearGradient><filter id="filter0_d_831_14" x="0" y="0" width="1386" height="659.774" filterUnits="userSpaceOnUse" color-interpolation-filters="sRGB"><feFlood flood-opacity="0" result="BackgroundImageFix"/><feColorMatrix in="SourceAlpha" values="0 0 0 0 0 0 0 0 0 0 0 0 0 0 0 0 0 0 127 0" result="hardAlpha"/><feOffset dy="4"/><feGaussianBlur stdDeviation="15"/><feComposite in2="hardAlpha" operator="out"/><feColorMatrix values="0 0 0 0 0 0 0 0 0 0 0 0 0 0 0 0 0 0 0.15 0"/><feBlend in2="BackgroundImageFix" result="effect1_dropShadow_831_14"/><feBlend in="SourceGraphic" in2="effect1_dropShadow_831_14" result="shape"/></filter><filter id="filter1_d_831_14" x="77.309" y="540.689" width="98.381" height="98.272" filterUnits="userSpaceOnUse" color-interpolation-filters="sRGB"><feFlood flood-opacity="0" result="BackgroundImageFix"/><feColorMatrix in="SourceAlpha" values="0 0 0 0 0 0 0 0 0 0 0 0 0 0 0 0 0 0 127 0" result="hardAlpha"/><feOffset dy="4"/><feGaussianBlur stdDeviation="15"/><feComposite in2="hardAlpha" operator="out"/><feColorMatrix values="0 0 0 0 0 0 0 0 0 0 0 0 0 0 0 0 0 0 0.25 0"/><feBlend in2="BackgroundImageFix" result="effect1_dropShadow_831_14"/><feBlend in="SourceGraphic" in2="effect1_dropShadow_831_14" result="shape"/></filter><filter id="filter2_d_831_14" x="369.309" y="516.689" width="98.381" height="98.272" filterUnits="userSpaceOnUse" color-interpolation-filters="sRGB"><feFlood flood-opacity="0" result="BackgroundImageFix"/><feColorMatrix in="SourceAlpha" values="0 0 0 0 0 0 0 0 0 0 0 0 0 0 0 0 0 0 127 0" result="hardAlpha"/><feOffset dy="4"/><feGaussianBlur stdDeviation="15"/><feComposite in2="hardAlpha" operator="out"/><feColorMatrix values="0 0 0 0 0 0 0 0 0 0 0 0 0 0 0 0 0 0 0.25 0"/><feBlend in2="BackgroundImageFix" result="effect1_dropShadow_831_14"/><feBlend in="SourceGraphic" in2="effect1_dropShadow_831_14" result="shape"/></filter><filter id="filter3_d_831_14" x="623.309" y="470.689" width="98.381" height="98.272" filterUnits="userSpaceOnUse" color-interpolation-filters="sRGB"><feFlood flood-opacity="0" result="BackgroundImageFix"/><feColorMatrix in="SourceAlpha" values="0 0 0 0 0 0 0 0 0 0 0 0 0 0 0 0 0 0 127 0" result="hardAlpha"/><feOffset dy="4"/><feGaussianBlur stdDeviation="15"/><feComposite in2="hardAlpha" operator="out"/><feColorMatrix values="0 0 0 0 0 0 0 0 0 0 0 0 0 0 0 0 0 0 0.25 0"/><feBlend in2="BackgroundImageFix" result="effect1_dropShadow_831_14"/><feBlend in="SourceGraphic" in2="effect1_dropShadow_831_14" result="shape"/></filter><filter id="filter4_d_831_14" x="891.309" y="333.689" width="98.381" height="98.272" filterUnits="userSpaceOnUse" color-interpolation-filters="sRGB"><feFlood flood-opacity="0" result="BackgroundImageFix"/><feColorMatrix in="SourceAlpha" values="0 0 0 0 0 0 0 0 0 0 0 0 0 0 0 0 0 0 127 0" result="hardAlpha"/><feOffset dy="4"/><feGaussianBlur stdDeviation="15"/><feComposite in2="hardAlpha" operator="out"/><feColorMatrix values="0 0 0 0 0 0 0 0 0 0 0 0 0 0 0 0 0 0 0.25 0"/><feBlend in2="BackgroundImageFix" result="effect1_dropShadow_831_14"/><feBlend in="SourceGraphic" in2="effect1_dropShadow_831_14" result="shape"/></filter><filter id="filter5_d_831_14" x="1117.31" y="203.864" width="98.381" height="97.878" filterUnits="userSpaceOnUse" color-interpolation-filters="sRGB"><feFlood flood-opacity="0" result="BackgroundImageFix"/><feColorMatrix in="SourceAlpha" values="0 0 0 0 0 0 0 0 0 0 0 0 0 0 0 0 0 0 127 0" result="hardAlpha"/><feOffset dy="4"/><feGaussianBlur stdDeviation="15"/><feComposite in2="hardAlpha" operator="out"/><feColorMatrix values="0 0 0 0 0 0 0 0 0 0 0 0 0 0 0 0 0 0 0.25 0"/><feBlend in2="BackgroundImageFix" result="effect1_dropShadow_831_14"/><feBlend in="SourceGraphic" in2="effect1_dropShadow_831_14" result="shape"/></filter><clipPath id="clip0_831_14"><path fill="#fff" transform="translate(90 405.35)" d="M0 0h73v224H0z"/></clipPath><clipPath id="clip1_831_14"><path fill="#fff" transform="translate(382 381.35)" d="M0 0h73v224H0z"/></clipPath><clipPath id="clip2_831_14"><path fill="#fff" transform="translate(636 335.35)" d="M0 0h73v224H0z"/></clipPath><clipPath id="clip3_831_14"><path fill="#fff" transform="translate(904 198.35)" d="M0 0h73v224H0z"/></clipPath></defs></svg>