<svg width="754" height="744" fill="none" xmlns="http://www.w3.org/2000/svg"><path fill-rule="evenodd" clip-rule="evenodd" d="M142.757 468.317c-18.935-42.342 7.011-89.238 15.233-134.886 7.251-40.264-20.537-81.744 6.87-112.119 27.207-30.153 70.405-44.304 110.686-49.485 36.592-4.708 66.334 31.022 102.568 37.969 47.979 9.198 157.431-33.923 188.306 3.935 30.73 37.679-11.857 125.684-16.177 174.113-4.288 48.063 3.06 80.634-29.729 116.037-32.551 35.145-79.727-15.315-126.894-6.949-44.088 7.82-95.595 67.249-138.365 53.998-45.555-14.113-93.028-39.077-112.498-82.613z" fill="url(#paint0_linear_490_169)"/><g filter="url(#filter0_d_490_169)"><path fill-rule="evenodd" clip-rule="evenodd" d="M175.938 511.715c-18.935-42.342 7.011-89.238 15.232-134.886 7.252-40.264-20.537-81.744 6.871-112.119 27.206-30.153 70.405-44.304 110.685-49.486 36.593-4.707 66.335 31.023 102.569 37.97 47.978 9.198 157.43-33.923 188.306 3.935 30.729 37.679-11.857 125.684-16.178 174.113-4.288 48.063 3.06 80.634-29.729 116.036-32.55 35.146-79.727-15.314-126.894-6.948-44.088 7.82-95.594 67.249-138.364 53.998-45.556-14.113-93.029-39.077-112.498-82.613z" fill="url(#paint1_linear_490_169)"/></g><defs><linearGradient id="paint0_linear_490_169" x1="260.489" y1="663.756" x2="36.116" y2="292.298" gradientUnits="userSpaceOnUse"><stop stop-color="#1656FC"/><stop offset="1" stop-color="#557EED"/></linearGradient><linearGradient id="paint1_linear_490_169" x1="293.67" y1="707.154" x2="69.296" y2="335.696" gradientUnits="userSpaceOnUse"><stop stop-color="#1656FC"/><stop offset="1" stop-color="#557EED"/></linearGradient><filter id="filter0_d_490_169" x="119.169" y="168.799" width="541.494" height="481.449" filterUnits="userSpaceOnUse" color-interpolation-filters="sRGB"><feFlood flood-opacity="0" result="BackgroundImageFix"/><feColorMatrix in="SourceAlpha" values="0 0 0 0 0 0 0 0 0 0 0 0 0 0 0 0 0 0 127 0" result="hardAlpha"/><feOffset dy="4"/><feGaussianBlur stdDeviation="25"/><feComposite in2="hardAlpha" operator="out"/><feColorMatrix values="0 0 0 0 0 0 0 0 0 0 0 0 0 0 0 0 0 0 0.25 0"/><feBlend in2="BackgroundImageFix" result="effect1_dropShadow_490_169"/><feBlend in="SourceGraphic" in2="effect1_dropShadow_490_169" result="shape"/></filter></defs></svg>