<svg width="70" height="69" fill="none" xmlns="http://www.w3.org/2000/svg"><path fill-rule="evenodd" clip-rule="evenodd" d="M30.59 39.848c.61 0 1.103-.422 1.103-.942v-1.885c0-.52-.493-.942-1.102-.942-.61 0-1.103.421-1.103.942v1.885c0 .52.494.942 1.103.942z" fill="url(#paint0_linear_375_69)"/><path fill-rule="evenodd" clip-rule="evenodd" d="M39.547 39.848a.953.953 0 00.965-.942v-1.885a.953.953 0 00-.965-.942.953.953 0 00-.964.942v1.885c0 .52.432.942.964.942z" fill="url(#paint1_linear_375_69)"/><path fill-rule="evenodd" clip-rule="evenodd" d="M35 44.695c1.758 0 2.663-1.08 2.92-1.719.07-.144.112-.303.112-.474 0-.573-.455-1.038-1.016-1.038-.441 0-.816.287-.957.688-.04.078-.276.469-1.059.469-.783 0-1.02-.39-1.06-.47-.14-.4-.515-.687-.955-.687-.562 0-1.017.465-1.017 1.038 0 .171.043.33.112.474.257.638 1.162 1.719 2.92 1.719z" fill="url(#paint2_linear_375_69)"/><path fill-rule="evenodd" clip-rule="evenodd" d="M67.376 29.163l-5.03-.739a26.655 26.655 0 00-3.835-9.039l3.024-4a2.943 2.943 0 00-.3-3.918l-2.973-2.904a3.118 3.118 0 00-4.01-.293l-4.094 2.954a28 28 0 00-9.252-3.745l-.756-4.915C39.922 1.078 38.64 0 37.102 0h-4.204c-1.538 0-2.82 1.078-3.048 2.564l-.756 4.915a27.994 27.994 0 00-9.252 3.745L15.748 8.27a3.118 3.118 0 00-4.01.293l-2.973 2.904a2.942 2.942 0 00-.3 3.919l3.024 4a26.667 26.667 0 00-3.834 9.038l-5.031.739C1.104 29.386 0 30.639 0 32.14v4.107c0 1.502 1.103 2.754 2.624 2.978l5.03.738a26.667 26.667 0 003.835 9.04l-3.024 3.999a2.942 2.942 0 00.3 3.918l2.973 2.904a3.118 3.118 0 004.013.292l3.815-2.77c-.163.78-.252 1.585-.252 2.411v7.627c0 .554.46 1.004 1.028 1.004h29.317c.567 0 1.027-.45 1.027-1.004v-7.627c0-.826-.088-1.632-.251-2.411l3.817 2.771c1.231.89 2.92.773 4.01-.293l2.974-2.904a2.942 2.942 0 00.3-3.919l-3.024-3.999a27.271 27.271 0 001.673-2.905.994.994 0 00-.477-1.34 1.038 1.038 0 00-1.372.465 25.26 25.26 0 01-1.926 3.244.985.985 0 00.021 1.163l3.452 4.565a.98.98 0 01-.1 1.306l-2.973 2.905a1.038 1.038 0 01-1.334.1L49.12 53.89c-.5-.87-1.106-1.674-1.802-2.394a21.405 21.405 0 006.401-6.823 20.697 20.697 0 002.852-10.479c0-11.62-9.676-21.074-21.57-21.074s-21.572 9.454-21.572 21.074c0 2.454.428 4.859 1.272 7.146.193.522.782.793 1.316.605a.998.998 0 00.618-1.285 18.621 18.621 0 01-1.15-6.465c0-10.514 8.754-19.067 19.515-19.067 10.761 0 19.516 8.553 19.516 19.066 0 3.33-.892 6.609-2.579 9.48a19.392 19.392 0 01-6.2 6.443 12.419 12.419 0 00-4.942-2.17A10.048 10.048 0 0044.6 43.12c2.203-.056 3.977-1.824 3.977-3.99 0-.483-.088-.946-.25-1.375 1.71-6.708 1.27-11.51-1.31-14.275-2.142-2.294-5.084-2.454-6.393-2.395-3.043-4.077-8.216-4.762-13.354-1.707a.99.99 0 00-.344 1.38c.296.473.928.623 1.412.335 3.427-2.037 8.093-2.69 10.915 1.587.22.332.622.507 1.023.447.032-.005 3.223-.453 5.235 1.72 1.87 2.02 2.268 5.775 1.174 10.92a4.11 4.11 0 00-1.484-.567v-2.257c0-.404-.254-.772-.636-.928-.127-.052-3.114-1.316-4.762-5.571-.254-.725-1.33-.876-1.782-.249-3.462 4.49-12.233 5.585-12.32 5.595-.516.061-.904.49-.904.997V35.2a4.121 4.121 0 00-1.46.55c-.57-1.471-1.312-4.166-.733-7.286.31-1.673 1.293-3.448 2.766-5a.988.988 0 00-.054-1.418 1.045 1.045 0 00-1.452.053c-1.737 1.829-2.902 3.962-3.282 6.007-.816 4.403.608 7.996 1.238 9.305a3.896 3.896 0 00-.399 1.72c0 2.166 1.774 3.933 3.977 3.99a10.05 10.05 0 003.806 4.827 12.42 12.42 0 00-4.941 2.17 19.453 19.453 0 01-5.938-6.01 1.041 1.041 0 00-1.412-.333.99.99 0 00-.342 1.38 21.466 21.466 0 006.111 6.34 12.136 12.136 0 00-1.802 2.396l-6.354 4.613a1.038 1.038 0 01-1.336-.098l-2.973-2.904a.981.981 0 01-.1-1.307l3.451-4.565a.985.985 0 00.023-1.163 24.731 24.731 0 01-4.062-9.576 1.017 1.017 0 00-.857-.807L2.93 37.24a1.005 1.005 0 01-.875-.992V32.14c0-.5.368-.918.875-.992l5.743-.844c.432-.063.776-.387.857-.807a24.732 24.732 0 014.062-9.576.984.984 0 00-.023-1.163l-3.451-4.565a.98.98 0 01.1-1.306l2.973-2.904a1.04 1.04 0 011.336-.098l4.673 3.372c.352.254.83.262 1.19.021a25.967 25.967 0 019.802-3.968c.43-.079.762-.415.827-.837l.863-5.61a1.014 1.014 0 011.016-.856h4.204c.513 0 .94.36 1.016.855l.863 5.61c.065.423.397.76.827.838a25.965 25.965 0 019.801 3.968c.361.241.839.233 1.19-.021l4.673-3.372a1.04 1.04 0 011.337.098l2.973 2.904a.98.98 0 01.1 1.306l-3.451 4.565a.984.984 0 00-.022 1.163 24.735 24.735 0 014.061 9.576c.08.42.425.744.857.807l5.743.844c.507.074.875.492.875.992v4.108c0 .5-.368.918-.875.992l-5.743.844a1.017 1.017 0 00-.857.807 24.44 24.44 0 01-.712 2.807 1 1 0 00.678 1.256 1.031 1.031 0 001.285-.662c.243-.763.451-1.543.624-2.328l5.03-.738C68.898 39.002 70 37.75 70 36.248v-4.107c0-1.502-1.103-2.755-2.624-2.978zM45.202 39.75v-2.476c.77.282 1.321 1.007 1.321 1.857 0 .881-.59 1.629-1.406 1.888a9.78 9.78 0 00.085-1.269zm-21.725-.62c0-.85.55-1.574 1.32-1.856v2.476c0 .43.032.853.086 1.269-.815-.259-1.406-1.007-1.406-1.888zm3.375.62v-6.103a33.085 33.085 0 004.385-1.065c3.14-1 5.592-2.325 7.312-3.952 1.516 2.909 3.568 4.348 4.599 4.926v6.194c0 4.39-3.656 7.96-8.148 7.96-4.493 0-8.148-3.57-8.148-7.96zm7.304 14.032h1.688l1.317 7.053L35 62.967l-2.16-2.133 1.316-7.052zm-.971-4.064h3.63l-.818 2.056h-1.995l-.817-2.056zm-11.816 10.04c0-5.32 4.259-9.686 9.62-10.018l1.247 3.137-1.515 8.112a.99.99 0 00.28.886L34.27 65.1c.383.394 1.077.394 1.46 0l3.267-3.225a.989.989 0 00.281-.886l-1.515-8.112 1.247-3.137c5.362.332 9.621 4.697 9.621 10.018v6.623h-3.736v-5.257c0-.555-.46-1.004-1.027-1.004-.568 0-1.028.449-1.028 1.004v5.257H27.16v-5.257c0-.555-.46-1.004-1.028-1.004-.567 0-1.027.449-1.027 1.004v5.257h-3.736v-6.623z" fill="url(#paint3_linear_375_69)"/><defs><linearGradient id="paint0_linear_375_69" x1="32.106" y1="39.444" x2="29.145" y2="36.414" gradientUnits="userSpaceOnUse"><stop stop-color="#557EED"/><stop offset=".016" stop-color="#547DED"/><stop offset=".032" stop-color="#547DED"/><stop offset=".048" stop-color="#547DEE"/><stop offset=".065" stop-color="#547DEE"/><stop offset=".081" stop-color="#547DEF"/><stop offset=".097" stop-color="#547DEF"/><stop offset=".113" stop-color="#537DF0"/><stop offset=".129" stop-color="#537DF0"/><stop offset=".145" stop-color="#537CF0"/><stop offset=".161" stop-color="#527CF1"/><stop offset=".177" stop-color="#527CF1"/><stop offset=".194" stop-color="#527CF1"/><stop offset=".21" stop-color="#517BF2"/><stop offset=".226" stop-color="#517BF2"/><stop offset=".242" stop-color="#507BF3"/><stop offset=".258" stop-color="#507AF3"/><stop offset=".274" stop-color="#4F7AF3"/><stop offset=".29" stop-color="#4E7AF4"/><stop offset=".306" stop-color="#4E79F4"/><stop offset=".323" stop-color="#4D79F4"/><stop offset=".339" stop-color="#4C78F5"/><stop offset=".355" stop-color="#4B78F5"/><stop offset=".371" stop-color="#4B77F5"/><stop offset=".387" stop-color="#4A77F6"/><stop offset=".403" stop-color="#4976F6"/><stop offset=".419" stop-color="#4876F6"/><stop offset=".435" stop-color="#4775F6"/><stop offset=".452" stop-color="#4674F7"/><stop offset=".468" stop-color="#4574F7"/><stop offset=".484" stop-color="#4473F7"/><stop offset=".5" stop-color="#4373F7"/><stop offset=".516" stop-color="#4272F8"/><stop offset=".532" stop-color="#4171F8"/><stop offset=".548" stop-color="#4071F8"/><stop offset=".565" stop-color="#3F70F8"/><stop offset=".581" stop-color="#3E6FF9"/><stop offset=".597" stop-color="#3D6EF9"/><stop offset=".613" stop-color="#3B6EF9"/><stop offset=".629" stop-color="#3A6DF9"/><stop offset=".645" stop-color="#396CF9"/><stop offset=".661" stop-color="#376BFA"/><stop offset=".677" stop-color="#366AFA"/><stop offset=".694" stop-color="#3569FA"/><stop offset=".71" stop-color="#3368FA"/><stop offset=".726" stop-color="#3268FA"/><stop offset=".742" stop-color="#3167FA"/><stop offset=".758" stop-color="#2F66FA"/><stop offset=".774" stop-color="#2E65FB"/><stop offset=".79" stop-color="#2C64FB"/><stop offset=".806" stop-color="#2A63FB"/><stop offset=".823" stop-color="#2962FB"/><stop offset=".839" stop-color="#2761FB"/><stop offset=".855" stop-color="#2660FB"/><stop offset=".871" stop-color="#245FFB"/><stop offset=".887" stop-color="#225EFB"/><stop offset=".903" stop-color="#205CFB"/><stop offset=".919" stop-color="#1F5BFB"/><stop offset=".935" stop-color="#1D5AFB"/><stop offset=".952" stop-color="#1B59FB"/><stop offset=".968" stop-color="#1958FB"/><stop offset=".984" stop-color="#1757FB"/><stop offset="1" stop-color="#1656FC"/></linearGradient><linearGradient id="paint1_linear_375_69" x1="40.994" y1="39.377" x2="38.168" y2="36.484" gradientUnits="userSpaceOnUse"><stop stop-color="#557EED"/><stop offset=".016" stop-color="#547DED"/><stop offset=".032" stop-color="#547DED"/><stop offset=".048" stop-color="#547DEE"/><stop offset=".065" stop-color="#547DEE"/><stop offset=".081" stop-color="#547DEF"/><stop offset=".097" stop-color="#547DEF"/><stop offset=".113" stop-color="#537DF0"/><stop offset=".129" stop-color="#537DF0"/><stop offset=".145" stop-color="#537CF0"/><stop offset=".161" stop-color="#527CF1"/><stop offset=".177" stop-color="#527CF1"/><stop offset=".194" stop-color="#527CF1"/><stop offset=".21" stop-color="#517BF2"/><stop offset=".226" stop-color="#517BF2"/><stop offset=".242" stop-color="#507BF3"/><stop offset=".258" stop-color="#507AF3"/><stop offset=".274" stop-color="#4F7AF3"/><stop offset=".29" stop-color="#4E7AF4"/><stop offset=".306" stop-color="#4E79F4"/><stop offset=".323" stop-color="#4D79F4"/><stop offset=".339" stop-color="#4C78F5"/><stop offset=".355" stop-color="#4B78F5"/><stop offset=".371" stop-color="#4B77F5"/><stop offset=".387" stop-color="#4A77F6"/><stop offset=".403" stop-color="#4976F6"/><stop offset=".419" stop-color="#4876F6"/><stop offset=".435" stop-color="#4775F6"/><stop offset=".452" stop-color="#4674F7"/><stop offset=".468" stop-color="#4574F7"/><stop offset=".484" stop-color="#4473F7"/><stop offset=".5" stop-color="#4373F7"/><stop offset=".516" stop-color="#4272F8"/><stop offset=".532" stop-color="#4171F8"/><stop offset=".548" stop-color="#4071F8"/><stop offset=".565" stop-color="#3F70F8"/><stop offset=".581" stop-color="#3E6FF9"/><stop offset=".597" stop-color="#3D6EF9"/><stop offset=".613" stop-color="#3B6EF9"/><stop offset=".629" stop-color="#3A6DF9"/><stop offset=".645" stop-color="#396CF9"/><stop offset=".661" stop-color="#376BFA"/><stop offset=".677" stop-color="#366AFA"/><stop offset=".694" stop-color="#3569FA"/><stop offset=".71" stop-color="#3368FA"/><stop offset=".726" stop-color="#3268FA"/><stop offset=".742" stop-color="#3167FA"/><stop offset=".758" stop-color="#2F66FA"/><stop offset=".774" stop-color="#2E65FB"/><stop offset=".79" stop-color="#2C64FB"/><stop offset=".806" stop-color="#2A63FB"/><stop offset=".823" stop-color="#2962FB"/><stop offset=".839" stop-color="#2761FB"/><stop offset=".855" stop-color="#2660FB"/><stop offset=".871" stop-color="#245FFB"/><stop offset=".887" stop-color="#225EFB"/><stop offset=".903" stop-color="#205CFB"/><stop offset=".919" stop-color="#1F5BFB"/><stop offset=".935" stop-color="#1D5AFB"/><stop offset=".952" stop-color="#1B59FB"/><stop offset=".968" stop-color="#1958FB"/><stop offset=".984" stop-color="#1757FB"/><stop offset="1" stop-color="#1656FC"/></linearGradient><linearGradient id="paint2_linear_375_69" x1="37.343" y1="45.368" x2="32.767" y2="40.684" gradientUnits="userSpaceOnUse"><stop stop-color="#557EED"/><stop offset=".016" stop-color="#547DED"/><stop offset=".032" stop-color="#547DED"/><stop offset=".048" stop-color="#547DEE"/><stop offset=".065" stop-color="#547DEE"/><stop offset=".081" stop-color="#547DEF"/><stop offset=".097" stop-color="#547DEF"/><stop offset=".113" stop-color="#537DF0"/><stop offset=".129" stop-color="#537DF0"/><stop offset=".145" stop-color="#537CF0"/><stop offset=".161" stop-color="#527CF1"/><stop offset=".177" stop-color="#527CF1"/><stop offset=".194" stop-color="#527CF1"/><stop offset=".21" stop-color="#517BF2"/><stop offset=".226" stop-color="#517BF2"/><stop offset=".242" stop-color="#507BF3"/><stop offset=".258" stop-color="#507AF3"/><stop offset=".274" stop-color="#4F7AF3"/><stop offset=".29" stop-color="#4E7AF4"/><stop offset=".306" stop-color="#4E79F4"/><stop offset=".323" stop-color="#4D79F4"/><stop offset=".339" stop-color="#4C78F5"/><stop offset=".355" stop-color="#4B78F5"/><stop offset=".371" stop-color="#4B77F5"/><stop offset=".387" stop-color="#4A77F6"/><stop offset=".403" stop-color="#4976F6"/><stop offset=".419" stop-color="#4876F6"/><stop offset=".435" stop-color="#4775F6"/><stop offset=".452" stop-color="#4674F7"/><stop offset=".468" stop-color="#4574F7"/><stop offset=".484" stop-color="#4473F7"/><stop offset=".5" stop-color="#4373F7"/><stop offset=".516" stop-color="#4272F8"/><stop offset=".532" stop-color="#4171F8"/><stop offset=".548" stop-color="#4071F8"/><stop offset=".565" stop-color="#3F70F8"/><stop offset=".581" stop-color="#3E6FF9"/><stop offset=".597" stop-color="#3D6EF9"/><stop offset=".613" stop-color="#3B6EF9"/><stop offset=".629" stop-color="#3A6DF9"/><stop offset=".645" stop-color="#396CF9"/><stop offset=".661" stop-color="#376BFA"/><stop offset=".677" stop-color="#366AFA"/><stop offset=".694" stop-color="#3569FA"/><stop offset=".71" stop-color="#3368FA"/><stop offset=".726" stop-color="#3268FA"/><stop offset=".742" stop-color="#3167FA"/><stop offset=".758" stop-color="#2F66FA"/><stop offset=".774" stop-color="#2E65FB"/><stop offset=".79" stop-color="#2C64FB"/><stop offset=".806" stop-color="#2A63FB"/><stop offset=".823" stop-color="#2962FB"/><stop offset=".839" stop-color="#2761FB"/><stop offset=".855" stop-color="#2660FB"/><stop offset=".871" stop-color="#245FFB"/><stop offset=".887" stop-color="#225EFB"/><stop offset=".903" stop-color="#205CFB"/><stop offset=".919" stop-color="#1F5BFB"/><stop offset=".935" stop-color="#1D5AFB"/><stop offset=".952" stop-color="#1B59FB"/><stop offset=".968" stop-color="#1958FB"/><stop offset=".984" stop-color="#1757FB"/><stop offset="1" stop-color="#1656FC"/></linearGradient><linearGradient id="paint3_linear_375_69" x1="70" y1="68.389" x2="1.63" y2="-1.593" gradientUnits="userSpaceOnUse"><stop stop-color="#557EED"/><stop offset=".016" stop-color="#547DED"/><stop offset=".032" stop-color="#547DED"/><stop offset=".048" stop-color="#547DEE"/><stop offset=".065" stop-color="#547DEE"/><stop offset=".081" stop-color="#547DEF"/><stop offset=".097" stop-color="#547DEF"/><stop offset=".113" stop-color="#537DF0"/><stop offset=".129" stop-color="#537DF0"/><stop offset=".145" stop-color="#537CF0"/><stop offset=".161" stop-color="#527CF1"/><stop offset=".177" stop-color="#527CF1"/><stop offset=".194" stop-color="#527CF1"/><stop offset=".21" stop-color="#517BF2"/><stop offset=".226" stop-color="#517BF2"/><stop offset=".242" stop-color="#507BF3"/><stop offset=".258" stop-color="#507AF3"/><stop offset=".274" stop-color="#4F7AF3"/><stop offset=".29" stop-color="#4E7AF4"/><stop offset=".306" stop-color="#4E79F4"/><stop offset=".323" stop-color="#4D79F4"/><stop offset=".339" stop-color="#4C78F5"/><stop offset=".355" stop-color="#4B78F5"/><stop offset=".371" stop-color="#4B77F5"/><stop offset=".387" stop-color="#4A77F6"/><stop offset=".403" stop-color="#4976F6"/><stop offset=".419" stop-color="#4876F6"/><stop offset=".435" stop-color="#4775F6"/><stop offset=".452" stop-color="#4674F7"/><stop offset=".468" stop-color="#4574F7"/><stop offset=".484" stop-color="#4473F7"/><stop offset=".5" stop-color="#4373F7"/><stop offset=".516" stop-color="#4272F8"/><stop offset=".532" stop-color="#4171F8"/><stop offset=".548" stop-color="#4071F8"/><stop offset=".565" stop-color="#3F70F8"/><stop offset=".581" stop-color="#3E6FF9"/><stop offset=".597" stop-color="#3D6EF9"/><stop offset=".613" stop-color="#3B6EF9"/><stop offset=".629" stop-color="#3A6DF9"/><stop offset=".645" stop-color="#396CF9"/><stop offset=".661" stop-color="#376BFA"/><stop offset=".677" stop-color="#366AFA"/><stop offset=".694" stop-color="#3569FA"/><stop offset=".71" stop-color="#3368FA"/><stop offset=".726" stop-color="#3268FA"/><stop offset=".742" stop-color="#3167FA"/><stop offset=".758" stop-color="#2F66FA"/><stop offset=".774" stop-color="#2E65FB"/><stop offset=".79" stop-color="#2C64FB"/><stop offset=".806" stop-color="#2A63FB"/><stop offset=".823" stop-color="#2962FB"/><stop offset=".839" stop-color="#2761FB"/><stop offset=".855" stop-color="#2660FB"/><stop offset=".871" stop-color="#245FFB"/><stop offset=".887" stop-color="#225EFB"/><stop offset=".903" stop-color="#205CFB"/><stop offset=".919" stop-color="#1F5BFB"/><stop offset=".935" stop-color="#1D5AFB"/><stop offset=".952" stop-color="#1B59FB"/><stop offset=".968" stop-color="#1958FB"/><stop offset=".984" stop-color="#1757FB"/><stop offset="1" stop-color="#1656FC"/></linearGradient></defs></svg>