<svg width="60" height="60" fill="none" xmlns="http://www.w3.org/2000/svg"><path fill-rule="evenodd" clip-rule="evenodd" d="M24.086 0H4.016A4.013 4.013 0 000 4.012v38.11a4.013 4.013 0 004.015 4.013h20.071a4.013 4.013 0 004.015-4.012V4.012A4.013 4.013 0 0024.086 0zm0 44.129H4.016a2.007 2.007 0 01-2.008-2.006h24.086a2.007 2.007 0 01-2.008 2.006zm2.008-4.012H2.008v-34.1h24.086v34.1zM2.008 4.012c0-1.108.898-2.006 2.007-2.006h20.071c1.109 0 2.008.898 2.008 2.006H2.008zm39.005 11.87c0 5.013 4.023 9.076 8.987 9.076 4.965 0 8.987-4.063 8.987-9.076 0-5.012-4.022-9.075-8.987-9.075-4.962.005-8.982 4.065-8.987 9.075zM50 8.823c3.86 0 6.99 3.16 6.99 7.06 0 3.898-3.13 7.058-6.99 7.058-3.86 0-6.99-3.16-6.99-7.059.005-3.896 3.132-7.054 6.99-7.059z" fill="#3A3838"/><path fill-rule="evenodd" clip-rule="evenodd" d="M46.835 11.849h2.026v2.016h-2.026V11.85zm4.051 0h2.025v2.016h-2.025V11.85zm-1.013 4.033a3.036 3.036 0 00-3.038 3.025h1.216c0-1.002.815-1.815 1.822-1.815 1.008 0 1.823.813 1.823 1.816h1.215a3.036 3.036 0 00-3.038-3.026zM48.86 26.723h2.026v2.017h-2.025v-2.017zm0 4.033h2.026v2.017h-2.025v-2.017zM56 45.888h-2.848c2.491-1.754 3.099-5.21 1.36-7.72a5.472 5.472 0 00-7.659-1.37c-2.491 1.754-3.099 5.21-1.36 7.72.37.533.831.997 1.36 1.37H44c-2.21 0-4 1.805-4 4.032V60h2V49.92c0-1.114.896-2.016 2-2.016h12c1.104 0 2 .902 2 2.016V60h2V49.92c0-2.227-1.79-4.032-4-4.032zm-6-1.008c-1.934 0-3.499-1.58-3.499-3.528 0-1.949 1.565-3.528 3.499-3.528 1.934 0 3.499 1.58 3.499 3.528S51.934 44.88 50 44.88zm-37.089 5.792h2.026v2.017H12.91v-2.017zm0 4.034h2.026v2.017H12.91v-2.017zm4.051 0h2.025v2.017h-2.025v-2.017zm4.051 0h2.025v2.017h-2.025v-2.017zm3.797 0h2.025v2.017H24.81v-2.017zm4.05 0h2.026v2.017h-2.025v-2.017zm4.051 0h2.026v2.017H32.91v-2.017z" fill="#3A3838"/></svg>