<svg width="59" height="59" fill="none" xmlns="http://www.w3.org/2000/svg"><path fill-rule="evenodd" clip-rule="evenodd" d="M25.688 34.472a.829.829 0 00.829-.829v-1.657a.829.829 0 00-1.657 0v1.657c0 .458.37.829.828.829z" fill="url(#paint0_linear_626_321)"/><path fill-rule="evenodd" clip-rule="evenodd" d="M33.312 34.472a.829.829 0 00.829-.829v-1.657a.83.83 0 00-1.658 0v1.657c0 .458.371.829.829.829z" fill="url(#paint1_linear_626_321)"/><path fill-rule="evenodd" clip-rule="evenodd" d="M29.5 38.45c1.538 0 2.33-.886 2.556-1.41a.874.874 0 00.096-.39c0-.471-.398-.852-.889-.852a.894.894 0 00-.838.563c-.033.067-.239.388-.925.388s-.892-.321-.925-.388a.895.895 0 00-.838-.563c-.49 0-.889.381-.889.852 0 .139.037.272.097.39.225.525 1.017 1.41 2.555 1.41z" fill="url(#paint2_linear_626_321)"/><path fill-rule="evenodd" clip-rule="evenodd" d="M56.79 25.158l-4.24-.637a23.342 23.342 0 00-3.232-7.796l2.546-3.45a2.578 2.578 0 00-.252-3.38l-2.506-2.507a2.578 2.578 0 00-3.381-.252l-3.45 2.546a23.267 23.267 0 00-7.797-3.228l-.636-4.243A2.585 2.585 0 0031.273 0H27.73a2.589 2.589 0 00-2.572 2.21l-.637 4.24a23.342 23.342 0 00-7.796 3.232l-3.45-2.546a2.578 2.578 0 00-3.38.252L7.387 9.894a2.578 2.578 0 00-.252 3.381l2.546 3.45a23.267 23.267 0 00-3.228 7.796l-4.243.637A2.589 2.589 0 000 27.73v3.543c0 1.296.931 2.374 2.21 2.57l4.244.635a23.312 23.312 0 003.228 7.8l-2.546 3.447a2.578 2.578 0 00.252 3.38l2.506 2.507a2.578 2.578 0 003.381.252l3.215-2.39a10.507 10.507 0 00-.212 2.081v6.58c0 .477.388.865.869.865h24.71a.866.866 0 00.865-.865v-6.58a10.5 10.5 0 00-.212-2.081l3.218 2.39c1.038.769 2.46.67 3.378-.252l2.506-2.506a2.582 2.582 0 00.255-3.381l-2.549-3.45a23.8 23.8 0 001.409-2.506.866.866 0 00-1.558-.756c-.47.968-1.014 1.91-1.624 2.8a.867.867 0 00.02 1.005l2.907 3.938a.859.859 0 01-.083 1.127l-2.506 2.506a.859.859 0 01-1.124.086L41.4 46.49a10.422 10.422 0 00-1.518-2.065 18.152 18.152 0 007.8-14.926c0-10.023-8.154-18.18-18.181-18.18-10.023 0-18.18 8.157-18.18 18.18 0 2.118.36 4.193 1.07 6.165a.867.867 0 001.63-.587 16.424 16.424 0 01-.97-5.578c0-9.069 7.381-16.45 16.45-16.45 9.069 0 16.45 7.381 16.45 16.45a16.44 16.44 0 01-2.174 8.177 16.546 16.546 0 01-5.227 5.559 10.305 10.305 0 00-4.167-1.87 8.634 8.634 0 003.209-4.166 3.444 3.444 0 003.142-4.627c1.442-5.788 1.07-9.93-1.103-12.317-1.807-1.98-4.286-2.115-5.39-2.065-2.566-3.517-6.924-4.11-11.253-1.472a.864.864 0 10.898 1.478c2.89-1.756 6.821-2.32 9.201 1.37a.864.864 0 00.862.384c.027-.004 2.715-.388 4.412 1.485 1.578 1.743 1.913 4.981.991 9.42a3.434 3.434 0 00-1.253-.488V28.42a.865.865 0 00-.537-.798c-.106-.047-2.622-1.137-4.01-4.807-.216-.626-1.124-.755-1.502-.215-2.92 3.875-10.312 4.82-10.385 4.826a.867.867 0 00-.762.862v2.081c-.448.08-.862.242-1.23.474-.484-1.27-1.107-3.593-.62-6.284.262-1.445 1.09-2.977 2.334-4.316a.865.865 0 10-1.27-1.176c-1.465 1.577-2.45 3.417-2.767 5.18-.69 3.799.513 6.901 1.044 8.028a3.438 3.438 0 003.016 4.926 8.654 8.654 0 003.209 4.166 10.325 10.325 0 00-4.167 1.87 16.595 16.595 0 01-5.005-5.181.866.866 0 00-1.478.902 18.35 18.35 0 005.15 5.469 10.555 10.555 0 00-1.517 2.065l-5.357 3.98a.859.859 0 01-1.127-.082l-2.506-2.506a.86.86 0 01-.083-1.127l2.91-3.938a.867.867 0 00.017-1.004 21.648 21.648 0 01-3.424-8.26.866.866 0 00-.722-.7l-4.84-.725a.861.861 0 01-.735-.859v-3.543c0-.431.308-.793.735-.855l4.84-.726a.866.866 0 00.722-.7 21.648 21.648 0 013.424-8.26.867.867 0 00-.016-1.004l-2.91-3.938a.86.86 0 01.082-1.127l2.506-2.506a.86.86 0 011.127-.083l3.938 2.907c.298.223.7.23 1.004.02a21.647 21.647 0 018.26-3.424.866.866 0 00.7-.722l.726-4.84a.864.864 0 01.858-.739h3.543a.86.86 0 01.856.74l.725 4.839a.866.866 0 00.7.722c2.973.56 5.754 1.71 8.26 3.424a.861.861 0 001.004-.02l3.938-2.907a.86.86 0 011.127.083l2.506 2.506a.859.859 0 01.082 1.127l-2.91 3.938a.867.867 0 00-.016 1.004 21.648 21.648 0 013.424 8.26.866.866 0 00.722.7l4.84.726a.858.858 0 01.736.855v3.543a.861.861 0 01-.736.859l-4.84.725a.866.866 0 00-.722.7 21.882 21.882 0 01-.6 2.42.865.865 0 101.654.513c.202-.66.38-1.332.523-2.009l4.243-.636a2.588 2.588 0 002.21-2.57V27.73a2.589 2.589 0 00-2.21-2.572zm-18.692 9.135v-2.138a1.712 1.712 0 01-.07 3.232c.044-.358.07-.723.07-1.094zm-18.31-.534c0-.732.464-1.359 1.114-1.604v2.138c0 .371.026.736.07 1.094a1.713 1.713 0 01-1.184-1.628zm2.844.534v-5.264c.806-.142 2.165-.42 3.696-.921 2.648-.862 4.713-2.006 6.162-3.407 1.28 2.509 3.01 3.748 3.878 4.249v5.343A6.876 6.876 0 0129.5 41.16a6.876 6.876 0 01-6.868-6.868zm6.155 12.105h1.426l1.107 6.085-1.82 1.84-1.823-1.84 1.11-6.085zm-.818-3.507h3.06l-.687 1.777h-1.684l-.69-1.777zm-9.957 8.664c0-4.59 3.59-8.356 8.107-8.644l1.05 2.708-1.275 6.997a.871.871 0 00.235.766l2.754 2.78a.87.87 0 001.234 0l2.754-2.78a.871.871 0 00.235-.766L31.83 45.62l1.05-2.708c4.519.288 8.108 4.054 8.108 8.644v5.715H37.84v-4.538a.866.866 0 00-1.73 0v4.538H22.89v-4.538a.866.866 0 00-1.73 0v4.538h-3.148v-5.715z" fill="url(#paint3_linear_626_321)"/><defs><linearGradient id="paint0_linear_626_321" x1="26.931" y1="34.057" x2="24.445" y2="31.572" gradientUnits="userSpaceOnUse"><stop stop-color="#557EED"/><stop offset=".016" stop-color="#547DED"/><stop offset=".032" stop-color="#547DED"/><stop offset=".048" stop-color="#547DEE"/><stop offset=".065" stop-color="#547DEE"/><stop offset=".081" stop-color="#547DEF"/><stop offset=".097" stop-color="#547DEF"/><stop offset=".113" stop-color="#537DF0"/><stop offset=".129" stop-color="#537DF0"/><stop offset=".145" stop-color="#537CF0"/><stop offset=".161" stop-color="#527CF1"/><stop offset=".177" stop-color="#527CF1"/><stop offset=".194" stop-color="#527CF1"/><stop offset=".21" stop-color="#517BF2"/><stop offset=".226" stop-color="#517BF2"/><stop offset=".242" stop-color="#507BF3"/><stop offset=".258" stop-color="#507AF3"/><stop offset=".274" stop-color="#4F7AF3"/><stop offset=".29" stop-color="#4E7AF4"/><stop offset=".306" stop-color="#4E79F4"/><stop offset=".323" stop-color="#4D79F4"/><stop offset=".339" stop-color="#4C78F5"/><stop offset=".355" stop-color="#4B78F5"/><stop offset=".371" stop-color="#4B77F5"/><stop offset=".387" stop-color="#4A77F6"/><stop offset=".403" stop-color="#4976F6"/><stop offset=".419" stop-color="#4876F6"/><stop offset=".435" stop-color="#4775F6"/><stop offset=".452" stop-color="#4674F7"/><stop offset=".468" stop-color="#4574F7"/><stop offset=".484" stop-color="#4473F7"/><stop offset=".5" stop-color="#4373F7"/><stop offset=".516" stop-color="#4272F8"/><stop offset=".532" stop-color="#4171F8"/><stop offset=".548" stop-color="#4071F8"/><stop offset=".565" stop-color="#3F70F8"/><stop offset=".581" stop-color="#3E6FF9"/><stop offset=".597" stop-color="#3D6EF9"/><stop offset=".613" stop-color="#3B6EF9"/><stop offset=".629" stop-color="#3A6DF9"/><stop offset=".645" stop-color="#396CF9"/><stop offset=".661" stop-color="#376BFA"/><stop offset=".677" stop-color="#366AFA"/><stop offset=".694" stop-color="#3569FA"/><stop offset=".71" stop-color="#3368FA"/><stop offset=".726" stop-color="#3268FA"/><stop offset=".742" stop-color="#3167FA"/><stop offset=".758" stop-color="#2F66FA"/><stop offset=".774" stop-color="#2E65FB"/><stop offset=".79" stop-color="#2C64FB"/><stop offset=".806" stop-color="#2A63FB"/><stop offset=".823" stop-color="#2962FB"/><stop offset=".839" stop-color="#2761FB"/><stop offset=".855" stop-color="#2660FB"/><stop offset=".871" stop-color="#245FFB"/><stop offset=".887" stop-color="#225EFB"/><stop offset=".903" stop-color="#205CFB"/><stop offset=".919" stop-color="#1F5BFB"/><stop offset=".935" stop-color="#1D5AFB"/><stop offset=".952" stop-color="#1B59FB"/><stop offset=".968" stop-color="#1958FB"/><stop offset=".984" stop-color="#1757FB"/><stop offset="1" stop-color="#1656FC"/></linearGradient><linearGradient id="paint1_linear_626_321" x1="34.555" y1="34.057" x2="32.069" y2="31.572" gradientUnits="userSpaceOnUse"><stop stop-color="#557EED"/><stop offset=".016" stop-color="#547DED"/><stop offset=".032" stop-color="#547DED"/><stop offset=".048" stop-color="#547DEE"/><stop offset=".065" stop-color="#547DEE"/><stop offset=".081" stop-color="#547DEF"/><stop offset=".097" stop-color="#547DEF"/><stop offset=".113" stop-color="#537DF0"/><stop offset=".129" stop-color="#537DF0"/><stop offset=".145" stop-color="#537CF0"/><stop offset=".161" stop-color="#527CF1"/><stop offset=".177" stop-color="#527CF1"/><stop offset=".194" stop-color="#527CF1"/><stop offset=".21" stop-color="#517BF2"/><stop offset=".226" stop-color="#517BF2"/><stop offset=".242" stop-color="#507BF3"/><stop offset=".258" stop-color="#507AF3"/><stop offset=".274" stop-color="#4F7AF3"/><stop offset=".29" stop-color="#4E7AF4"/><stop offset=".306" stop-color="#4E79F4"/><stop offset=".323" stop-color="#4D79F4"/><stop offset=".339" stop-color="#4C78F5"/><stop offset=".355" stop-color="#4B78F5"/><stop offset=".371" stop-color="#4B77F5"/><stop offset=".387" stop-color="#4A77F6"/><stop offset=".403" stop-color="#4976F6"/><stop offset=".419" stop-color="#4876F6"/><stop offset=".435" stop-color="#4775F6"/><stop offset=".452" stop-color="#4674F7"/><stop offset=".468" stop-color="#4574F7"/><stop offset=".484" stop-color="#4473F7"/><stop offset=".5" stop-color="#4373F7"/><stop offset=".516" stop-color="#4272F8"/><stop offset=".532" stop-color="#4171F8"/><stop offset=".548" stop-color="#4071F8"/><stop offset=".565" stop-color="#3F70F8"/><stop offset=".581" stop-color="#3E6FF9"/><stop offset=".597" stop-color="#3D6EF9"/><stop offset=".613" stop-color="#3B6EF9"/><stop offset=".629" stop-color="#3A6DF9"/><stop offset=".645" stop-color="#396CF9"/><stop offset=".661" stop-color="#376BFA"/><stop offset=".677" stop-color="#366AFA"/><stop offset=".694" stop-color="#3569FA"/><stop offset=".71" stop-color="#3368FA"/><stop offset=".726" stop-color="#3268FA"/><stop offset=".742" stop-color="#3167FA"/><stop offset=".758" stop-color="#2F66FA"/><stop offset=".774" stop-color="#2E65FB"/><stop offset=".79" stop-color="#2C64FB"/><stop offset=".806" stop-color="#2A63FB"/><stop offset=".823" stop-color="#2962FB"/><stop offset=".839" stop-color="#2761FB"/><stop offset=".855" stop-color="#2660FB"/><stop offset=".871" stop-color="#245FFB"/><stop offset=".887" stop-color="#225EFB"/><stop offset=".903" stop-color="#205CFB"/><stop offset=".919" stop-color="#1F5BFB"/><stop offset=".935" stop-color="#1D5AFB"/><stop offset=".952" stop-color="#1B59FB"/><stop offset=".968" stop-color="#1958FB"/><stop offset=".984" stop-color="#1757FB"/><stop offset="1" stop-color="#1656FC"/></linearGradient><linearGradient id="paint2_linear_626_321" x1="31.489" y1="39.112" x2="27.511" y2="35.135" gradientUnits="userSpaceOnUse"><stop stop-color="#557EED"/><stop offset=".016" stop-color="#547DED"/><stop offset=".032" stop-color="#547DED"/><stop offset=".048" stop-color="#547DEE"/><stop offset=".065" stop-color="#547DEE"/><stop offset=".081" stop-color="#547DEF"/><stop offset=".097" stop-color="#547DEF"/><stop offset=".113" stop-color="#537DF0"/><stop offset=".129" stop-color="#537DF0"/><stop offset=".145" stop-color="#537CF0"/><stop offset=".161" stop-color="#527CF1"/><stop offset=".177" stop-color="#527CF1"/><stop offset=".194" stop-color="#527CF1"/><stop offset=".21" stop-color="#517BF2"/><stop offset=".226" stop-color="#517BF2"/><stop offset=".242" stop-color="#507BF3"/><stop offset=".258" stop-color="#507AF3"/><stop offset=".274" stop-color="#4F7AF3"/><stop offset=".29" stop-color="#4E7AF4"/><stop offset=".306" stop-color="#4E79F4"/><stop offset=".323" stop-color="#4D79F4"/><stop offset=".339" stop-color="#4C78F5"/><stop offset=".355" stop-color="#4B78F5"/><stop offset=".371" stop-color="#4B77F5"/><stop offset=".387" stop-color="#4A77F6"/><stop offset=".403" stop-color="#4976F6"/><stop offset=".419" stop-color="#4876F6"/><stop offset=".435" stop-color="#4775F6"/><stop offset=".452" stop-color="#4674F7"/><stop offset=".468" stop-color="#4574F7"/><stop offset=".484" stop-color="#4473F7"/><stop offset=".5" stop-color="#4373F7"/><stop offset=".516" stop-color="#4272F8"/><stop offset=".532" stop-color="#4171F8"/><stop offset=".548" stop-color="#4071F8"/><stop offset=".565" stop-color="#3F70F8"/><stop offset=".581" stop-color="#3E6FF9"/><stop offset=".597" stop-color="#3D6EF9"/><stop offset=".613" stop-color="#3B6EF9"/><stop offset=".629" stop-color="#3A6DF9"/><stop offset=".645" stop-color="#396CF9"/><stop offset=".661" stop-color="#376BFA"/><stop offset=".677" stop-color="#366AFA"/><stop offset=".694" stop-color="#3569FA"/><stop offset=".71" stop-color="#3368FA"/><stop offset=".726" stop-color="#3268FA"/><stop offset=".742" stop-color="#3167FA"/><stop offset=".758" stop-color="#2F66FA"/><stop offset=".774" stop-color="#2E65FB"/><stop offset=".79" stop-color="#2C64FB"/><stop offset=".806" stop-color="#2A63FB"/><stop offset=".823" stop-color="#2962FB"/><stop offset=".839" stop-color="#2761FB"/><stop offset=".855" stop-color="#2660FB"/><stop offset=".871" stop-color="#245FFB"/><stop offset=".887" stop-color="#225EFB"/><stop offset=".903" stop-color="#205CFB"/><stop offset=".919" stop-color="#1F5BFB"/><stop offset=".935" stop-color="#1D5AFB"/><stop offset=".952" stop-color="#1B59FB"/><stop offset=".968" stop-color="#1958FB"/><stop offset=".984" stop-color="#1757FB"/><stop offset="1" stop-color="#1656FC"/></linearGradient><linearGradient id="paint3_linear_626_321" x1="59" y1="59" x2="0" y2="0" gradientUnits="userSpaceOnUse"><stop stop-color="#557EED"/><stop offset=".016" stop-color="#547DED"/><stop offset=".032" stop-color="#547DED"/><stop offset=".048" stop-color="#547DEE"/><stop offset=".065" stop-color="#547DEE"/><stop offset=".081" stop-color="#547DEF"/><stop offset=".097" stop-color="#547DEF"/><stop offset=".113" stop-color="#537DF0"/><stop offset=".129" stop-color="#537DF0"/><stop offset=".145" stop-color="#537CF0"/><stop offset=".161" stop-color="#527CF1"/><stop offset=".177" stop-color="#527CF1"/><stop offset=".194" stop-color="#527CF1"/><stop offset=".21" stop-color="#517BF2"/><stop offset=".226" stop-color="#517BF2"/><stop offset=".242" stop-color="#507BF3"/><stop offset=".258" stop-color="#507AF3"/><stop offset=".274" stop-color="#4F7AF3"/><stop offset=".29" stop-color="#4E7AF4"/><stop offset=".306" stop-color="#4E79F4"/><stop offset=".323" stop-color="#4D79F4"/><stop offset=".339" stop-color="#4C78F5"/><stop offset=".355" stop-color="#4B78F5"/><stop offset=".371" stop-color="#4B77F5"/><stop offset=".387" stop-color="#4A77F6"/><stop offset=".403" stop-color="#4976F6"/><stop offset=".419" stop-color="#4876F6"/><stop offset=".435" stop-color="#4775F6"/><stop offset=".452" stop-color="#4674F7"/><stop offset=".468" stop-color="#4574F7"/><stop offset=".484" stop-color="#4473F7"/><stop offset=".5" stop-color="#4373F7"/><stop offset=".516" stop-color="#4272F8"/><stop offset=".532" stop-color="#4171F8"/><stop offset=".548" stop-color="#4071F8"/><stop offset=".565" stop-color="#3F70F8"/><stop offset=".581" stop-color="#3E6FF9"/><stop offset=".597" stop-color="#3D6EF9"/><stop offset=".613" stop-color="#3B6EF9"/><stop offset=".629" stop-color="#3A6DF9"/><stop offset=".645" stop-color="#396CF9"/><stop offset=".661" stop-color="#376BFA"/><stop offset=".677" stop-color="#366AFA"/><stop offset=".694" stop-color="#3569FA"/><stop offset=".71" stop-color="#3368FA"/><stop offset=".726" stop-color="#3268FA"/><stop offset=".742" stop-color="#3167FA"/><stop offset=".758" stop-color="#2F66FA"/><stop offset=".774" stop-color="#2E65FB"/><stop offset=".79" stop-color="#2C64FB"/><stop offset=".806" stop-color="#2A63FB"/><stop offset=".823" stop-color="#2962FB"/><stop offset=".839" stop-color="#2761FB"/><stop offset=".855" stop-color="#2660FB"/><stop offset=".871" stop-color="#245FFB"/><stop offset=".887" stop-color="#225EFB"/><stop offset=".903" stop-color="#205CFB"/><stop offset=".919" stop-color="#1F5BFB"/><stop offset=".935" stop-color="#1D5AFB"/><stop offset=".952" stop-color="#1B59FB"/><stop offset=".968" stop-color="#1958FB"/><stop offset=".984" stop-color="#1757FB"/><stop offset="1" stop-color="#1656FC"/></linearGradient></defs></svg>