<svg width="60" height="60" fill="none" xmlns="http://www.w3.org/2000/svg"><g clip-path="url(#clip0_626_299)" fill="#333"><path d="M21.49 50.439A23.555 23.555 0 017.8 36.372a.88.88 0 00-1.656.59 25.311 25.311 0 0014.71 15.116.879.879 0 10.635-1.64zM17.323 8.444a.876.876 0 00.456-.128 23.516 23.516 0 0112.22-3.414c1.756 0 3.506.194 5.202.576a.879.879 0 10.386-1.715A25.464 25.464 0 0030 3.145a25.274 25.274 0 00-13.134 3.669.879.879 0 00.457 1.63zm37.116 19.14a.879.879 0 00-.879.878 23.568 23.568 0 01-5.593 15.242.879.879 0 001.34 1.138 25.328 25.328 0 006.011-16.38.88.88 0 00-.88-.878zM60 18.47c0-.28-.031-.56-.093-.833-.267-1.185-1.297-1.919-2.505-1.784-.101.011-.198.03-.294.052V7.167a5.49 5.49 0 00-5.484-5.484h-9.296a5.49 5.49 0 00-5.484 5.484v8.738a2.516 2.516 0 00-.293-.052c-1.208-.135-2.239.599-2.506 1.784a3.776 3.776 0 003.144 4.565c.968 3.099 3.865 5.354 7.278 5.354h5.018c3.414 0 6.31-2.255 7.278-5.354A3.776 3.776 0 0060 18.47zM42.328 3.44h9.296a3.73 3.73 0 013.726 3.727v1.775c-.681-.497-1.56-.907-2.604-.907-1.306 0-2.226.734-3.037 1.383-.842.673-1.569 1.254-2.733 1.254-1.164 0-1.891-.581-2.733-1.255-.536-.428-1.09-.871-1.767-1.138a3.439 3.439 0 00-1.27-.244c-1.044 0-1.923.41-2.604.907V7.167a3.73 3.73 0 013.726-3.727zM35.71 18.47c0-.15.017-.3.05-.446.097-.432.45-.44.596-.424.146.016.488.102.488.545v1.788c0 .117.004.234.009.35a2.013 2.013 0 01-1.143-1.813zm13.775 7.328h-5.018a5.872 5.872 0 01-5.865-5.865v-8.527c.339-.46 1.316-1.614 2.605-1.614.212 0 .416.04.624.122.431.17.86.513 1.314.877.914.73 2.05 1.639 3.831 1.639 1.78 0 2.918-.909 3.83-1.64.775-.618 1.283-.998 1.94-.998 1.29 0 2.267 1.154 2.604 1.613v8.528a5.872 5.872 0 01-5.865 5.865zm7.614-5.515c.006-.116.01-.233.01-.35v-1.788c0-.443.34-.529.487-.545.148-.016.5-.008.597.424a2.013 2.013 0 01-1.093 2.258z"/><path d="M42.637 15.394c-.485 0-.879.653-.879 1.455 0 .803.395 1.456.88 1.456.484 0 .879-.653.879-1.456 0-.802-.395-1.455-.88-1.455zm8.678 0c-.485 0-.88.653-.88 1.455 0 .803.395 1.456.88 1.456s.88-.653.88-1.456c0-.802-.395-1.455-.88-1.455zm-3.72 5.79a.87.87 0 01-.619.257.871.871 0 01-.62-.257.879.879 0 10-1.242 1.243 2.617 2.617 0 001.862.771 2.62 2.62 0 001.862-.77.879.879 0 10-1.243-1.244zM8.278 26.608c.46 0 .834-.62.834-1.38 0-.762-.374-1.381-.834-1.381-.46 0-.834.619-.834 1.38 0 .761.374 1.38.834 1.38zm8.225 0c.46 0 .834-.62.834-1.38 0-.762-.374-1.381-.834-1.381-.46 0-.834.619-.834 1.38 0 .761.374 1.38.834 1.38z"/><path d="M10.012 35.421h4.757c3.245 0 6-2.137 6.932-5.078a3.625 3.625 0 002.991-4.38c-.259-1.146-1.256-1.857-2.425-1.726a2.518 2.518 0 00-.227.036v-4.025a9.019 9.019 0 004.09-7.547V9.943a.879.879 0 00-.88-.879h-6.958a.879.879 0 000 1.758h6.08v1.879c0 4.005-3.26 7.263-7.265 7.263H12.88A3.269 3.269 0 019.615 16.7v-2.612a3.27 3.27 0 013.265-3.265h1.896a.879.879 0 000-1.758H12.88a5.029 5.029 0 00-4.572 2.949 3.111 3.111 0 00-.314-.016H5.28a3.937 3.937 0 00-3.933 3.932v4.135c0 .964.572 1.795 1.394 2.177v2.032a2.476 2.476 0 00-.227-.036c-1.169-.13-2.166.58-2.425 1.726a3.625 3.625 0 002.99 4.38c.933 2.94 3.688 5.078 6.933 5.078zm12.45-9.437c.157-.018.434.007.515.367a1.863 1.863 0 01-.944 2.056c.003-.085.007-.17.007-.257v-1.695c0-.37.264-.454.422-.471zM3.105 15.929c0-1.199.975-2.174 2.175-2.174h2.59a4.56 4.56 0 00-.013.332V16.7c0 .94.26 1.82.711 2.573a3.68 3.68 0 01-2.911 1.436H3.749a.644.644 0 01-.644-.644V15.93zM1.758 26.764c0-.14.015-.279.046-.413.081-.36.358-.384.515-.367.158.017.422.102.422.471v1.695c0 .086.004.172.007.258a1.863 1.863 0 01-.99-1.645zm2.74-4.299h1.159a5.44 5.44 0 004.082-1.85 4.998 4.998 0 003.141 1.107h4.227a8.975 8.975 0 003.175-.579v7.007a5.52 5.52 0 01-5.513 5.513h-4.757A5.52 5.52 0 014.5 28.15v-5.685z"/><path d="M12.39 31.29c.651 0 1.302-.248 1.798-.744a.879.879 0 00-1.243-1.243.785.785 0 01-1.11 0 .88.88 0 00-1.242 1.243 2.535 2.535 0 001.797.744zm34.675 15.559V43.55c0-1.59-.349-3.116-1.037-4.538a.879.879 0 10-1.582.767 8.587 8.587 0 01.861 3.77V45.1a.877.877 0 00-.49-.309c-2.42-.558-4.098-3.914-4.114-3.947a.879.879 0 00-1.41-.235c-2.596 2.596-9.941 4.126-13.15 4.218a.877.877 0 00-.662.33V43.55c0-4.782 3.89-8.672 8.672-8.672h2.482c2.214 0 4.32.833 5.932 2.346a.88.88 0 001.203-1.282 10.386 10.386 0 00-7.135-2.822h-2.482c-5.75 0-10.43 4.679-10.43 10.43v3.298c-.606.289-1.06.846-1.225 1.575a3.754 3.754 0 001.225 3.687v5.328a.88.88 0 00.879.879h21.584a.879.879 0 00.879-.88v-5.326a3.754 3.754 0 001.225-3.688c-.164-.729-.619-1.286-1.225-1.575zm-1.566 3.865v-1.783c0-.44.34-.525.485-.541a.7.7 0 01.108-.004c.01.002.02.002.029.002.165.015.382.1.455.423a2.005 2.005 0 01-1.085 2.247c.004-.114.008-.228.008-.344zm-11.943-5.403c1.908-.547 4.384-1.438 6.123-2.728.725 1.14 2.132 2.967 4.062 3.71v4.421a5.852 5.852 0 01-5.846 5.846h-5.003a5.852 5.852 0 01-5.846-5.846v-4.178c1.907-.147 4.315-.596 6.51-1.225zm-9.392 3.945c0-.15.016-.3.049-.445.074-.328.295-.41.46-.423l.022-.001a.75.75 0 01.11.003c.144.016.478.1.484.53v1.794c0 .116.003.23.008.344a2.005 2.005 0 01-1.133-1.802zm1.317 3.698c.05.009.101.018.152.025a7.627 7.627 0 002.403 3.581h-2.555v-3.606zm19.826 3.606h-2.555a7.628 7.628 0 002.403-3.58l.152-.026v3.606z"/><path d="M30.125 47.983h.23a2.435 2.435 0 00-.033.403c0 .808.4 1.466.891 1.466s.891-.658.891-1.466c0-.808-.4-1.466-.891-1.466l-1.089.008a.528.528 0 000 1.055zm9.383 1.869c.491 0 .891-.658.891-1.466 0-.137-.011-.272-.034-.403h.298a.528.528 0 000-1.055l-1.155-.008c-.492 0-.892.658-.892 1.466 0 .808.4 1.466.892 1.466zm-4.114 4.132c.65 0 1.302-.248 1.797-.743a.879.879 0 00-1.243-1.243.786.786 0 01-1.11 0 .879.879 0 10-1.242 1.242 2.534 2.534 0 001.798.744z"/></g><defs><clipPath id="clip0_626_299"><path fill="#fff" d="M0 0h60v60H0z"/></clipPath></defs></svg>