<svg width="60" height="60" fill="none" xmlns="http://www.w3.org/2000/svg"><path d="M40.073 38.128c-1.422 0-2.578-1.001-2.578-2.232 0-1.23 1.156-2.231 2.578-2.231 1.421 0 2.578 1 2.578 2.231a1.172 1.172 0 002.344 0c0-2.147-1.6-3.953-3.75-4.443v-.61a1.172 1.172 0 00-2.344 0v.61c-2.15.49-3.75 2.296-3.75 4.443 0 2.523 2.208 4.575 4.922 4.575 1.421 0 2.578 1.002 2.578 2.232 0 1.23-1.157 2.231-2.578 2.231-1.422 0-2.578-1-2.578-2.231a1.172 1.172 0 00-2.344 0c0 2.147 1.6 3.953 3.75 4.443v.506a1.172 1.172 0 002.344 0v-.506c2.15-.49 3.75-2.296 3.75-4.443 0-2.523-2.208-4.575-4.922-4.575zm12.835-6.971a15.269 15.269 0 00-6.237-5.52 1.172 1.172 0 10-1.015 2.113c4.442 2.135 7.313 6.699 7.313 11.625 0 2.108-.52 4.198-1.503 6.046a1.172 1.172 0 002.07 1.1 15.265 15.265 0 001.777-7.146c0-2.925-.832-5.767-2.405-8.218zM41.915 24.14h-.08a1.172 1.172 0 000 2.344h.075a1.172 1.172 0 00.006-2.343zM34.5 51c-4.442-2.135-7.312-6.699-7.312-11.625 0-2.108.52-4.198 1.502-6.046a1.172 1.172 0 10-2.069-1.1 15.265 15.265 0 00-1.777 7.146c0 2.925.831 5.767 2.404 8.218a15.27 15.27 0 006.237 5.52A1.172 1.172 0 0034.5 51zm3.82 1.266h-.067a1.17 1.17 0 10-.011 2.343h.079a1.172 1.172 0 000-2.343z" fill="#333"/><path d="M45.4 20.176a5.376 5.376 0 00-.521-.957h3.05a5.397 5.397 0 005.391-5.39 5.397 5.397 0 00-5.39-5.392h-9.385a5.36 5.36 0 00.947-3.046A5.397 5.397 0 0034.102 0H5.39A5.397 5.397 0 000 5.39a5.397 5.397 0 005.39 5.391h9.385a5.36 5.36 0 00-.947 3.047c0 1.13.35 2.18.947 3.047h-3.056a5.397 5.397 0 00-5.39 5.39c0 1.708.798 3.231 2.04 4.22a5.382 5.382 0 000 8.437 5.382 5.382 0 000 8.437 5.382 5.382 0 00-2.04 4.219 5.397 5.397 0 005.39 5.39h13.81c3.638 3.892 8.814 6.329 14.55 6.329C51.062 59.297 60 50.36 60 39.375c0-9.143-6.191-16.865-14.6-19.2zm2.53-9.395a3.05 3.05 0 013.047 3.047 3.05 3.05 0 01-3.047 3.047H19.219a3.05 3.05 0 01-3.047-3.047 3.05 3.05 0 013.047-3.047h28.71zM5.39 8.437a3.05 3.05 0 01-3.046-3.046A3.05 3.05 0 015.39 2.344H34.1a3.05 3.05 0 013.047 3.047A3.05 3.05 0 0134.1 8.437H5.392zm6.33 10.783h28.71c.473 0 .925.11 1.33.306a20.099 20.099 0 00-1.68-.072c-5.502 0-10.49 2.242-14.098 5.86H11.719a3.05 3.05 0 01-3.047-3.047 3.05 3.05 0 013.047-3.047zm0 8.437h12.26a19.865 19.865 0 00-3.013 6.094H11.72a3.05 3.05 0 01-3.047-3.047 3.05 3.05 0 013.047-3.047zm0 8.438h8.71a19.965 19.965 0 00-.073 6.093H11.72a3.05 3.05 0 01-3.047-3.046 3.05 3.05 0 013.047-3.047zm0 14.53a3.05 3.05 0 01-3.047-3.046 3.05 3.05 0 013.047-3.047h9.115a19.844 19.844 0 002.812 6.094H11.719zm28.36 6.33c-9.693 0-17.579-7.886-17.579-17.579 0-9.692 7.886-17.578 17.578-17.578 9.693 0 17.578 7.886 17.578 17.578 0 9.693-7.885 17.578-17.578 17.578z" fill="#333"/></svg>