<svg width="85" height="69" fill="none" xmlns="http://www.w3.org/2000/svg"><path fill-rule="evenodd" clip-rule="evenodd" d="M7.104 68.714h70.791c3.918 0 7.105-3.082 7.105-6.966V7.292C85 3.409 81.813.326 77.895.326H7.105C3.186.325 0 3.408 0 7.292v54.456c0 3.884 3.187 6.966 7.104 6.966zm70.791-2.75H7.105a4.198 4.198 0 01-4.224-4.216V19.742H82.12v42.006a4.198 4.198 0 01-4.224 4.217zM7.105 3.075h70.79a4.198 4.198 0 014.224 4.218v9.701H2.88V7.292a4.198 4.198 0 014.223-4.218z" fill="url(#paint0_linear_375_60)"/><path fill-rule="evenodd" clip-rule="evenodd" d="M22.141 15.366c2.868 0 5.202-2.355 5.202-5.25s-2.334-5.25-5.202-5.25c-2.867 0-5.2 2.355-5.2 5.25 0 2.894 2.333 5.25 5.2 5.25zm0-7.7c1.284 0 2.329 1.1 2.329 2.45s-1.045 2.449-2.329 2.449c-1.283 0-2.328-1.098-2.328-2.449 0-1.35 1.045-2.45 2.328-2.45z" fill="url(#paint1_linear_375_60)"/><path fill-rule="evenodd" clip-rule="evenodd" d="M34.624 15.366c2.868 0 5.201-2.355 5.201-5.25s-2.333-5.25-5.2-5.25c-2.868 0-5.202 2.355-5.202 5.25 0 2.894 2.334 5.25 5.201 5.25zm0-7.7c1.284 0 2.328 1.1 2.328 2.45s-1.044 2.449-2.328 2.449c-1.284 0-2.328-1.098-2.328-2.449 0-1.35 1.045-2.45 2.328-2.45z" fill="url(#paint2_linear_375_60)"/><path fill-rule="evenodd" clip-rule="evenodd" d="M9.956 15.366c2.869 0 5.201-2.355 5.201-5.25s-2.332-5.25-5.2-5.25c-2.869 0-5.202 2.355-5.202 5.25 0 2.894 2.333 5.25 5.201 5.25zm0-7.7c1.284 0 2.329 1.1 2.329 2.45s-1.045 2.449-2.329 2.449c-1.283 0-2.328-1.098-2.328-2.449 0-1.35 1.045-2.45 2.328-2.45z" fill="url(#paint3_linear_375_60)"/><path fill-rule="evenodd" clip-rule="evenodd" d="M72.806 30.426c-2.695.01-4.956 1.944-5.27 4.504-.313 2.56 1.42 4.94 4.04 5.546v12.015c0 4.463-3.783 8.08-8.448 8.08-4.666 0-8.448-3.617-8.448-8.08v-8.257h7.3c.7-.012 1.293-.497 1.415-1.157l3.115-16.555a1.435 1.435 0 00-.311-1.174 1.514 1.514 0 00-1.103-.542h-3.047v-.687c0-.76-.643-1.376-1.438-1.376-.794 0-1.438.616-1.438 1.376V27.9c0 .76.644 1.375 1.438 1.375.795 0 1.438-.616 1.438-1.375v-.344h1.326l-2.597 13.926h-15.2l-2.596-13.926h1.453v.344c0 .76.643 1.375 1.437 1.375.795 0 1.438-.616 1.438-1.375v-3.782c0-.76-.643-1.376-1.438-1.376-.794 0-1.437.616-1.437 1.376v.687h-3.173c-.431.02-.834.214-1.104.536-.271.323-.384.74-.311 1.147l3.115 16.577c.12.663.713 1.151 1.415 1.168h7.427v8.257c0 5.983 5.07 10.831 11.323 10.831 6.254 0 11.324-4.848 11.324-10.83V40.393c2.51-.767 4.059-3.17 3.648-5.66-.411-2.488-2.658-4.318-5.293-4.308zm0 7.45c-1.356 0-2.456-1.052-2.456-2.35s1.1-2.35 2.456-2.35c1.357 0 2.457 1.052 2.457 2.35-.002 1.297-1.101 2.349-2.457 2.35z" fill="url(#paint4_linear_375_60)"/><path fill-rule="evenodd" clip-rule="evenodd" d="M23.008 28.703h-.013c-8.757-.004-15.859 6.792-15.862 15.176-.004 8.385 7.093 15.184 15.851 15.187h.012c8.783 0 15.93-6.76 15.938-15.17.006-8.413-7.138-15.193-15.926-15.193zM32.22 52.69c-2.447 2.337-5.768 3.639-9.224 3.615h-.01c-7.2.007-13.04-5.577-13.045-12.47.008-3.3 1.39-6.463 3.84-8.785 2.45-2.323 5.766-3.614 9.214-3.588h.01c3.456-.008 6.772 1.3 9.22 3.636 2.446 2.335 3.822 5.506 3.825 8.814.006 3.3-1.374 6.463-3.83 8.778z" fill="url(#paint5_linear_375_60)"/><path fill-rule="evenodd" clip-rule="evenodd" d="M30.358 40.51l-3.755-.007.003-3.562c0-.759-.642-1.378-1.444-1.387l-4.244-.041c-.804.013-1.448.635-1.445 1.394l-.003 3.582-3.757-.022c-.8.01-1.445.626-1.444 1.385l-.003 4.034c-.001.755.645 1.368 1.443 1.37l3.755.005-.003 3.557c.002.758.643 1.378 1.444 1.397l4.244.04a1.52 1.52 0 001.021-.433c.273-.269.424-.627.424-1l.003-3.543 3.755.022h.002c.8-.01 1.445-.628 1.444-1.386l.003-4.035c0-.755-.645-1.368-1.443-1.37zm-1.448 4.04l-3.755.018h-.001a1.47 1.47 0 00-1.02.388c-.27.252-.424.597-.425.957l-.003 3.532h-1.354l.003-3.554c0-.756-.646-1.37-1.444-1.372l-3.755-.008.001-1.292 3.755-.017c.382.004.749-.136 1.02-.388.271-.253.425-.597.426-.958l.002-3.532 1.355.002-.003 3.554c0 .756.646 1.37 1.445 1.37l3.754.008-.001 1.292z" fill="url(#paint6_linear_375_60)"/><defs><linearGradient id="paint0_linear_375_60" x1="81.656" y1="71.907" x2="6.963" y2="-6.323" gradientUnits="userSpaceOnUse"><stop stop-color="#557EED"/><stop offset=".016" stop-color="#547DED"/><stop offset=".032" stop-color="#547DED"/><stop offset=".048" stop-color="#547DEE"/><stop offset=".065" stop-color="#547DEE"/><stop offset=".081" stop-color="#547DEF"/><stop offset=".097" stop-color="#547DEF"/><stop offset=".113" stop-color="#537DF0"/><stop offset=".129" stop-color="#537DF0"/><stop offset=".145" stop-color="#537CF0"/><stop offset=".161" stop-color="#527CF1"/><stop offset=".177" stop-color="#527CF1"/><stop offset=".194" stop-color="#527CF1"/><stop offset=".21" stop-color="#517BF2"/><stop offset=".226" stop-color="#517BF2"/><stop offset=".242" stop-color="#507BF3"/><stop offset=".258" stop-color="#507AF3"/><stop offset=".274" stop-color="#4F7AF3"/><stop offset=".29" stop-color="#4E7AF4"/><stop offset=".306" stop-color="#4E79F4"/><stop offset=".323" stop-color="#4D79F4"/><stop offset=".339" stop-color="#4C78F5"/><stop offset=".355" stop-color="#4B78F5"/><stop offset=".371" stop-color="#4B77F5"/><stop offset=".387" stop-color="#4A77F6"/><stop offset=".403" stop-color="#4976F6"/><stop offset=".419" stop-color="#4876F6"/><stop offset=".435" stop-color="#4775F6"/><stop offset=".452" stop-color="#4674F7"/><stop offset=".468" stop-color="#4574F7"/><stop offset=".484" stop-color="#4473F7"/><stop offset=".5" stop-color="#4373F7"/><stop offset=".516" stop-color="#4272F8"/><stop offset=".532" stop-color="#4171F8"/><stop offset=".548" stop-color="#4071F8"/><stop offset=".565" stop-color="#3F70F8"/><stop offset=".581" stop-color="#3E6FF9"/><stop offset=".597" stop-color="#3D6EF9"/><stop offset=".613" stop-color="#3B6EF9"/><stop offset=".629" stop-color="#3A6DF9"/><stop offset=".645" stop-color="#396CF9"/><stop offset=".661" stop-color="#376BFA"/><stop offset=".677" stop-color="#366AFA"/><stop offset=".694" stop-color="#3569FA"/><stop offset=".71" stop-color="#3368FA"/><stop offset=".726" stop-color="#3268FA"/><stop offset=".742" stop-color="#3167FA"/><stop offset=".758" stop-color="#2F66FA"/><stop offset=".774" stop-color="#2E65FB"/><stop offset=".79" stop-color="#2C64FB"/><stop offset=".806" stop-color="#2A63FB"/><stop offset=".823" stop-color="#2962FB"/><stop offset=".839" stop-color="#2761FB"/><stop offset=".855" stop-color="#2660FB"/><stop offset=".871" stop-color="#245FFB"/><stop offset=".887" stop-color="#225EFB"/><stop offset=".903" stop-color="#205CFB"/><stop offset=".919" stop-color="#1F5BFB"/><stop offset=".935" stop-color="#1D5AFB"/><stop offset=".952" stop-color="#1B59FB"/><stop offset=".968" stop-color="#1958FB"/><stop offset=".984" stop-color="#1757FB"/><stop offset="1" stop-color="#1656FC"/></linearGradient><linearGradient id="paint1_linear_375_60" x1="27.491" y1="15.224" x2="17.287" y2="4.536" gradientUnits="userSpaceOnUse"><stop stop-color="#557EED"/><stop offset=".016" stop-color="#547DED"/><stop offset=".032" stop-color="#547DED"/><stop offset=".048" stop-color="#547DEE"/><stop offset=".065" stop-color="#547DEE"/><stop offset=".081" stop-color="#547DEF"/><stop offset=".097" stop-color="#547DEF"/><stop offset=".113" stop-color="#537DF0"/><stop offset=".129" stop-color="#537DF0"/><stop offset=".145" stop-color="#537CF0"/><stop offset=".161" stop-color="#527CF1"/><stop offset=".177" stop-color="#527CF1"/><stop offset=".194" stop-color="#527CF1"/><stop offset=".21" stop-color="#517BF2"/><stop offset=".226" stop-color="#517BF2"/><stop offset=".242" stop-color="#507BF3"/><stop offset=".258" stop-color="#507AF3"/><stop offset=".274" stop-color="#4F7AF3"/><stop offset=".29" stop-color="#4E7AF4"/><stop offset=".306" stop-color="#4E79F4"/><stop offset=".323" stop-color="#4D79F4"/><stop offset=".339" stop-color="#4C78F5"/><stop offset=".355" stop-color="#4B78F5"/><stop offset=".371" stop-color="#4B77F5"/><stop offset=".387" stop-color="#4A77F6"/><stop offset=".403" stop-color="#4976F6"/><stop offset=".419" stop-color="#4876F6"/><stop offset=".435" stop-color="#4775F6"/><stop offset=".452" stop-color="#4674F7"/><stop offset=".468" stop-color="#4574F7"/><stop offset=".484" stop-color="#4473F7"/><stop offset=".5" stop-color="#4373F7"/><stop offset=".516" stop-color="#4272F8"/><stop offset=".532" stop-color="#4171F8"/><stop offset=".548" stop-color="#4071F8"/><stop offset=".565" stop-color="#3F70F8"/><stop offset=".581" stop-color="#3E6FF9"/><stop offset=".597" stop-color="#3D6EF9"/><stop offset=".613" stop-color="#3B6EF9"/><stop offset=".629" stop-color="#3A6DF9"/><stop offset=".645" stop-color="#396CF9"/><stop offset=".661" stop-color="#376BFA"/><stop offset=".677" stop-color="#366AFA"/><stop offset=".694" stop-color="#3569FA"/><stop offset=".71" stop-color="#3368FA"/><stop offset=".726" stop-color="#3268FA"/><stop offset=".742" stop-color="#3167FA"/><stop offset=".758" stop-color="#2F66FA"/><stop offset=".774" stop-color="#2E65FB"/><stop offset=".79" stop-color="#2C64FB"/><stop offset=".806" stop-color="#2A63FB"/><stop offset=".823" stop-color="#2962FB"/><stop offset=".839" stop-color="#2761FB"/><stop offset=".855" stop-color="#2660FB"/><stop offset=".871" stop-color="#245FFB"/><stop offset=".887" stop-color="#225EFB"/><stop offset=".903" stop-color="#205CFB"/><stop offset=".919" stop-color="#1F5BFB"/><stop offset=".935" stop-color="#1D5AFB"/><stop offset=".952" stop-color="#1B59FB"/><stop offset=".968" stop-color="#1958FB"/><stop offset=".984" stop-color="#1757FB"/><stop offset="1" stop-color="#1656FC"/></linearGradient><linearGradient id="paint2_linear_375_60" x1="39.974" y1="15.224" x2="29.769" y2="4.536" gradientUnits="userSpaceOnUse"><stop stop-color="#557EED"/><stop offset=".016" stop-color="#547DED"/><stop offset=".032" stop-color="#547DED"/><stop offset=".048" stop-color="#547DEE"/><stop offset=".065" stop-color="#547DEE"/><stop offset=".081" stop-color="#547DEF"/><stop offset=".097" stop-color="#547DEF"/><stop offset=".113" stop-color="#537DF0"/><stop offset=".129" stop-color="#537DF0"/><stop offset=".145" stop-color="#537CF0"/><stop offset=".161" stop-color="#527CF1"/><stop offset=".177" stop-color="#527CF1"/><stop offset=".194" stop-color="#527CF1"/><stop offset=".21" stop-color="#517BF2"/><stop offset=".226" stop-color="#517BF2"/><stop offset=".242" stop-color="#507BF3"/><stop offset=".258" stop-color="#507AF3"/><stop offset=".274" stop-color="#4F7AF3"/><stop offset=".29" stop-color="#4E7AF4"/><stop offset=".306" stop-color="#4E79F4"/><stop offset=".323" stop-color="#4D79F4"/><stop offset=".339" stop-color="#4C78F5"/><stop offset=".355" stop-color="#4B78F5"/><stop offset=".371" stop-color="#4B77F5"/><stop offset=".387" stop-color="#4A77F6"/><stop offset=".403" stop-color="#4976F6"/><stop offset=".419" stop-color="#4876F6"/><stop offset=".435" stop-color="#4775F6"/><stop offset=".452" stop-color="#4674F7"/><stop offset=".468" stop-color="#4574F7"/><stop offset=".484" stop-color="#4473F7"/><stop offset=".5" stop-color="#4373F7"/><stop offset=".516" stop-color="#4272F8"/><stop offset=".532" stop-color="#4171F8"/><stop offset=".548" stop-color="#4071F8"/><stop offset=".565" stop-color="#3F70F8"/><stop offset=".581" stop-color="#3E6FF9"/><stop offset=".597" stop-color="#3D6EF9"/><stop offset=".613" stop-color="#3B6EF9"/><stop offset=".629" stop-color="#3A6DF9"/><stop offset=".645" stop-color="#396CF9"/><stop offset=".661" stop-color="#376BFA"/><stop offset=".677" stop-color="#366AFA"/><stop offset=".694" stop-color="#3569FA"/><stop offset=".71" stop-color="#3368FA"/><stop offset=".726" stop-color="#3268FA"/><stop offset=".742" stop-color="#3167FA"/><stop offset=".758" stop-color="#2F66FA"/><stop offset=".774" stop-color="#2E65FB"/><stop offset=".79" stop-color="#2C64FB"/><stop offset=".806" stop-color="#2A63FB"/><stop offset=".823" stop-color="#2962FB"/><stop offset=".839" stop-color="#2761FB"/><stop offset=".855" stop-color="#2660FB"/><stop offset=".871" stop-color="#245FFB"/><stop offset=".887" stop-color="#225EFB"/><stop offset=".903" stop-color="#205CFB"/><stop offset=".919" stop-color="#1F5BFB"/><stop offset=".935" stop-color="#1D5AFB"/><stop offset=".952" stop-color="#1B59FB"/><stop offset=".968" stop-color="#1958FB"/><stop offset=".984" stop-color="#1757FB"/><stop offset="1" stop-color="#1656FC"/></linearGradient><linearGradient id="paint3_linear_375_60" x1="15.306" y1="15.224" x2="5.101" y2="4.536" gradientUnits="userSpaceOnUse"><stop stop-color="#557EED"/><stop offset=".016" stop-color="#547DED"/><stop offset=".032" stop-color="#547DED"/><stop offset=".048" stop-color="#547DEE"/><stop offset=".065" stop-color="#547DEE"/><stop offset=".081" stop-color="#547DEF"/><stop offset=".097" stop-color="#547DEF"/><stop offset=".113" stop-color="#537DF0"/><stop offset=".129" stop-color="#537DF0"/><stop offset=".145" stop-color="#537CF0"/><stop offset=".161" stop-color="#527CF1"/><stop offset=".177" stop-color="#527CF1"/><stop offset=".194" stop-color="#527CF1"/><stop offset=".21" stop-color="#517BF2"/><stop offset=".226" stop-color="#517BF2"/><stop offset=".242" stop-color="#507BF3"/><stop offset=".258" stop-color="#507AF3"/><stop offset=".274" stop-color="#4F7AF3"/><stop offset=".29" stop-color="#4E7AF4"/><stop offset=".306" stop-color="#4E79F4"/><stop offset=".323" stop-color="#4D79F4"/><stop offset=".339" stop-color="#4C78F5"/><stop offset=".355" stop-color="#4B78F5"/><stop offset=".371" stop-color="#4B77F5"/><stop offset=".387" stop-color="#4A77F6"/><stop offset=".403" stop-color="#4976F6"/><stop offset=".419" stop-color="#4876F6"/><stop offset=".435" stop-color="#4775F6"/><stop offset=".452" stop-color="#4674F7"/><stop offset=".468" stop-color="#4574F7"/><stop offset=".484" stop-color="#4473F7"/><stop offset=".5" stop-color="#4373F7"/><stop offset=".516" stop-color="#4272F8"/><stop offset=".532" stop-color="#4171F8"/><stop offset=".548" stop-color="#4071F8"/><stop offset=".565" stop-color="#3F70F8"/><stop offset=".581" stop-color="#3E6FF9"/><stop offset=".597" stop-color="#3D6EF9"/><stop offset=".613" stop-color="#3B6EF9"/><stop offset=".629" stop-color="#3A6DF9"/><stop offset=".645" stop-color="#396CF9"/><stop offset=".661" stop-color="#376BFA"/><stop offset=".677" stop-color="#366AFA"/><stop offset=".694" stop-color="#3569FA"/><stop offset=".71" stop-color="#3368FA"/><stop offset=".726" stop-color="#3268FA"/><stop offset=".742" stop-color="#3167FA"/><stop offset=".758" stop-color="#2F66FA"/><stop offset=".774" stop-color="#2E65FB"/><stop offset=".79" stop-color="#2C64FB"/><stop offset=".806" stop-color="#2A63FB"/><stop offset=".823" stop-color="#2962FB"/><stop offset=".839" stop-color="#2761FB"/><stop offset=".855" stop-color="#2660FB"/><stop offset=".871" stop-color="#245FFB"/><stop offset=".887" stop-color="#225EFB"/><stop offset=".903" stop-color="#205CFB"/><stop offset=".919" stop-color="#1F5BFB"/><stop offset=".935" stop-color="#1D5AFB"/><stop offset=".952" stop-color="#1B59FB"/><stop offset=".968" stop-color="#1958FB"/><stop offset=".984" stop-color="#1757FB"/><stop offset="1" stop-color="#1656FC"/></linearGradient><linearGradient id="paint4_linear_375_60" x1="79.205" y1="62.329" x2="40.653" y2="21.953" gradientUnits="userSpaceOnUse"><stop stop-color="#557EED"/><stop offset=".016" stop-color="#547DED"/><stop offset=".032" stop-color="#547DED"/><stop offset=".048" stop-color="#547DEE"/><stop offset=".065" stop-color="#547DEE"/><stop offset=".081" stop-color="#547DEF"/><stop offset=".097" stop-color="#547DEF"/><stop offset=".113" stop-color="#537DF0"/><stop offset=".129" stop-color="#537DF0"/><stop offset=".145" stop-color="#537CF0"/><stop offset=".161" stop-color="#527CF1"/><stop offset=".177" stop-color="#527CF1"/><stop offset=".194" stop-color="#527CF1"/><stop offset=".21" stop-color="#517BF2"/><stop offset=".226" stop-color="#517BF2"/><stop offset=".242" stop-color="#507BF3"/><stop offset=".258" stop-color="#507AF3"/><stop offset=".274" stop-color="#4F7AF3"/><stop offset=".29" stop-color="#4E7AF4"/><stop offset=".306" stop-color="#4E79F4"/><stop offset=".323" stop-color="#4D79F4"/><stop offset=".339" stop-color="#4C78F5"/><stop offset=".355" stop-color="#4B78F5"/><stop offset=".371" stop-color="#4B77F5"/><stop offset=".387" stop-color="#4A77F6"/><stop offset=".403" stop-color="#4976F6"/><stop offset=".419" stop-color="#4876F6"/><stop offset=".435" stop-color="#4775F6"/><stop offset=".452" stop-color="#4674F7"/><stop offset=".468" stop-color="#4574F7"/><stop offset=".484" stop-color="#4473F7"/><stop offset=".5" stop-color="#4373F7"/><stop offset=".516" stop-color="#4272F8"/><stop offset=".532" stop-color="#4171F8"/><stop offset=".548" stop-color="#4071F8"/><stop offset=".565" stop-color="#3F70F8"/><stop offset=".581" stop-color="#3E6FF9"/><stop offset=".597" stop-color="#3D6EF9"/><stop offset=".613" stop-color="#3B6EF9"/><stop offset=".629" stop-color="#3A6DF9"/><stop offset=".645" stop-color="#396CF9"/><stop offset=".661" stop-color="#376BFA"/><stop offset=".677" stop-color="#366AFA"/><stop offset=".694" stop-color="#3569FA"/><stop offset=".71" stop-color="#3368FA"/><stop offset=".726" stop-color="#3268FA"/><stop offset=".742" stop-color="#3167FA"/><stop offset=".758" stop-color="#2F66FA"/><stop offset=".774" stop-color="#2E65FB"/><stop offset=".79" stop-color="#2C64FB"/><stop offset=".806" stop-color="#2A63FB"/><stop offset=".823" stop-color="#2962FB"/><stop offset=".839" stop-color="#2761FB"/><stop offset=".855" stop-color="#2660FB"/><stop offset=".871" stop-color="#245FFB"/><stop offset=".887" stop-color="#225EFB"/><stop offset=".903" stop-color="#205CFB"/><stop offset=".919" stop-color="#1F5BFB"/><stop offset=".935" stop-color="#1D5AFB"/><stop offset=".952" stop-color="#1B59FB"/><stop offset=".968" stop-color="#1958FB"/><stop offset=".984" stop-color="#1757FB"/><stop offset="1" stop-color="#1656FC"/></linearGradient><linearGradient id="paint5_linear_375_60" x1="38.934" y1="59.067" x2="8.602" y2="27.3" gradientUnits="userSpaceOnUse"><stop stop-color="#557EED"/><stop offset=".016" stop-color="#547DED"/><stop offset=".032" stop-color="#547DED"/><stop offset=".048" stop-color="#547DEE"/><stop offset=".065" stop-color="#547DEE"/><stop offset=".081" stop-color="#547DEF"/><stop offset=".097" stop-color="#547DEF"/><stop offset=".113" stop-color="#537DF0"/><stop offset=".129" stop-color="#537DF0"/><stop offset=".145" stop-color="#537CF0"/><stop offset=".161" stop-color="#527CF1"/><stop offset=".177" stop-color="#527CF1"/><stop offset=".194" stop-color="#527CF1"/><stop offset=".21" stop-color="#517BF2"/><stop offset=".226" stop-color="#517BF2"/><stop offset=".242" stop-color="#507BF3"/><stop offset=".258" stop-color="#507AF3"/><stop offset=".274" stop-color="#4F7AF3"/><stop offset=".29" stop-color="#4E7AF4"/><stop offset=".306" stop-color="#4E79F4"/><stop offset=".323" stop-color="#4D79F4"/><stop offset=".339" stop-color="#4C78F5"/><stop offset=".355" stop-color="#4B78F5"/><stop offset=".371" stop-color="#4B77F5"/><stop offset=".387" stop-color="#4A77F6"/><stop offset=".403" stop-color="#4976F6"/><stop offset=".419" stop-color="#4876F6"/><stop offset=".435" stop-color="#4775F6"/><stop offset=".452" stop-color="#4674F7"/><stop offset=".468" stop-color="#4574F7"/><stop offset=".484" stop-color="#4473F7"/><stop offset=".5" stop-color="#4373F7"/><stop offset=".516" stop-color="#4272F8"/><stop offset=".532" stop-color="#4171F8"/><stop offset=".548" stop-color="#4071F8"/><stop offset=".565" stop-color="#3F70F8"/><stop offset=".581" stop-color="#3E6FF9"/><stop offset=".597" stop-color="#3D6EF9"/><stop offset=".613" stop-color="#3B6EF9"/><stop offset=".629" stop-color="#3A6DF9"/><stop offset=".645" stop-color="#396CF9"/><stop offset=".661" stop-color="#376BFA"/><stop offset=".677" stop-color="#366AFA"/><stop offset=".694" stop-color="#3569FA"/><stop offset=".71" stop-color="#3368FA"/><stop offset=".726" stop-color="#3268FA"/><stop offset=".742" stop-color="#3167FA"/><stop offset=".758" stop-color="#2F66FA"/><stop offset=".774" stop-color="#2E65FB"/><stop offset=".79" stop-color="#2C64FB"/><stop offset=".806" stop-color="#2A63FB"/><stop offset=".823" stop-color="#2962FB"/><stop offset=".839" stop-color="#2761FB"/><stop offset=".855" stop-color="#2660FB"/><stop offset=".871" stop-color="#245FFB"/><stop offset=".887" stop-color="#225EFB"/><stop offset=".903" stop-color="#205CFB"/><stop offset=".919" stop-color="#1F5BFB"/><stop offset=".935" stop-color="#1D5AFB"/><stop offset=".952" stop-color="#1B59FB"/><stop offset=".968" stop-color="#1958FB"/><stop offset=".984" stop-color="#1757FB"/><stop offset="1" stop-color="#1656FC"/></linearGradient><linearGradient id="paint6_linear_375_60" x1="31.801" y1="52.256" x2="15.076" y2="34.739" gradientUnits="userSpaceOnUse"><stop stop-color="#557EED"/><stop offset=".016" stop-color="#547DED"/><stop offset=".032" stop-color="#547DED"/><stop offset=".048" stop-color="#547DEE"/><stop offset=".065" stop-color="#547DEE"/><stop offset=".081" stop-color="#547DEF"/><stop offset=".097" stop-color="#547DEF"/><stop offset=".113" stop-color="#537DF0"/><stop offset=".129" stop-color="#537DF0"/><stop offset=".145" stop-color="#537CF0"/><stop offset=".161" stop-color="#527CF1"/><stop offset=".177" stop-color="#527CF1"/><stop offset=".194" stop-color="#527CF1"/><stop offset=".21" stop-color="#517BF2"/><stop offset=".226" stop-color="#517BF2"/><stop offset=".242" stop-color="#507BF3"/><stop offset=".258" stop-color="#507AF3"/><stop offset=".274" stop-color="#4F7AF3"/><stop offset=".29" stop-color="#4E7AF4"/><stop offset=".306" stop-color="#4E79F4"/><stop offset=".323" stop-color="#4D79F4"/><stop offset=".339" stop-color="#4C78F5"/><stop offset=".355" stop-color="#4B78F5"/><stop offset=".371" stop-color="#4B77F5"/><stop offset=".387" stop-color="#4A77F6"/><stop offset=".403" stop-color="#4976F6"/><stop offset=".419" stop-color="#4876F6"/><stop offset=".435" stop-color="#4775F6"/><stop offset=".452" stop-color="#4674F7"/><stop offset=".468" stop-color="#4574F7"/><stop offset=".484" stop-color="#4473F7"/><stop offset=".5" stop-color="#4373F7"/><stop offset=".516" stop-color="#4272F8"/><stop offset=".532" stop-color="#4171F8"/><stop offset=".548" stop-color="#4071F8"/><stop offset=".565" stop-color="#3F70F8"/><stop offset=".581" stop-color="#3E6FF9"/><stop offset=".597" stop-color="#3D6EF9"/><stop offset=".613" stop-color="#3B6EF9"/><stop offset=".629" stop-color="#3A6DF9"/><stop offset=".645" stop-color="#396CF9"/><stop offset=".661" stop-color="#376BFA"/><stop offset=".677" stop-color="#366AFA"/><stop offset=".694" stop-color="#3569FA"/><stop offset=".71" stop-color="#3368FA"/><stop offset=".726" stop-color="#3268FA"/><stop offset=".742" stop-color="#3167FA"/><stop offset=".758" stop-color="#2F66FA"/><stop offset=".774" stop-color="#2E65FB"/><stop offset=".79" stop-color="#2C64FB"/><stop offset=".806" stop-color="#2A63FB"/><stop offset=".823" stop-color="#2962FB"/><stop offset=".839" stop-color="#2761FB"/><stop offset=".855" stop-color="#2660FB"/><stop offset=".871" stop-color="#245FFB"/><stop offset=".887" stop-color="#225EFB"/><stop offset=".903" stop-color="#205CFB"/><stop offset=".919" stop-color="#1F5BFB"/><stop offset=".935" stop-color="#1D5AFB"/><stop offset=".952" stop-color="#1B59FB"/><stop offset=".968" stop-color="#1958FB"/><stop offset=".984" stop-color="#1757FB"/><stop offset="1" stop-color="#1656FC"/></linearGradient></defs></svg>