<svg width="105" height="145" fill="none" xmlns="http://www.w3.org/2000/svg"><path d="M104.506 142.055L83.814 75.989l.321-4.52a11.36 11.36 0 00-.124-2.669l-1.727-10.354a11.38 11.38 0 00-2.109-4.932L68.36 37.761V11.328A11.342 11.342 0 0057.032 0h-36.25A11.342 11.342 0 009.454 11.328v27.303a7.89 7.89 0 000 15.633v2.377H8.32a7.912 7.912 0 00-4.162 14.65 7.86 7.86 0 00.895 10.272 7.891 7.891 0 004.4 13.478v2.38a11.343 11.343 0 0011.328 11.329H39.36l3.423 4.787a34.055 34.055 0 016.16 16.374l1.305 13.05A2.264 2.264 0 0052.514 145h49.83a2.274 2.274 0 001.827-.925 2.27 2.27 0 00.335-2.02zM20.782 4.531h36.25a6.797 6.797 0 016.38 4.532h-4.115a2.266 2.266 0 100 4.53h4.532V36.5a10.195 10.195 0 00-5.891 16.063l2.442 3.254a9.013 9.013 0 011.663 3.886l.7 4.2a8.886 8.886 0 01-3.446 8.598 11.381 11.381 0 00-4.531 9.063v8.659c.011 1.68.302 3.349.861 4.934H41.172v-20.39a2.265 2.265 0 00-2.265-2.266H13.985V13.594h36.25a2.265 2.265 0 100-4.531H14.402a6.797 6.797 0 016.38-4.532zm2.265 81.563a2.266 2.266 0 114.531 0 2.266 2.266 0 01-4.53 0zm2.266 6.797a4.531 4.531 0 013.922 2.265H21.39a4.532 4.532 0 013.922-2.265zm8.74 2.265a9.037 9.037 0 00-3.346-4.984 6.733 6.733 0 001.403-4.078 6.797 6.797 0 10-13.594 0 6.735 6.735 0 001.402 4.078 9.037 9.037 0 00-3.346 4.984h-2.587V77.031H36.64v18.125h-2.587zm-24.6-22.463v6.411a3.398 3.398 0 010-6.411zM7.189 46.445a3.398 3.398 0 012.266-3.206v6.412a3.4 3.4 0 01-2.266-3.206zM8.32 61.172h1.133v6.797H8.32a3.399 3.399 0 010-6.797zM7.188 87.227a3.399 3.399 0 012.266-3.206v6.411a3.398 3.398 0 01-2.266-3.205zm13.594 16.992a6.8 6.8 0 01-6.38-4.531h43.701a13.997 13.997 0 003.21 3.011 6.839 6.839 0 01-4.281 1.52h-36.25zm33.769 36.25L53.45 129.46a38.562 38.562 0 00-6.983-18.555l-1.54-2.155h12.105a11.366 11.366 0 009.81-5.664 2.266 2.266 0 00-1.237-3.28 10.112 10.112 0 01-6.308-9.584v-8.66a6.828 6.828 0 012.719-5.437 13.406 13.406 0 005.197-12.966l-.697-4.205a13.55 13.55 0 00-2.509-5.855l-2.444-3.255a5.664 5.664 0 013.469-8.968l11.516 15.355a6.87 6.87 0 011.269 2.96l1.726 10.352a6.95 6.95 0 01.075 1.604l-.354 4.949c-.02.283.012.567.098.838l19.899 63.535H54.55z" fill="url(#paint0_linear_562_92)"/><path d="M38.907 15.86a18.125 18.125 0 10.003 36.25 18.125 18.125 0 00-.003-36.25zm-2.266 4.719v12.46l-8.818 8.818a13.593 13.593 0 018.818-21.278zm2.266 27a13.498 13.498 0 01-7.878-2.511l8.383-8.383.43-.43h12.461a13.617 13.617 0 01-13.396 11.323zm2.265-15.86v-11.14a13.633 13.633 0 0111.14 11.14h-11.14z" fill="url(#paint1_linear_562_92)"/><path d="M45.703 58.906a2.266 2.266 0 002.266 2.266h9.062a2.266 2.266 0 100-4.531H47.97a2.266 2.266 0 00-2.266 2.265z" fill="url(#paint2_linear_562_92)"/><path d="M38.906 61.172a2.266 2.266 0 100-4.531H25.313a2.265 2.265 0 100 4.53h13.593z" fill="url(#paint3_linear_562_92)"/><path d="M57.031 65.703H34.375a2.265 2.265 0 100 4.531h22.656a2.266 2.266 0 100-4.53z" fill="url(#paint4_linear_562_92)"/><path d="M25.313 65.703H20.78a2.266 2.266 0 000 4.531h4.532a2.265 2.265 0 100-4.53z" fill="url(#paint5_linear_562_92)"/><defs><linearGradient id="paint0_linear_562_92" x1=".394" y1="0" x2="104.892" y2=".204" gradientUnits="userSpaceOnUse"><stop stop-color="#1656FC"/><stop offset="1" stop-color="#557EED"/></linearGradient><linearGradient id="paint1_linear_562_92" x1="20.783" y1="15.859" x2="57.131" y2="15.958" gradientUnits="userSpaceOnUse"><stop stop-color="#1656FC"/><stop offset="1" stop-color="#557EED"/></linearGradient><linearGradient id="paint2_linear_562_92" x1="45.703" y1="56.641" x2="59.333" y2="56.752" gradientUnits="userSpaceOnUse"><stop stop-color="#1656FC"/><stop offset="1" stop-color="#557EED"/></linearGradient><linearGradient id="paint3_linear_562_92" x1="23.047" y1="56.641" x2="41.219" y2="56.838" gradientUnits="userSpaceOnUse"><stop stop-color="#1656FC"/><stop offset="1" stop-color="#557EED"/></linearGradient><linearGradient id="paint4_linear_562_92" x1="32.109" y1="65.703" x2="59.363" y2="66.147" gradientUnits="userSpaceOnUse"><stop stop-color="#1656FC"/><stop offset="1" stop-color="#557EED"/></linearGradient><linearGradient id="paint5_linear_562_92" x1="18.516" y1="65.703" x2="27.602" y2="65.752" gradientUnits="userSpaceOnUse"><stop stop-color="#1656FC"/><stop offset="1" stop-color="#557EED"/></linearGradient></defs></svg>